<svg width="1874" height="2" viewBox="0 0 1874 2" fill="none" xmlns="http://www.w3.org/2000/svg">
<path fill-rule="evenodd" clip-rule="evenodd" d="M1852.76 0.753906H1842.77V1.25391H1852.76V0.753906ZM1856.76 1.25391H1873.25V0.753906H1856.76V1.25391ZM1834.77 0.753906H1837.77V1.25391H1834.77V0.753906ZM1831.77 0.753906H1826.77V1.25391H1831.77V0.753906ZM1777.8 0.753906H1816.78V1.25391H1777.8V0.753906ZM1775.8 0.753906H1763.81V1.25391H1775.8V0.753906ZM1759.81 0.753906H1761.81V1.25391H1759.81V0.753906ZM1755.81 0.753906H1731.82V1.00393H1730.82V0.753906H1722.83V1.00393H1716.83V0.753906H1713.84V1.25391H1755.81V0.753906ZM1708.84 0.753906H1710.84V1.25391H1708.84V0.753906ZM1694.84 0.753906H1664.86V1.25391H1694.84V0.753906ZM1651.87 0.753906H1661.86V1.25391H1651.87V0.753906ZM1648.87 0.753906H1539.93V1.00367H1536.93V0.753906H1530.93V1.25391H1574.91V1.00391H1575.91V1.25391H1578.91V1.00391H1579.91V1.25391H1587.9V1.00391H1589.9V1.25391H1591.9V1.00391H1592.9V1.25391H1597.9V1.00391H1601.89V1.25391H1620.88V1.00391H1621.88V1.25391H1635.88V1.00391H1637.87V1.25391H1639.87V1.00391H1640.87V1.25391H1648.87V0.753906ZM1527.93 0.753906H1519.94V1.25391H1527.93V0.753906ZM1494.95 0.753906H1513.94V1.25391H1494.95V0.753906ZM1490.95 0.753906H1449.98V1.25391H1490.95V0.753906ZM1444.98 0.753906H1445.98V1.25391H1444.98V0.753906ZM1440.98 0.753906H1436.98V1.25391H1440.98V0.753906ZM1419.99 0.753906H1433.98V1.25391H1419.99V0.753906ZM1417.99 0.753906H1412.99V1.25391H1417.99V0.753906ZM1402 0.753906H1410.99V1.25391H1363.02V0.753906H1384.01V1.00393H1386.01V0.753906H1400V1.00393H1402V0.753906ZM1358.02 0.753906H1340.03V1.25391H1358.02V0.753906ZM1317.05 0.753906H1335.04V1.25391H1317.05V0.753906ZM1311.05 0.753906H1309.05V1.00393H1307.05V0.753906H1302.05V1.25391H1311.05V0.753906ZM1296.06 0.753906H1273.07V1.25391H1296.06V0.753906ZM1263.07 0.753906H1267.07V1.25391H1263.07V0.753906ZM1258.08 0.753906H1254.08V1.25391H1258.08V0.753906ZM1246.08 0.753906H1248.08V1.25391H1246.08V0.753906ZM1244.08 0.753906H1240.09V1.25391H1244.08V0.753906ZM1219.1 0.753906H1227.09V1.25391H1219.1V0.753906ZM1216.1 0.753906H1202.11V1.00367H1193.11V0.753906H1173.12V1.25391H1216.1V0.753906ZM1171.12 0.753906H1165.13V1.25391H1171.12V0.753906ZM1120.15 0.753906H1158.13V1.25391H1120.15V0.753906ZM1118.15 0.753906H1111.16V1.25391H1118.15V0.753906ZM1101.16 0.753906H1105.16V1.25391H1096.16V0.753906H1099.16V1.00393H1101.16V0.753906ZM1085.17 0.753906H1093.16V1.25391H1085.17V0.753906ZM1082.17 0.753906H1072.18V1.25391H1082.17V0.753906ZM1061.18 0.753906H1067.18V1.25391H1061.18V0.753906ZM1057.18 0.753906H1043.19V1.25391H1057.18V0.753906ZM1030.2 0.753906H1036.19V1.25391H1030.2V0.753906ZM1026.2 0.753906H1018.2V1.25391H1026.2V0.753906ZM1008.21 0.753906H1013.21V1.25391H1008.21V0.753906ZM1007.21 0.753906H999.215V1.25391H1007.21V0.753906ZM988.221 0.753906H998.215V1.25391H988.221V0.753906ZM984.223 0.753906H975.228V1.25391H984.223V0.753906ZM951.241 0.753906H954.239V1.25391H951.241V0.753906ZM947.243 0.753906H936.248V1.25391H947.243V0.753906ZM930.25 0.753906H932.25V1.25391H930.25V0.753906ZM908.262 0.753906H899.266V1.25391H908.262V0.753906ZM886.275 0.753906H896.268V1.25391H886.275V0.753906ZM884.276 0.753906H876.28V1.25391H884.276V0.753906ZM870.284 0.753906H875.28V1.25391H870.284V0.753906ZM866.286 0.753906H858.289V1.25391H866.286V0.753906ZM848.295 0.753906H853.292V1.25391H848.295V0.753906ZM840.299 0.753906H837.301V1.25391H840.299V0.753906ZM834.303 0.753906H836.301V1.25391H834.303V0.753906ZM833.303 0.753906H826.306V1.25391H833.303V0.753906ZM816.312 0.753906H823.307V1.25391H816.312V0.753906ZM811.315 0.753906H801.32V1.25391H811.315V0.753906ZM790.325 0.753906H799.321V1.25391H790.325V0.753906ZM787.327 0.753906H784.328V1.25391H787.327V0.753906ZM779.331 0.753906H782.329V1.25391H779.331V0.753906ZM772.334 0.753906H765.339V1.25391H772.334V0.753906ZM758.342 0.753906H763.34V1.25391H758.342V0.753906ZM757.342 0.753906H738.354V1.25391H757.342V0.753906ZM724.361 0.753906H737.354V1.25391H724.361V0.753906ZM718.364 0.753906H712.367V1.25391H718.364V0.753906ZM701.374 0.753906H707.37V1.25391H701.374V0.753906ZM700.374 0.753906H688.38V1.25391H700.374V0.753906ZM666.392 0.753906H682.383V1.25391H666.392V0.753906ZM664.393 0.753906H655.398V1.25391H664.393V0.753906ZM647.401 0.753906H649.401V1.25391H647.401V0.753906ZM643.403 0.753906H635.407V1.25391H643.403V0.753906ZM624.413 0.753906H629.411V1.25391H624.413V0.753906ZM621.415 0.753906H616.418V1.25391H621.415V0.753906ZM591.431 0.753906H611.42V1.25391H591.431V0.753906ZM589.432 0.753906H587.433V1.25391H589.432V0.753906ZM577.438 0.753906H581.436V1.25391H577.438V0.753906ZM574.44 0.753906H572.441V1.25391H574.44V0.753906ZM548.455 0.753906H566.444V1.25391H548.455V0.753906ZM543.458 0.753906H524.467V1.25391H543.458V0.753906ZM499.48 0.753906H520.469V1.25391H499.48V0.753906ZM497.481 0.753906H488.75V1.25391H497.481V0.753906ZM170.75 0.753906H166.659V1.25391H170.75V0.753906ZM152.665 0.753906H161.661V1.25391H152.665V0.753906ZM127.679 0.753906H151.665V1.25391H127.679V0.753906ZM124.681 0.753906H121.681V1.25391H124.681V0.753906ZM107.688 0.753906H118.683V1.25391H107.688V0.753906ZM105.689 0.753906H66.7108V1.25391H105.689V0.753906ZM51.7184 0.753906H56.7161V1.25391H51.7184V0.753906ZM48.72 0.753906H45.7212V1.25391H48.72V0.753906ZM30.7301 0.753906H40.7239V1.25391H30.7301V0.753906ZM27.7317 0.753906H17.7372V1.25391H27.7317V0.753906ZM0.746094 0.753906H9.74147V1.25391H0.746094V0.753906Z" fill="#8F7E77"/>
</svg>
