<svg width="987" height="990" viewBox="0 0 987 990" fill="none" xmlns="http://www.w3.org/2000/svg">
<path opacity="0.2" d="M985.582 735.551C984.499 735.008 983.182 735.463 982.64 736.55L982.362 737.122V63.9857C982.567 63.4718 982.567 62.8844 982.362 62.3558V5.57337C982.362 5.47058 982.348 5.38248 982.304 5.29438C982.231 5.11817 982.084 4.97132 981.909 4.89791C981.821 4.85385 981.718 4.83918 981.631 4.83918L925.242 4.83918L924.876 4.51613C923.969 3.70852 922.579 3.79663 921.774 4.70703C921.73 4.75108 921.715 4.79513 921.671 4.83918L822.213 4.83918C822.095 4.69234 821.949 4.56019 821.788 4.45741L820.573 3.63509C819.564 2.95964 818.203 3.22395 817.529 4.23714C817.398 4.42803 817.324 4.63361 817.266 4.83918L742.452 4.83918C742.452 4.03157 742.013 3.26801 741.252 2.88623L739.935 2.22546C738.852 1.68216 737.535 2.12267 736.994 3.20927C736.73 3.73789 736.701 4.32524 736.862 4.85386L247.046 4.85386C246.431 3.92877 245.231 3.59105 244.221 4.10499L242.919 4.78045C242.919 4.78045 242.846 4.83917 242.802 4.85386L69.2611 4.85386L69.6708 4.50146C70.5928 3.70853 70.6806 2.31355 69.8904 1.38847C69.1001 0.463386 67.7098 0.375292 66.7878 1.16822L65.6755 2.13736C64.8852 2.8275 64.7096 3.95814 65.1926 4.85386L6.21388 4.85386C6.11144 4.85386 6.02362 4.86855 5.93581 4.9126C5.76019 4.98602 5.61384 5.13287 5.54066 5.30907C5.49676 5.39718 5.48213 5.49994 5.48213 5.58805L5.48213 165.847C5.1748 166.009 4.91137 166.244 4.70649 166.552L3.88693 167.786C3.21373 168.799 3.49179 170.165 4.5016 170.84C4.80893 171.046 5.14552 171.134 5.49676 171.178L5.49676 243.261C5.30651 243.437 5.13089 243.642 4.99918 243.892L4.32599 245.214C3.76986 246.3 4.20889 247.622 5.29187 248.18C5.35041 248.209 5.42359 248.224 5.49676 248.253L5.49676 739.413C5.08698 739.369 4.66258 739.428 4.26743 739.633C3.18445 740.176 2.74541 741.498 3.2869 742.585L3.94546 743.906C4.26743 744.538 4.8382 744.934 5.48213 745.052L5.48213 816.518L4.69186 815.314C4.03329 814.301 2.67224 814.007 1.64779 814.682C0.637986 815.343 0.345276 816.709 1.01848 817.737L1.82341 818.97C2.24782 819.616 2.95029 819.969 3.6674 819.969C4.07717 819.969 4.5016 819.851 4.86747 819.601C5.11626 819.44 5.33578 819.22 5.49676 818.985L5.49676 984.295C5.49676 984.398 5.51141 984.486 5.55531 984.574C5.62849 984.751 5.77484 984.897 5.95046 984.971C6.03827 985.015 6.1407 985.03 6.22851 985.03H62.6168L63.612 985.911C64.0364 986.278 64.5486 986.469 65.0609 986.469C65.6755 986.469 66.2755 986.219 66.7146 985.72C66.8902 985.514 67.0219 985.279 67.1244 985.03H166.393C166.539 985.5 166.832 985.925 167.256 986.219L168.486 987.041C168.866 987.291 169.276 987.408 169.7 987.408C170.418 987.408 171.105 987.056 171.53 986.425C171.808 985.999 171.925 985.514 171.881 985.03H735.515C734.769 985.676 734.52 986.748 734.974 987.673C735.354 988.451 736.13 988.891 736.95 988.891C737.272 988.891 737.608 988.818 737.915 988.657L739.233 987.996C740.316 987.452 740.755 986.131 740.213 985.044C740.213 985.044 740.213 985.03 740.199 985.015H814.456L813.856 985.411C812.846 986.072 812.553 987.438 813.227 988.466C813.651 989.112 814.354 989.464 815.056 989.464C815.466 989.464 815.89 989.347 816.256 989.097L817.485 988.289C818.495 987.614 818.773 986.248 818.115 985.235C818.056 985.147 817.998 985.088 817.939 985.015H918.657C917.925 985.837 917.896 987.085 918.627 987.922C919.066 988.422 919.666 988.671 920.281 988.671C920.793 988.671 921.305 988.495 921.715 988.128L922.828 987.159C923.457 986.601 923.691 985.764 923.515 985H981.66C981.762 985 981.85 984.986 981.938 984.941C982.114 984.868 982.26 984.721 982.333 984.545C982.377 984.457 982.392 984.354 982.392 984.266V823.038C983.006 822.964 983.606 822.656 983.972 822.083L984.792 820.85C985.465 819.836 985.187 818.471 984.177 817.795C983.636 817.428 982.977 817.355 982.392 817.516V740.353C982.567 740.544 982.772 740.705 983.021 740.823C983.328 740.984 983.665 741.058 984.001 741.058C984.806 741.058 985.582 740.617 985.963 739.839L986.621 738.517C987.163 737.431 986.709 736.109 985.626 735.566L985.582 735.551ZM241.777 6.30756C241.69 6.77745 241.733 7.2767 241.968 7.7319C242.363 8.49546 243.124 8.92129 243.914 8.92129C244.251 8.92129 244.602 8.84787 244.909 8.67166L246.197 8.01089C246.87 7.65848 247.295 7.01239 247.383 6.30756L738.252 6.30756L739.262 6.82151C739.584 6.98303 739.92 7.05643 740.242 7.05643C740.857 7.05643 741.457 6.79213 741.882 6.30756L817.31 6.30756C817.471 6.68934 817.749 7.04175 818.115 7.29138L819.329 8.11367C819.71 8.3633 820.134 8.49546 820.559 8.49546C821.261 8.49546 821.964 8.15773 822.388 7.52633C822.637 7.15923 822.754 6.73339 822.754 6.32224L921.218 6.32224C921.247 6.88023 921.496 7.42353 921.949 7.83467L923.047 8.80381C923.471 9.17091 923.984 9.36181 924.51 9.36181C925.111 9.36181 925.725 9.11218 926.15 8.62761C926.72 7.98152 926.837 7.08581 926.53 6.33694L979.845 6.33694L954.146 32.1218L953.766 31.74C952.902 30.8883 951.512 30.8883 950.663 31.74C949.814 32.6063 949.814 34.0013 950.663 34.853L951.029 35.22L880.752 105.732C881.03 104.954 880.869 104.043 880.255 103.412L879.215 102.369C878.352 101.518 876.962 101.532 876.113 102.399C875.264 103.265 875.279 104.66 876.142 105.512L877.181 106.539C877.606 106.965 878.162 107.186 878.733 107.186C878.981 107.186 879.245 107.127 879.479 107.039L797.084 189.709L733.525 79.2569L732.896 79.624V78.8898L254.949 78.8898V79.624L254.32 79.2569L190.76 189.709L109.229 107.905C109.902 107.039 109.888 105.805 109.083 104.998C108.292 104.205 107.048 104.175 106.185 104.851L80.8958 79.4771C80.8958 79.4771 80.9251 79.4771 80.9397 79.4771C81.4959 79.4771 82.052 79.2569 82.491 78.831L83.5301 77.8032C84.3936 76.9515 84.4082 75.5566 83.5594 74.6902C82.7106 73.8239 81.3202 73.8092 80.4568 74.6608L79.4177 75.7034C78.9787 76.1439 78.7738 76.7313 78.7738 77.3039L7.98471 6.27819L241.777 6.27819V6.30756ZM819.315 407.382L904.475 492.827L787.162 444.077V388.763L819.315 407.397V407.382ZM787.162 387.06V375.122L815.319 403.373L787.162 387.06ZM892.811 489.582L787.162 456.94V445.766L892.811 489.582ZM889.094 489.964L787.162 466.866V458.482L889.094 489.979V489.964ZM894.977 492.813L787.162 481.124V468.379L894.977 492.813ZM893.997 494.178H787.147V482.593L893.997 494.178ZM893.997 495.647L787.147 507.232V495.647H893.997ZM894.977 497.012L787.162 521.446V508.7L894.977 497.012ZM889.094 499.861L787.162 531.358V522.973L889.094 499.875V499.861ZM892.811 500.243L787.162 544.059V532.885L892.811 500.243ZM904.461 496.997L819.3 582.443L787.147 601.076V545.762L904.461 497.012V496.997ZM815.319 586.451L787.162 614.703V602.765L815.319 586.451ZM820.208 583.617L885.874 545.586L787.162 784.713V616.788L820.222 583.617H820.208ZM824.203 579.609L905.5 498.04L886.796 543.354L824.203 579.609ZM908.075 495.647H969.147L888.875 542.15L908.075 495.647ZM908.075 494.178L888.875 447.674L969.147 494.178H908.075ZM905.5 491.785L824.203 410.216L886.796 446.47L905.5 491.785ZM820.208 406.207L787.147 373.036V205.112L885.86 444.238L820.193 406.193L820.208 406.207ZM786.255 200.56L733.627 178.696V82.3552L796.016 190.781L786.255 200.575V200.56ZM782.742 200.692L733.627 200.692V180.282L782.742 200.692ZM785.698 205.127V371.583L737.111 322.832L785.698 205.127ZM782.742 202.161L733.627 222.571V202.161L782.742 202.161ZM772.22 208.137L733.627 228.621V224.201L772.22 208.122V208.137ZM769.878 211.044L733.627 234.01V230.295L769.878 211.044ZM776.025 208.886L733.627 243.129V235.743L776.025 208.886ZM776.303 210.545L733.627 253.363V245.008L776.303 210.545ZM777.342 211.588L733.642 266.065V255.448L777.342 211.602V211.588ZM778.996 211.867L733.642 283.935V268.399L778.996 211.867ZM776.83 218.049L733.627 299.955V286.681L776.83 218.034V218.049ZM779.727 215.684L735.896 321.614L733.627 319.338V303.097L779.727 215.684ZM735.296 323.082L733.627 327.105V321.408L735.296 323.082ZM736.496 324.286L785.698 373.653V386.208L733.642 356.047V331.232L736.511 324.286H736.496ZM785.698 387.911V443.46L733.642 421.816V357.736L785.698 387.897V387.911ZM785.698 445.163V456.499L733.642 440.421V423.578L785.698 445.163ZM785.698 458.027V466.528L733.642 454.723V441.933L785.698 458.012V458.027ZM785.698 468.041V480.963L733.642 475.324V456.25L785.698 468.056V468.041ZM785.698 482.431V494.178H733.642V476.792L785.698 482.431ZM785.698 495.647V507.394L733.642 513.032V495.647H785.698ZM785.698 508.862V521.784L733.642 533.59V514.515L785.698 508.877V508.862ZM785.698 523.296V531.798L733.642 547.877V535.087L785.698 523.282V523.296ZM785.698 533.34V544.676L733.642 566.261V549.419L785.698 533.34ZM785.698 546.364V601.913L733.642 632.074V567.994L785.698 546.35V546.364ZM785.698 603.617V616.172L736.496 665.539L733.627 658.593V633.777L785.684 603.617H785.698ZM785.698 618.257V784.713L737.111 667.007L785.698 618.257ZM735.296 666.743L733.627 668.417V662.705L735.296 666.743ZM735.91 668.196L779.742 774.126L733.642 686.713V670.472L735.91 668.196ZM776.83 771.776L733.627 703.129V689.855L776.83 771.776ZM778.996 777.958L733.642 721.425V705.89L778.996 777.958ZM777.342 778.237L733.642 734.391V723.775L777.342 778.252V778.237ZM776.303 779.28L733.627 744.817V736.462L776.303 779.28ZM776.025 780.939L733.627 754.082V746.696L776.025 780.939ZM769.863 778.766L733.627 759.53V755.815L769.863 778.78V778.766ZM772.22 781.673L733.627 765.594V761.174L772.22 781.658V781.673ZM782.742 787.664H733.627V767.254L782.742 787.664ZM782.742 789.132L733.627 809.543V789.132H782.742ZM786.255 789.265L796.016 799.059L733.627 907.484V811.144L786.255 789.279V789.265ZM787.294 788.222L887.967 544.368L969.879 496.909L796.777 797.737L787.294 788.222ZM887.952 445.457L787.279 201.603L796.762 192.087L969.864 492.915L887.952 445.457ZM507.664 541.989L511.879 542.444L501.928 554.852H498.415L495.078 552.15L507.664 541.989ZM507.225 540.462L500.728 539.757L509.23 538.832L507.211 540.462H507.225ZM507.664 447.836L495.078 437.675L498.415 434.973H501.928L511.879 447.381L507.664 447.836ZM509.245 450.993L500.742 450.068L507.24 449.363L509.26 450.993H509.245ZM613.314 200.692H544.603L540.886 191.691L581.117 168.388L613.329 200.707L613.314 200.692ZM497.039 81.9587L631.154 137.699L581.351 166.552L497.039 81.9587ZM522.797 787.664L522.27 787.356L530.334 751.527L544.237 743.48L530.685 787.664H522.797ZM530.231 789.132L529.485 791.541L525.314 789.132H530.217H530.231ZM522.899 647.639L523.499 642.103H550.72L529.295 651.031L522.914 647.639H522.899ZM527.539 651.765L522.226 653.982L522.738 649.225L527.539 651.78V651.765ZM529.295 338.794L550.72 347.722H523.499L522.899 342.186L529.28 338.794H529.295ZM522.738 340.615L522.226 335.857L527.539 338.074L522.738 340.629V340.615ZM530.685 202.161L544.237 246.344L530.334 238.298L522.27 202.469L522.797 202.161H530.685ZM525.329 200.692L529.5 198.284L530.246 200.692H525.343H525.329ZM640.637 465.236V437.924L649.535 459.421L646.155 465.824L640.637 465.222V465.236ZM645.408 467.233L640.637 476.293V466.719L645.408 467.233ZM640.227 432.345L631.11 410.275L650.369 416.222L640.227 432.345ZM523.573 627.772L513.431 623.557L524.67 617.596L523.573 627.772ZM524.817 629.886L539.744 636.083L524.656 631.428L524.817 629.886ZM524.495 632.911L549.535 640.649H523.675L524.509 632.911H524.495ZM524.977 628.359L526.222 616.759L527.919 615.863L551.262 639.284L524.977 628.359ZM526.046 604.865L525.343 603.984L526.178 603.631L526.046 604.865ZM524.977 361.466L551.262 350.541L527.919 373.962L526.222 373.066L524.977 361.466ZM526.178 386.179L525.343 385.826L526.046 384.945L526.178 386.179ZM524.67 372.229L513.431 366.267L523.573 362.053L524.67 372.244V372.229ZM523.66 349.175H549.52L524.495 356.914L523.66 349.175ZM524.656 358.397L539.744 353.742L524.831 359.938L524.67 358.397H524.656ZM628.959 409.614L637.813 431.126L618.568 411.816L622.051 407.485L628.959 409.614ZM623.046 406.251L626.046 402.522L628.241 407.852L623.046 406.251ZM622.051 582.355L618.568 578.023L637.813 558.714L628.959 580.225L622.051 582.355ZM628.241 581.973L626.046 587.303L623.046 583.573L628.241 581.973ZM625.812 427.602L610.884 421.405L611.85 420.201L625.812 427.616V427.602ZM612.787 419.026L617.646 412.962L635.939 431.317L612.787 419.026ZM636.217 433.505H603.201L602.63 431.669L609.919 422.58L636.203 433.505H636.217ZM635.939 558.508L617.646 576.863L612.787 570.798L635.939 558.508ZM611.865 569.638L610.899 568.434L625.812 562.238L611.865 569.638ZM609.933 567.245L602.645 558.156L603.216 556.32H636.232L609.948 567.245H609.933ZM566.599 609.901L558.652 603.485L570.799 599.726L566.599 609.901ZM567.199 612.266L568.399 613.235L565.75 618.257L565.15 617.214L567.199 612.251V612.266ZM557.262 602.369L556.018 601.355L555.843 601.047L574.297 591.253L571.531 597.964L557.277 602.369H557.262ZM566.014 611.311L564.228 615.628L558.052 604.88L566.014 611.311ZM564.448 618.932L564.946 619.798L561.023 627.243L564.448 618.947V618.932ZM565.809 621.296L568.575 626.098L557.321 637.39L565.809 621.281V621.296ZM569.336 627.419L572.57 633.043L557.511 639.284L569.336 627.419ZM566.614 619.769L569.555 614.174L575.6 619.049L569.643 625.026L566.614 619.754V619.769ZM569.102 611.913L567.785 610.856L572.614 599.153L576.463 597.964L569.102 611.913ZM573.331 597.406L576.317 590.181L582.215 587.053L577.414 596.157L573.331 597.42V597.406ZM579.697 407.822L577.209 401.787L582.771 404.739L579.697 407.822ZM583.795 405.781L586.737 411.361L580.722 408.865L583.795 405.781ZM588.713 433.505H556.15L579.171 410.407L588.713 433.505ZM580.78 410.466L587.805 413.388L598.416 433.505H590.293L580.78 410.466ZM601.533 433.049L601.679 433.505H601.167L601.533 433.049ZM598.386 417.778L608.528 421.992L602.133 429.966L598.386 417.778ZM602.133 434.973L602.908 437.513L602.235 437.587L600.86 434.973H602.133ZM601.401 439.158L605.85 447.601L597.537 451.052L593.981 442.447L596.176 439.716L601.401 439.143V439.158ZM602.118 559.844L608.514 567.818L598.372 572.032L602.118 559.844ZM601.167 556.32H601.679L601.533 556.775L601.167 556.32ZM600.86 554.852L602.235 552.238L602.908 552.312L602.133 554.852H600.86ZM601.401 550.667L596.191 550.094L593.996 547.363L597.552 538.758L605.865 542.209L601.416 550.652L601.401 550.667ZM600.669 552.062L599.513 554.25L597.479 551.724L600.655 552.062H600.669ZM594.127 549.874L593.001 549.756L593.352 548.92L594.127 549.889V549.874ZM598.094 452.417L606.406 448.967L609.201 458.1L605.118 461.404L601.635 461.022L598.079 452.417H598.094ZM599.996 460.831L582.434 458.922L596.762 452.975L600.011 460.831H599.996ZM611.089 464.194L617.763 485.941L614.851 492.989L605.338 469.95L611.089 464.179V464.194ZM610.914 458.599L611.441 458.173L612.685 460.523L611.792 461.419L610.928 458.599H610.914ZM611.089 525.631L605.338 519.86L614.851 496.821L617.763 503.869L611.089 525.616V525.631ZM611.777 528.391L612.67 529.287L611.426 531.637L610.899 531.211L611.763 528.391H611.777ZM603.216 525.014L604.738 521.343L609.831 526.453L605.572 526.908L603.216 525.014ZM603.508 527.143L602.279 527.275L602.63 526.439L603.508 527.143ZM605.572 462.916L609.831 463.371L604.738 468.481L603.216 464.81L605.572 462.916ZM602.63 463.401L602.279 462.564L603.508 462.696L602.63 463.401ZM613.753 494.178H581.19L604.211 471.08L613.753 494.178ZM613.753 495.647L604.211 518.744L581.19 495.647H613.753ZM610.402 527.863L609.67 530.227L607.182 528.215L610.402 527.863ZM610.445 532.738L610.738 532.973L609.86 534.632L610.445 532.738ZM615.948 495.647H620.295L618.436 501.682L615.948 495.647ZM615.948 494.178L618.436 488.143L620.295 494.178H615.948ZM610.445 457.087L609.86 455.193L610.738 456.852L610.445 457.087ZM610.402 461.962L607.182 461.609L609.67 459.598L610.402 461.962ZM602.03 465.765L603.611 469.597L579.434 493.855L573.99 488.393L602.03 465.75V465.765ZM577.663 494.178H566.863L572.848 489.347L577.663 494.178ZM577.663 495.647L572.848 500.477L566.863 495.647H577.663ZM579.434 495.955L603.611 520.213L602.03 524.045L573.99 501.403L579.434 495.94V495.955ZM605.133 528.436L609.216 531.739L606.421 540.873L598.108 537.422L601.664 528.817L605.148 528.436H605.133ZM596.747 536.849L582.42 530.902L599.981 528.994L596.732 536.849H596.747ZM603.889 549.081L603.333 550.872L602.952 550.828L603.874 549.066L603.889 549.081ZM604.387 552.473L626.31 554.852H603.655L604.387 552.473ZM604.826 551.034L607.343 542.84L634.915 554.294L604.826 551.034ZM607.899 541.489L611.894 533.913L635.471 552.943L607.899 541.489ZM612.597 532.591L613.753 530.388L629.778 546.467L612.597 532.591ZM613.036 527.584L613.621 527.525L613.402 527.951L613.036 527.584ZM612.45 526.174L618.641 506.013L621.407 512.724L614.426 525.954L612.45 526.174ZM622.139 514.486L626.339 524.662L616.197 525.763L622.139 514.486ZM619.314 503.811L621.275 497.409L624.29 507.247L622.285 511.035L619.299 503.811H619.314ZM619.314 486.014L622.3 478.79L624.305 482.578L621.29 492.416L619.329 486.014H619.314ZM622.139 475.339L616.197 464.062L626.339 465.163L622.139 475.339ZM621.422 477.101L618.656 483.811L612.465 463.65L614.441 463.871L621.422 477.101ZM613.036 462.241L613.402 461.874L613.621 462.3L613.036 462.241ZM613.753 459.436L612.597 457.234L629.778 443.357L613.753 459.436ZM611.894 455.912L607.899 448.335L635.471 436.882L611.909 455.912H611.894ZM607.343 446.984L604.826 438.791L634.915 435.531L607.343 446.984ZM604.387 437.352L603.655 434.973H626.31L604.387 437.352ZM603.889 440.744L602.967 438.996L603.347 438.952L603.904 440.744H603.889ZM593.352 440.905L593.001 440.068L594.127 439.951L593.352 440.92V440.905ZM597.479 438.101L599.513 435.575L600.669 437.763L597.479 438.101ZM598.108 434.973L595.415 438.321L592.415 438.644L590.893 434.973H598.094H598.108ZM592.942 443.754L596.191 451.61L581.863 457.557L592.942 443.754ZM600.625 462.373L601.445 464.355L572.951 487.365L564.638 479.024L579.815 460.112L600.625 462.373ZM563.599 477.997L555.682 470.053L577.136 461.14L563.599 478.011V477.997ZM563.716 480.184L571.809 488.305L564.784 493.973L557.423 488.026L563.716 480.184ZM571.809 501.52L563.716 509.64L557.423 501.799L564.784 495.852L571.809 501.52ZM577.136 528.7L555.682 519.787L563.599 511.843L577.136 528.715V528.7ZM564.638 510.786L572.951 502.445L601.445 525.455L600.625 527.437L579.815 529.698L564.638 510.786ZM596.191 538.215L592.942 546.071L581.863 532.268L596.191 538.215ZM595.43 551.504L598.123 554.852H590.908L592.43 551.181L595.43 551.504ZM598.43 556.32L587.82 576.437L580.795 579.359L590.308 556.32H598.43ZM586.737 578.463L583.795 584.043L580.722 580.96L586.737 578.463ZM579.171 579.418L556.15 556.32H588.713L579.171 579.418ZM579.697 582.002L582.771 585.086L577.209 588.037L579.697 582.002ZM584.161 586.495L589.927 592.281L579.405 595.526L584.161 586.495ZM585.2 585.453L594.201 580.666L590.966 591.224L585.2 585.438V585.453ZM585.742 583.5L588.859 577.582L596.059 574.587L594.801 578.684L585.727 583.5H585.742ZM589.942 575.556L599.777 556.907L601.021 558.464L596.63 572.766L589.942 575.541V575.556ZM597.815 573.867L609.48 569.022L610.533 570.343L596.63 577.729L597.815 573.867ZM614.47 529.023L615.363 527.32L626.924 526.071L637.813 552.444L614.47 529.023ZM628.446 525.91L629.983 525.748L634.622 540.887L628.446 525.91ZM627.861 524.5L623.031 512.797L624.919 509.229L629.544 524.309L627.861 524.486V524.5ZM622.27 495.647H630.422L625.271 505.411L622.27 495.647ZM622.27 494.178L625.271 484.413L630.422 494.178H622.27ZM624.919 480.596L623.031 477.027L627.861 465.324L629.544 465.501L624.919 480.581V480.596ZM628.446 463.915L634.622 448.937L629.983 464.076L628.446 463.915ZM626.924 463.753L615.363 462.505L614.47 460.802L637.813 437.381L626.924 463.753ZM609.48 420.803L597.815 415.957L596.63 412.095L610.533 419.481L609.48 420.803ZM601.021 431.361L599.777 432.917L589.942 414.283L596.63 417.059L601.021 431.361ZM588.859 412.242L585.742 406.325L594.815 411.141L596.074 415.238L588.874 412.242H588.859ZM585.2 404.372L590.966 398.586L594.201 409.144L585.2 404.357V404.372ZM584.161 403.329L579.405 394.299L589.927 397.544L584.161 403.329ZM582.215 402.786L576.317 399.658L573.331 392.434L577.414 393.697L582.215 402.801V402.786ZM565.15 372.596L565.75 371.553L568.399 376.575L567.199 377.544L565.15 372.581V372.596ZM570.799 390.099L558.652 386.34L566.599 379.923L570.799 390.099ZM557.306 352.42L568.56 363.712L565.794 368.514L557.306 352.406V352.42ZM564.946 370.026L564.448 370.893L561.023 362.596L564.946 370.026ZM566.014 378.514L558.052 384.945L564.243 374.197L566.028 378.514H566.014ZM571.517 391.861L574.282 398.572L555.828 388.778L556.004 388.469L557.248 387.456L571.502 391.861H571.517ZM572.614 390.672L567.785 378.969L569.102 377.912L576.463 391.861L572.614 390.672ZM566.614 370.056L569.643 364.784L575.6 370.76L569.555 375.635L566.614 370.041V370.056ZM569.336 362.405L557.511 350.541L572.57 356.781L569.336 362.405ZM556.282 348.118L572.351 337.942L576.2 350.482L573.448 355.269L556.282 348.133V348.118ZM563.526 372.493L556.018 385.547L555.125 385.268V352.141L563.526 372.493ZM555.257 386.839L555.111 387.089V386.795L555.257 386.839ZM575.175 400.701L578.088 407.749L555.125 398.205V390.055L575.175 400.701ZM578.146 409.379L555.125 432.477V399.805L578.146 409.379ZM589.313 434.973L590.893 438.805L555.111 442.682V434.958H589.313V434.973ZM591.493 440.23L592.313 442.212L579.185 458.57L555.125 455.956V444.165L591.493 440.23ZM576.58 459.774L555.125 468.687V457.439L576.58 459.759V459.774ZM562.677 479.142L556.282 487.115L555.111 486.175V471.565L562.677 479.157V479.142ZM555.374 488.246L555.125 488.554V488.04L555.374 488.246ZM556.516 489.171L562.721 494.178H555.125V490.904L556.516 489.171ZM562.706 495.647L556.501 500.654L555.111 498.921V495.647H562.706ZM555.374 501.579L555.125 501.784V501.27L555.374 501.579ZM556.282 502.724L562.677 510.697L555.111 518.289V503.679L556.282 502.739V502.724ZM576.58 530.051L555.125 532.371V521.123L576.58 530.036V530.051ZM579.185 531.255L592.313 547.613L591.493 549.595L555.125 545.66V533.869L579.185 531.255ZM590.908 551.005L589.327 554.837H555.125V547.113L590.908 550.99V551.005ZM578.146 580.446L555.125 590.02V557.348L578.146 580.446ZM578.088 582.061L575.175 589.109L555.125 599.755V591.605L578.088 582.061ZM555.257 602.985L555.111 603.029V602.736L555.257 602.985ZM556.018 604.292L563.526 617.346L555.125 637.698V604.571L556.018 604.292ZM573.448 634.57L576.2 639.357L572.351 651.897L556.282 641.721L573.448 634.585V634.57ZM573.185 654.159L591.318 665.656L592.737 668.138L587.132 681.764L567.858 671.53L573.185 654.173V654.159ZM573.624 652.705L577.18 641.09L589.737 662.91L573.609 652.69L573.624 652.705ZM576.785 637.434L574.809 633.998L578.278 632.559L576.785 637.434ZM573.931 632.485L570.404 626.362L576.756 619.989L581.073 623.484L578.951 630.415L573.931 632.5V632.485ZM582.288 624.468L586.005 627.478L580.693 629.681L582.288 624.468ZM581.527 621.957L577.78 618.932L584.527 612.163L581.527 621.957ZM576.639 618.007L570.258 612.853L578.439 597.362L590.205 593.735L585.464 609.167L576.653 618.007H576.639ZM591.64 593.999L596.103 598.478L587.659 606.95L591.64 593.999ZM592.679 592.956L605.587 588.962L597.142 597.435L592.679 592.956ZM592.401 591.503L596.015 579.697L611.455 571.489L616.592 577.891L607.782 586.73L592.401 591.488V591.503ZM617.529 579.051L620.544 582.81L610.782 585.82L617.529 579.051ZM631.461 525.587L639.174 524.75V550.696L631.461 525.572V525.587ZM631.022 524.148L625.885 507.394L631.637 496.484L639.174 510.756V523.267L631.022 524.148ZM632.851 495.647H639.174V507.614L632.851 495.647ZM632.851 494.178L639.174 482.211V494.178H632.851ZM631.637 493.341L625.885 482.431L631.022 465.677L639.174 466.558V479.069L631.637 493.341ZM631.461 464.238L639.174 439.114V465.06L631.461 464.223V464.238ZM617.529 410.774L610.782 404.005L620.544 407.015L617.529 410.774ZM616.607 411.919L611.47 418.321L596.03 410.128L592.415 398.322L607.796 403.08L616.607 411.919ZM592.679 396.868L597.142 392.39L605.587 400.862L592.679 396.883V396.868ZM591.64 395.826L587.673 382.875L596.118 391.347L591.654 395.826H591.64ZM590.191 396.09L578.424 392.463L570.243 376.972L576.624 371.818L585.434 380.657L590.176 396.09H590.191ZM577.78 370.893L581.527 367.868L584.527 377.662L577.78 370.893ZM580.693 360.144L586.005 362.347L582.288 365.357L580.693 360.144ZM581.073 366.355L576.756 369.85L570.404 363.477L573.931 357.354L578.951 359.439L581.073 366.37V366.355ZM574.809 355.812L576.785 352.376L578.278 357.251L574.809 355.812ZM573.624 337.12L589.752 326.9L577.195 348.72L573.639 337.105L573.624 337.12ZM573.185 335.666L567.858 318.31L587.132 308.075L592.737 321.702L591.318 324.183L573.185 335.681V335.666ZM567.419 316.885L561.038 296.108L579.097 288.59L586.561 306.724L567.404 316.9L567.419 316.885ZM571.897 336.488L554.862 347.281L550.428 327.575L566.526 319.029L571.882 336.503L571.897 336.488ZM553.062 600.856L550.881 602.016L550.545 598.83L553.062 600.871V600.856ZM550.325 596.759L550.018 593.852L552.872 598.815L550.325 596.759ZM553.662 602.207V603.485L551.13 604.263L551.057 603.587L553.662 602.207ZM551.32 593.191L553.662 592.222V597.259L551.32 593.191ZM550.574 591.914L549.608 590.24L545.949 556.32H553.647V590.636L550.574 591.914ZM527.568 554.852H520.733L525.065 550.505L527.568 554.852ZM522.797 543.619L529.163 544.309L525.373 548.112L522.797 543.619ZM526.134 549.433L531.022 544.529L532.514 544.691L531.417 554.852H529.251L526.134 549.433ZM547.808 587.083L532.324 560.182L532.734 556.32H544.486L547.793 587.098L547.808 587.083ZM544.983 547.187L552.623 554.852H545.803L544.983 547.187ZM532.675 543.222L532.354 543.193L532.719 542.826L532.675 543.222ZM531.271 556.32L531.08 558.023L530.1 556.32H531.271ZM532.061 562.649L548.203 590.695L548.423 592.795L546.447 593.617L530.144 580.446L532.061 562.649ZM548.584 594.322L548.701 595.453L547.735 594.674L548.569 594.322H548.584ZM544.91 594.263L537.081 597.523L531.153 583.148L544.91 594.263ZM546.198 595.32L548.92 597.523L549.491 602.75L541.076 607.214L537.637 598.874L546.213 595.306L546.198 595.32ZM549.667 604.322L549.711 604.703L547.925 605.261L549.681 604.336L549.667 604.322ZM546.022 546.144L553.662 546.967V553.809L546.022 546.144ZM544.691 544.514L543.681 535.087L553.662 534.001V545.469L544.705 544.5L544.691 544.514ZM543.52 533.634L543.359 532.136L553.647 521.813V532.547L543.52 533.648V533.634ZM542.232 535.264L543.081 543.208L537.71 537.818L540.022 535.498L542.232 535.264ZM541.676 533.839L542.042 533.472L542.071 533.795L541.676 533.839ZM541.574 515.514L553.106 520.301L543.169 530.271L541.574 515.514ZM542.13 514.148L553.662 504.839V518.935L542.13 514.148ZM541.295 512.944L540.842 508.715L550.969 496.087L553.662 499.435V502.959L541.295 512.944ZM539.437 495.647H549.447L540.622 506.645L539.437 495.647ZM539.847 513.208L537.885 512.386L539.539 510.316L539.847 513.194V513.208ZM539.539 479.494L537.885 477.424L539.847 476.602L539.539 479.48V479.494ZM540.622 483.18L549.447 494.178H539.437L540.622 483.18ZM552.491 495.647H553.647V497.1L552.491 495.647ZM552.491 494.178L553.647 492.724V494.178H552.491ZM550.969 493.738L540.842 481.109L541.295 476.881L553.662 486.866V490.39L550.969 493.738ZM542.071 456.03L542.042 456.353L541.676 455.985L542.071 456.03ZM540.022 454.326L537.71 452.006L543.081 446.617L542.232 454.561L540.022 454.326ZM543.154 459.554L553.091 469.524L541.559 474.311L543.154 459.554ZM542.13 475.677L553.662 470.89V484.986L542.13 475.677ZM543.359 457.674L543.52 456.176L553.647 457.278V468.012L543.359 457.689V457.674ZM543.681 454.723L544.691 445.296L553.647 444.326V455.795L543.666 454.708L543.681 454.723ZM525.373 441.713L529.163 445.516L522.797 446.206L525.373 441.713ZM525.065 439.319L520.733 434.973H527.568L525.065 439.319ZM526.134 440.391L529.251 434.973H531.417L532.514 445.134L531.022 445.296L526.134 440.391ZM549.491 387.074L548.92 392.302L546.198 394.504L537.637 390.936L541.076 382.596L549.491 387.06V387.074ZM547.91 384.578L549.711 385.136L549.667 385.518L547.91 384.593V384.578ZM548.701 394.372L548.584 395.503L547.749 395.15L548.715 394.372H548.701ZM544.91 395.561L531.153 406.677L537.081 392.302L544.91 395.561ZM546.447 396.193L548.423 397.015L548.203 399.115L532.061 427.161L530.144 409.364L546.447 396.193ZM531.271 433.505H530.1L531.08 431.787L531.271 433.505ZM532.675 446.603L532.719 446.999L532.354 446.632L532.675 446.603ZM532.324 429.643L547.808 402.742L544.5 433.519H532.749L532.339 429.657L532.324 429.643ZM545.803 434.973H552.623L544.983 442.638L545.803 434.973ZM546.008 443.68L553.647 436.015V442.858L546.008 443.68ZM545.964 433.505L549.623 399.585L550.589 397.911L553.662 399.188V433.505H545.964ZM552.857 391.024L550.003 395.987L550.311 393.08L552.857 391.024ZM550.545 391.009L550.881 387.823L553.062 388.983L550.545 391.024V391.009ZM551.32 396.633L553.662 392.566V397.603L551.32 396.633ZM551.057 386.237L551.13 385.562L553.662 386.34V387.618L551.057 386.237ZM551.291 384.079L553.662 362.082V384.813L551.291 384.079ZM549.857 383.638L541.691 381.113L553.106 353.448L549.857 383.638ZM540.344 380.555L532.793 376.546L551.759 352.89L540.344 380.555ZM529.28 374.681L545.305 358.602L531.475 375.841L529.28 374.681ZM530.539 377.001L530.114 377.53L527.304 376.663L528.197 375.768L530.539 377.016V377.001ZM531.856 377.706L533.51 378.587L531.622 378L531.856 377.706ZM526.836 375.048L526.47 375.415L526.412 374.828L526.836 375.048ZM529.119 378.763L527.114 381.259L526.763 378.029L529.119 378.763ZM530.627 379.233L539.729 382.038L536.29 390.378L527.714 386.81L527.334 383.315L530.627 379.218V379.233ZM535.72 391.744L529.792 406.119L527.89 388.499L535.72 391.758V391.744ZM530.817 429.32L528.402 433.505H520.06L528.944 411.978L530.817 429.32ZM518.714 432.947L510.796 425.003L527.612 411.42L518.728 432.947H518.714ZM519.226 435.546L524.304 440.641L520.997 446.397L514.455 447.102L519.226 435.531V435.546ZM521.89 447.777L530.495 446.852L532.983 449.348L533.437 453.636L519.416 452.109L521.904 447.792L521.89 447.777ZM532.895 434.973H544.325L543.359 443.959L533.963 444.973L532.88 434.958L532.895 434.973ZM542.042 445.589L536.671 450.978L534.359 448.658L534.124 446.441L542.027 445.589H542.042ZM537.695 454.077L535.851 453.871L536.671 453.049L537.695 454.077ZM535.646 452.006L534.827 452.828L534.622 450.978L535.646 452.006ZM539.349 455.736L541.837 458.232L540.139 474.061L536.832 471.389L535.09 455.281L539.364 455.751L539.349 455.736ZM539.29 475.265L537.329 476.088L537.051 473.459L539.305 475.28L539.29 475.265ZM539.32 481.565L538.617 488.084L537.695 479.553L539.32 481.579V481.565ZM539.32 508.26L537.695 510.286L538.617 501.755L539.32 508.275V508.26ZM539.29 514.559L537.037 516.38L537.315 513.752L539.276 514.574L539.29 514.559ZM540.125 515.778L541.822 531.607L539.334 534.104L535.061 534.573L536.803 518.465L540.11 515.793L540.125 515.778ZM537.695 535.748L536.671 536.776L535.851 535.954L537.695 535.748ZM535.646 537.818L534.622 538.846L534.827 536.996L535.646 537.818ZM536.685 538.846L542.056 544.235L534.139 543.384L534.373 541.166L536.685 538.846ZM543.359 545.851L544.325 554.837H532.895L533.978 544.823L543.374 545.836L543.359 545.851ZM532.968 540.491L530.48 542.987L521.875 542.062L519.387 537.745L533.407 536.218L532.954 540.506L532.968 540.491ZM524.304 549.184L519.226 554.279L514.455 542.708L520.997 543.413L524.304 549.169V549.184ZM527.597 578.405L510.782 564.822L518.699 556.878L527.583 578.405H527.597ZM520.06 556.32H528.402L530.802 560.505L528.929 577.847L520.046 556.32H520.06ZM529.792 583.705L535.72 598.081L527.89 601.341L529.792 583.72V583.705ZM536.276 599.432L539.715 607.772L530.612 610.577L527.319 606.48L527.7 602.985L536.276 599.417V599.432ZM531.475 613.984L545.305 631.222L529.28 615.144L531.475 613.984ZM528.197 614.057L527.304 613.161L530.114 612.295L530.539 612.824L528.197 614.072V614.057ZM531.622 611.825L533.51 611.238L531.856 612.119L531.622 611.825ZM529.119 611.061L526.763 611.796L527.114 608.565L529.119 611.061ZM526.836 614.777L526.412 614.997L526.47 614.409L526.836 614.777ZM532.793 613.279L540.344 609.27L551.759 636.934L532.793 613.279ZM541.691 608.712L549.857 606.187L553.106 636.376L541.691 608.712ZM551.291 605.746L553.662 605.012V627.742L551.291 605.746ZM554.877 642.558L571.912 653.351L566.555 670.825L550.457 662.279L554.891 642.573L554.877 642.558ZM567.419 672.939L586.576 683.115L579.112 701.25L561.053 693.732L567.433 672.954L567.419 672.939ZM578.483 702.762L568.107 727.96L546.74 740.338L560.555 695.317L578.483 702.762ZM579.99 703.393L597.757 710.779L570.39 726.638L579.99 703.393ZM580.619 701.881L588.039 683.893L607.884 694.422L612.407 702.292L599.528 709.752L580.605 701.866L580.619 701.881ZM588.61 682.528L593.806 669.944L606.509 692.028L588.61 682.528ZM592.415 664.599L577.78 639.181L580.034 631.839L587.556 628.711L603.64 641.707L593.835 665.509L592.415 664.613V664.599ZM589.093 628.065L613.416 617.963L604.226 640.282L589.108 628.065H589.093ZM587.556 626.832L582.756 622.955L586.751 609.946L597.142 599.52L613.592 616.025L587.542 626.832H587.556ZM598.181 598.478L608.572 588.052L621.539 584.043L625.402 588.86L614.631 614.997L598.181 598.492V598.478ZM626.632 590.401L638.808 605.57L616.563 614.791L626.632 590.387V590.401ZM627.276 588.86L630.393 581.312L651.189 574.895L663.951 595.159L640.227 604.997L627.276 588.86ZM631.125 579.55L640.242 557.48L650.384 573.603L631.125 579.55ZM640.637 523.12V513.546L645.408 522.606L640.637 523.12ZM646.14 523.986L649.521 530.388L640.623 551.886V524.574L646.14 523.972V523.986ZM630.393 408.513L627.276 400.965L640.227 384.828L663.951 394.666L651.189 414.929L630.393 408.513ZM626.632 399.423L616.563 375.019L638.808 384.24L626.632 399.409V399.423ZM625.402 400.965L621.539 405.781L608.572 401.773L598.181 391.347L614.631 374.843L625.402 400.98V400.965ZM597.142 390.305L586.751 379.879L582.756 366.869L587.556 362.993L613.607 373.8L597.157 390.305H597.142ZM589.093 361.759L604.211 349.542L613.402 371.862L589.078 361.759H589.093ZM587.556 361.113L580.034 357.986L577.78 350.644L592.415 325.226L593.835 324.33L603.64 348.133L587.556 361.128V361.113ZM593.791 319.881L588.595 307.297L606.494 297.796L593.791 319.881ZM588.039 305.931L580.619 287.944L599.542 280.058L612.421 287.518L607.899 295.388L588.054 305.917L588.039 305.931ZM579.99 286.431L570.39 263.187L597.757 279.045L579.99 286.431ZM578.483 287.063L560.555 294.507L546.74 249.487L568.107 261.865L578.483 287.063ZM546.11 247.416L532.222 202.161H543.52L567.199 259.633L546.125 247.431L546.11 247.416ZM544.881 248.4L559.194 295.065L544.5 301.174L530.788 240.236L544.881 248.4ZM559.677 296.666L566.102 317.576L550.106 326.078L544.866 302.833L559.677 296.666ZM553.281 346.87L531.285 337.722L549.096 328.265L553.281 346.87ZM523.412 360.526L511.748 365.372L508.191 363.477L523.221 358.837L523.397 360.526H523.412ZM524.86 373.991L525.08 375.973L504.986 369.762L511.674 366.987L524.86 373.991ZM525.358 378.616L525.812 382.889L523.924 385.253L520.265 383.726L525.358 378.616ZM524.377 387.03L526.353 387.852L528.607 408.733L509.757 423.96L501.445 415.62L524.377 387.03ZM517.206 433.505L502.645 433.505L501.708 432.33L509.655 425.913L517.221 433.505H517.206ZM517.88 434.973L513.109 446.544L503.83 434.973L517.88 434.973ZM513.504 449.392L515.318 451.654L512.699 451.375L513.518 449.407L513.504 449.392ZM516.621 453.269L516.87 453.577L516.211 454.723L514.06 452.99L516.636 453.269H516.621ZM514.718 448.555L520.089 447.968L517.821 451.918L517.382 451.874L514.718 448.555ZM517.85 454.796L520.719 458.364L517.367 455.648L517.865 454.796H517.85ZM518.67 453.489L532.661 455.002L525.592 462.094L518.684 453.475L518.67 453.489ZM533.7 456.044L535.207 470.082L526.617 463.151L533.685 456.044H533.7ZM535.427 472.138L535.705 474.707L530.349 468.026L535.427 472.138ZM536.085 478.187L537.812 494.178L497.61 494.178L536.085 478.187ZM537.798 495.647L536.071 511.637L497.596 495.647L537.798 495.647ZM535.427 517.687L530.349 521.798L535.705 515.117L535.427 517.702V517.687ZM535.207 519.743L533.7 533.78L526.631 526.688L535.222 519.757L535.207 519.743ZM532.661 534.823L518.67 536.335L525.578 527.716L532.646 534.808L532.661 534.823ZM517.85 535.029L517.353 534.177L520.704 531.46L517.85 535.029ZM517.367 537.951L517.806 537.907L520.075 541.857L514.704 541.269L517.367 537.951ZM516.621 536.556L514.045 536.835L516.197 535.087L516.855 536.233L516.606 536.541L516.621 536.556ZM515.318 538.171L513.504 540.432L512.684 538.465L515.304 538.186L515.318 538.171ZM513.094 543.281L517.865 554.852H503.815L513.094 543.281ZM517.206 556.32L509.64 563.912L501.693 557.495L502.63 556.32H517.192H517.206ZM509.743 565.865L528.592 581.092L526.339 601.972L524.363 602.794L501.43 574.205L509.743 565.865ZM525.812 606.935L525.358 611.208L520.265 606.098L523.924 604.571L525.812 606.935ZM524.86 615.834L511.674 622.838L504.986 620.063L525.08 613.851L524.86 615.834ZM511.748 624.453L523.412 629.299L523.236 630.987L508.206 626.347L511.762 624.453H511.748ZM553.281 642.955L549.096 661.559L531.285 652.103L553.281 642.955ZM550.106 663.747L566.102 672.249L559.677 693.159L544.866 686.992L550.106 663.747ZM559.194 694.745L544.881 741.41L530.788 749.574L544.5 688.636L559.194 694.745ZM546.11 742.394L567.185 730.191L543.505 787.664H532.207L546.096 742.408L546.11 742.394ZM569.482 728.855L599.469 711.484L623.441 721.44L644.428 757.915L614.792 787.649H545.218L569.497 728.855H569.482ZM601.24 710.471L613.153 703.57L622.124 719.164L601.24 710.471ZM610.314 695.714L617.324 699.444L613.665 701.558L610.299 695.714H610.314ZM608.938 693.32L594.508 668.24L594.698 667.785L631.622 691.177L618.846 698.577L608.953 693.32H608.938ZM595.254 666.405L605.001 642.808L650.984 679.943L633.042 690.34L595.254 666.405ZM605.587 641.398L615.333 617.772L667.668 670.281L652.345 679.165L605.587 641.398ZM616.373 616.73L639.92 606.95L683.415 661.163L668.985 669.518L616.373 616.73ZM641.325 606.363L664.843 596.583L699.587 651.795L684.688 660.429L641.31 606.363H641.325ZM666.219 596.025L680.913 589.917L710.285 645.598L700.86 651.06L666.219 596.025ZM665.312 594.586L652.638 574.44L669.936 569.095L680.137 588.434L665.312 594.586ZM651.818 573.148L641.062 556.056L660.702 551.607L669.219 567.759L651.804 573.133L651.818 573.148ZM641.471 554.47L650.589 532.4L660.014 550.27L641.471 554.47ZM650.252 528.641L647.706 523.825L652.448 523.311L650.238 528.641H650.252ZM646.974 522.43L640.623 510.404V495.661H663.892L653.092 521.769L646.974 522.43ZM640.637 494.178V479.436L646.989 467.409L653.106 468.07L663.907 494.178H640.637ZM647.706 466L650.252 461.184L652.462 466.514L647.721 466H647.706ZM641.471 435.355L660.014 439.554L650.589 457.424L641.471 435.355ZM641.076 433.754L651.833 416.662L669.248 422.036L660.731 438.189L641.091 433.739L641.076 433.754ZM652.638 415.385L665.312 395.238L680.137 401.391L669.936 420.73L652.638 415.385ZM666.219 393.799L700.86 338.764L710.285 344.227L680.913 399.908L666.219 393.799ZM664.843 393.241L641.325 383.462L684.703 329.411L699.601 338.045L664.858 393.256L664.843 393.241ZM639.92 382.875L616.373 373.095L668.985 320.307L683.415 328.662L639.92 382.875ZM615.333 372.053L605.587 348.426L652.345 310.659L667.668 319.543L615.333 372.053ZM605.001 347.017L595.254 323.42L633.042 299.485L650.984 309.881L605.001 347.017ZM594.698 322.039L594.508 321.584L608.938 296.504L618.831 291.247L631.608 298.648L594.684 322.039H594.698ZM610.314 294.111L613.68 288.267L617.338 290.381L610.314 294.111ZM613.138 286.255L601.225 279.354L622.109 270.661L613.138 286.255ZM599.469 278.34L569.482 260.969L545.203 202.175H614.777L644.413 231.91L623.427 268.385L599.455 278.34H599.469ZM542.905 200.692H531.768L530.802 197.521L539.525 192.469L542.905 200.692ZM530.349 196.096L499.235 94.6896L538.954 191.104L530.349 196.081V196.096ZM529.046 196.845L522.402 200.692H521.875L498.854 98.4193L529.061 196.845H529.046ZM520.382 200.692H507.679L496.03 92.5164L520.382 200.692ZM519.87 202.161L508.543 208.724L507.84 202.161H519.885H519.87ZM508.908 225.875L495.386 218.034L507.328 211.118L508.923 225.86L508.908 225.875ZM508.703 210.325L520.938 203.233L528.607 237.284L510.474 226.785L508.703 210.325ZM529.046 239.237L543.125 301.746L519.606 311.526L510.679 228.592L529.061 239.237H529.046ZM520.47 333.229L496.147 323.126L518.377 313.861L520.455 333.229H520.47ZM519.797 313.288L543.505 303.42L548.774 326.797L529.544 337.002L522.021 333.875L519.797 313.288ZM522.036 347.707L512.494 347.707L521.524 342.905L522.036 347.707ZM522.182 349.175L523.06 357.354L506.362 362.508L495.488 356.737L509.713 349.175L522.182 349.175ZM509.991 366.106L502.791 369.101L496.41 367.134L506.216 364.109L509.991 366.12V366.106ZM502.864 370.658L524.538 377.354L518.787 383.124L495.825 373.58L502.85 370.658H502.864ZM519.138 384.857L522.958 386.443L500.391 414.577L494.947 409.115L519.124 384.857H519.138ZM500.508 416.765L508.601 424.885L500.786 431.199L494.859 423.813L500.508 416.765ZM500.566 433.255L500.771 433.505H500.259L500.566 433.255ZM512.157 448.834L511.338 450.802L509.274 449.143L512.143 448.834H512.157ZM511.938 453.181L515.45 456.015L498.869 484.839L511.938 453.181ZM516.606 456.955L524.421 463.269L497.332 490.448L516.606 456.94V456.955ZM525.46 464.297L535.515 476.822L497.039 492.813L525.46 464.297ZM535.515 512.988L525.46 525.514L497.039 496.997L535.515 512.988ZM524.436 526.556L516.621 532.87L497.347 499.362L524.451 526.556H524.436ZM515.465 533.81L511.952 536.644L498.884 504.971L515.479 533.795L515.465 533.81ZM512.157 540.99L509.289 540.682L511.352 539.023L512.172 540.99H512.157ZM500.757 556.32L500.552 556.57L500.245 556.32H500.757ZM500.786 558.626L508.601 564.94L500.508 573.06L494.859 566.011L500.786 558.626ZM522.973 603.382L519.153 604.968L494.976 580.71L500.42 575.248L522.987 603.382H522.973ZM524.538 612.471L502.864 619.167L495.839 616.245L518.802 606.7L524.553 612.471H524.538ZM509.991 623.719L506.216 625.731L496.41 622.706L502.791 620.738L509.991 623.734V623.719ZM506.362 627.317L523.06 632.471L522.182 640.649H509.713L495.488 633.087L506.362 627.317ZM522.036 642.118L521.524 646.905L512.494 642.118H522.036ZM522.007 655.95L529.529 652.822L548.759 663.028L543.491 686.404L519.782 676.537L522.007 655.95ZM518.392 675.949L496.161 666.684L520.485 656.581L518.406 675.949H518.392ZM519.606 678.299L543.125 688.078L529.046 750.587L510.665 761.233L519.592 678.299H519.606ZM528.607 752.526L520.938 786.578L508.703 779.485L510.474 763.025L528.607 752.526ZM519.87 787.664H507.825L508.528 781.1L519.855 787.664H519.87ZM507.328 778.692L495.386 771.776L508.908 763.935L507.313 778.678L507.328 778.692ZM507.664 789.132H520.368L496.015 897.308L507.664 789.132ZM521.875 789.132H522.402L529.046 792.98L498.84 891.405L521.86 789.132H521.875ZM530.349 793.729L538.954 798.706L499.235 895.12L530.349 793.729ZM530.788 792.29L531.753 789.118H542.891L539.51 797.341L530.788 792.29ZM544.603 789.132H613.329L581.117 821.452L540.886 798.148L544.603 789.147V789.132ZM581.351 823.272L631.154 852.126L497.039 907.866L581.351 823.272ZM582.42 822.201L615.377 789.132H662.37L685.596 829.498L632.851 851.421L582.405 822.201H582.42ZM616.855 787.664L645.189 759.236L661.55 787.664H616.87H616.855ZM625.651 722.365L663.98 738.297L645.496 756.843L625.666 722.365H625.651ZM624.334 720.089L614.411 702.835L618.86 700.251L673.156 729.076L665.165 737.093L624.334 720.089ZM620.353 699.385L632.998 692.058L680.225 721.983L674.224 728.004L620.339 699.4L620.353 699.385ZM634.447 691.235L652.213 680.942L690.411 711.793L681.308 720.926L634.447 691.235ZM653.575 680.149L668.751 671.353L699.718 702.424L691.45 710.721L653.575 680.134V680.149ZM670.053 670.605L684.337 662.338L709.026 693.115L700.757 701.411L670.068 670.619L670.053 670.605ZM685.625 661.574L700.377 653.028L719.183 682.91L710.08 692.043L685.64 661.574H685.625ZM701.636 652.308L710.973 646.905L726.237 675.847L720.237 681.867L701.636 652.323V652.308ZM682.274 589.344L700.201 581.899L723.412 638.006L711.558 644.878L682.274 589.359V589.344ZM681.498 587.876L671.356 568.655L692.064 562.252L699.557 580.372L681.483 587.861L681.498 587.876ZM670.668 567.333L662.194 551.284L685.361 546.027L691.508 560.887L670.668 567.333ZM661.492 549.933L651.321 530.638L654.438 523.091L674.956 520.859L684.791 544.647L661.492 549.933ZM655.067 521.549L665.136 497.144L674.371 519.449L655.067 521.549ZM655.067 468.276L674.371 470.361L665.136 492.666L655.067 468.261V468.276ZM654.423 466.734L651.306 459.187L661.477 439.892L684.776 445.178L674.941 468.966L654.423 466.734ZM662.194 438.541L670.668 422.492L691.508 428.938L685.361 443.798L662.194 438.541ZM671.356 421.17L681.498 401.949L699.572 409.438L692.079 427.558L671.371 421.155L671.356 421.17ZM682.274 400.481L711.558 344.961L723.412 351.833L700.201 407.94L682.274 400.495V400.481ZM710.973 342.92L701.65 337.516L720.251 307.972L726.251 313.993L710.987 342.935L710.973 342.92ZM700.377 336.782L685.625 328.236L710.065 297.767L719.168 306.9L700.362 336.782H700.377ZM684.337 327.502L670.053 319.235L700.743 288.443L709.011 296.739L684.322 327.517L684.337 327.502ZM668.751 318.471L653.575 309.676L691.45 279.089L699.718 287.386L668.751 318.457V318.471ZM652.213 308.883L634.447 298.589L681.308 268.899L690.411 278.032L652.213 308.883ZM633.012 297.767L620.353 290.44L674.239 261.836L680.239 267.856L633.012 297.782V297.767ZM618.86 289.574L614.411 286.989L624.334 269.736L665.165 252.732L673.156 260.749L618.86 289.574ZM625.651 267.46L645.481 232.982L663.965 251.528L625.636 267.46H625.651ZM645.174 230.589L616.841 202.161H661.521L645.159 230.589H645.174ZM615.377 200.692L582.42 167.624L632.866 138.403L685.61 160.326L662.385 200.692H615.392H615.377ZM634.461 137.478L730.905 81.6063L686.357 159.034L634.476 137.464L634.461 137.478ZM632.749 136.773L496.966 80.3435L730.159 80.3435L632.749 136.773ZM580.034 167.316L540.315 190.325L496 83.0013L580.034 167.316ZM506.201 200.692H494.654V93.4855L506.201 200.692ZM506.362 202.161L507.152 209.532L494.654 216.771V202.161H506.362ZM509.099 227.681L518.187 312.113L494.639 321.893V219.311L509.084 227.681H509.099ZM520.675 335.196L521.333 341.334L509.347 347.707H494.639V324.36L520.66 335.196H520.675ZM506.596 349.175L494.654 355.519V349.175H506.596ZM504.386 363.125L494.654 366.135V357.956L504.386 363.125ZM500.669 369.982L494.654 372.478V368.117L500.669 369.982ZM517.675 384.24L494.654 407.338V374.666L517.675 384.24ZM499.469 415.722L494.654 421.728V410.891L499.469 415.722ZM499.644 432.11L497.918 433.505H494.654V425.884L499.644 432.11ZM496.103 434.973L494.654 436.133V434.973H496.103ZM505.616 448.071L494.654 449.26V439.217L505.616 448.071ZM510.591 452.608L494.654 491.212V450.876L510.591 452.608ZM510.591 537.216L494.654 538.949L494.654 498.613L510.591 537.216ZM505.616 541.768L494.654 550.623V540.579L505.616 541.768ZM496.103 554.852H494.654V553.692L496.103 554.852ZM497.918 556.32L499.644 557.715L494.654 563.941V556.32H497.918ZM499.469 574.102L494.654 578.933V568.097L499.469 574.102ZM517.675 605.584L494.654 615.158V582.487L517.675 605.584ZM500.669 619.842L494.654 621.707V617.346L500.669 619.842ZM504.386 626.7L494.654 631.869V623.69L504.386 626.7ZM506.581 640.649H494.654V634.306L506.581 640.649ZM509.347 642.118L521.333 648.491L520.675 654.629L494.654 665.465V642.118H509.347ZM518.202 677.711L509.113 762.144L494.669 770.513V667.932L518.216 677.711H518.202ZM507.152 780.293L506.362 787.664H494.654V773.054L507.152 780.293ZM506.201 789.132L494.654 896.339V789.132H506.201ZM540.315 799.499L580.034 822.509L496 906.824L540.315 799.499ZM632.749 853.051L730.159 909.481H496.966L632.749 853.051ZM634.461 852.346L686.342 830.776L730.891 908.204L634.447 852.332L634.461 852.346ZM687.703 830.218L732.164 811.746V907.484L687.703 830.218ZM686.971 828.926L664.068 789.118H732.164V810.145L686.971 828.926ZM663.219 787.664L646.242 758.164L665.429 738.914L732.164 766.652V787.679H663.219V787.664ZM666.629 737.71L674.502 729.81L732.164 760.426V765.007L666.629 737.71ZM675.6 728.723L681.513 722.791L732.179 754.89V758.766L675.6 728.723ZM682.566 721.719L691.552 712.703L732.164 745.507V753.142L682.566 721.719ZM692.591 711.66L700.757 703.467L732.164 734.978V743.613L692.591 711.646V711.66ZM701.782 702.439L709.948 694.245L732.164 721.939V732.923L701.782 702.439ZM710.987 693.203L719.973 684.187L732.164 703.555V719.59L710.987 693.203ZM721.041 683.115L726.954 677.183L732.179 687.08V700.794L721.041 683.115ZM728.037 676.111L732.179 671.955V683.952L728.037 676.111ZM727.32 674.745L712.246 646.156L723.983 639.357L732.179 659.166V669.87L727.32 674.745ZM725.359 638.564L732.164 634.629V655.054L725.359 638.564ZM724.803 637.199L701.709 581.268L732.164 568.611V632.926L724.788 637.199H724.803ZM701.079 579.756L693.659 561.768L732.164 549.874V566.863L701.079 579.756ZM693.089 560.402L687.001 545.66L732.164 535.425V548.332L693.089 560.402ZM686.444 544.279L676.698 520.682L732.164 514.662V533.913L686.43 544.279H686.444ZM676.112 519.273L666.365 495.647H732.164V513.194L676.112 519.273ZM666.365 494.178L676.112 470.552L732.164 476.631V494.178H666.365ZM676.698 469.142L686.444 445.545L732.179 455.912V475.163L676.712 469.142H676.698ZM687.001 444.165L693.089 429.422L732.164 441.493V454.4L687.001 444.165ZM693.659 428.057L701.079 410.069L732.164 422.962V439.951L693.659 428.057ZM701.709 408.557L724.803 352.626L732.179 356.899V421.214L701.723 408.557H701.709ZM725.359 351.26L732.164 334.77V355.196L725.359 351.246V351.26ZM723.968 350.453L712.231 343.654L727.305 315.065L732.164 319.94V330.644L723.968 350.453ZM728.037 313.714L732.179 305.873V317.869L728.037 313.714ZM726.939 312.627L721.027 306.695L732.164 289.016V302.73L726.939 312.627ZM719.973 305.638L710.987 296.622L732.164 270.235V286.27L719.973 305.638ZM709.948 295.579L701.782 287.386L732.164 256.902V267.886L709.948 295.579ZM700.757 286.358L692.591 278.164L732.164 246.197V254.832L700.743 286.358H700.757ZM691.552 277.122L682.566 268.106L732.164 236.682V244.318L691.552 277.122ZM681.498 267.034L675.585 261.102L732.164 231.058V234.935L681.498 267.034ZM674.517 260.015L666.643 252.115L732.179 224.818V229.399L674.517 260.015ZM665.443 250.926L646.257 231.675L663.234 202.175H732.179V223.203L665.443 250.94V250.926ZM664.068 200.692L686.971 160.884L732.164 179.665V200.692H664.068ZM687.703 159.607L732.164 82.3405V178.079L687.703 159.607ZM480.18 447.836L475.965 447.381L485.917 434.973H489.429L492.766 437.675L480.18 447.836ZM480.619 449.363L487.117 450.068L478.614 450.993L480.634 449.363H480.619ZM480.18 541.989L492.766 552.15L489.429 554.852H485.917L475.965 542.444L480.18 541.989ZM478.6 538.832L487.102 539.757L480.605 540.462L478.585 538.832H478.6ZM464.945 342.186L464.345 347.722H437.124L458.55 338.794L464.93 342.186H464.945ZM460.306 338.06L465.618 335.842L465.106 340.6L460.306 338.045V338.06ZM458.55 651.031L437.124 642.103H464.345L464.945 647.639L458.564 651.031H458.55ZM465.106 649.21L465.618 653.968L460.306 651.75L465.106 649.195V649.21ZM457.159 787.664L443.607 743.48L457.511 751.527L465.574 787.356L465.048 787.664H457.159ZM462.516 789.132L458.345 791.541L457.598 789.132H462.501H462.516ZM464.272 362.053L474.414 366.267L463.174 372.229L464.272 362.038V362.053ZM463.028 359.938L448.115 353.742L463.204 358.397L463.043 359.938H463.028ZM463.35 356.914L438.324 349.175H464.184L463.35 356.914ZM462.867 361.466L461.623 373.066L459.925 373.962L436.583 350.541L462.867 361.466ZM461.799 384.945L462.501 385.826L461.667 386.179L461.799 384.945ZM462.867 628.359L436.583 639.284L459.925 615.863L461.623 616.759L462.867 628.359ZM461.667 603.646L462.501 603.999L461.799 604.88L461.667 603.646ZM463.174 617.596L474.414 623.557L464.272 627.772L463.174 617.596ZM464.184 640.649H438.324L463.365 632.911L464.199 640.649H464.184ZM463.189 631.428L448.1 636.083L463.028 629.886L463.189 631.428ZM347.207 524.588V551.9L338.309 530.403L341.69 524.001L347.207 524.603V524.588ZM342.436 522.591L347.222 513.531V523.105L342.436 522.591ZM347.617 557.48L356.735 579.55L337.475 573.603L347.617 557.48ZM407.225 287.944L399.805 305.931L379.96 295.403L375.438 287.532L388.317 280.073L407.24 287.958L407.225 287.944ZM390.088 279.045L417.455 263.187L407.854 286.431L390.088 279.045ZM358.886 580.211L350.032 558.699L369.277 578.008L365.794 582.34L358.886 580.211ZM364.798 583.573L361.798 587.303L359.603 581.973L364.798 583.573ZM365.794 407.47L369.277 411.802L350.032 431.111L358.886 409.599L365.794 407.47ZM359.603 407.852L361.798 402.522L364.798 406.251L359.603 407.852ZM411.059 352.391L413.035 355.827L409.567 357.266L411.059 352.391ZM410.65 348.735L398.093 326.915L414.206 337.134L410.65 348.749V348.735ZM413.913 357.339L417.44 363.477L411.089 369.85L406.771 366.355L408.893 359.425L413.913 357.339ZM417.045 599.726L429.192 603.485L421.245 609.901L417.045 599.726ZM422.694 617.229L422.094 618.271L419.445 613.249L420.645 612.28L422.694 617.243V617.229ZM420.06 610.856L418.743 611.913L411.381 597.964L415.23 599.153L420.06 610.856ZM421.231 619.769L418.201 625.041L412.245 619.064L418.289 614.189L421.231 619.784V619.769ZM418.509 627.419L430.334 639.284L415.274 633.043L418.509 627.419ZM419.27 626.112L422.036 621.311L430.538 637.419L419.27 626.112ZM422.899 619.798L423.397 618.932L426.821 627.243L422.899 619.798ZM421.831 611.311L429.792 604.88L423.616 615.628L421.831 611.311ZM416.328 597.964L413.562 591.253L432.017 601.047L431.841 601.355L430.597 602.369L416.343 597.964H416.328ZM414.513 597.406L410.43 596.143L405.63 587.039L411.528 590.166L414.513 597.391V597.406ZM362.047 562.238L376.96 568.434L375.994 569.638L362.047 562.238ZM375.058 570.798L370.199 576.863L351.905 558.508L375.058 570.798ZM351.627 556.32H384.643L385.214 558.156L377.926 567.245L351.642 556.32H351.627ZM351.905 431.317L370.199 412.962L375.058 419.026L351.905 431.317ZM375.98 420.186L376.945 421.39L362.018 427.587L375.965 420.172L375.98 420.186ZM377.911 422.58L385.199 431.669L384.629 433.505H351.612L377.897 422.58H377.911ZM403.683 403.329L397.917 397.544L408.44 394.299L403.683 403.329ZM404.049 405.781L407.123 408.865L401.108 411.361L404.049 405.781ZM402.644 404.372L393.644 409.159L396.878 398.601L402.644 404.386V404.372ZM402.103 406.325L398.986 412.242L391.785 415.238L393.044 411.141L402.117 406.325H402.103ZM397.917 414.269L388.083 432.917L386.839 431.361L391.229 417.059L397.917 414.283V414.269ZM393.849 442.462L390.292 451.066L381.98 447.616L386.429 439.172L391.653 439.745L393.849 442.476V442.462ZM393.717 439.951L394.844 440.068L394.493 440.905L393.717 439.936V439.951ZM391.653 550.109L386.443 550.682L381.994 542.238L390.307 538.788L393.863 547.392L391.668 550.124L391.653 550.109ZM394.493 548.92L394.844 549.756L393.717 549.874L394.493 548.905V548.92ZM390.366 551.724L388.331 554.25L387.175 552.062L390.351 551.724H390.366ZM386.312 556.775L386.165 556.32H386.678L386.312 556.775ZM389.458 572.047L379.316 567.832L385.712 559.859L389.458 572.047ZM385.712 554.852L384.936 552.312L385.609 552.238L386.985 554.852H385.712ZM383.458 437.352L361.535 434.973H384.19L383.458 437.352ZM384.497 438.952L384.878 438.996L383.956 440.758L384.512 438.967L384.497 438.952ZM383.019 438.791L380.502 446.984L352.93 435.531L383.019 438.791ZM379.946 448.335L375.95 455.912L352.373 436.882L379.946 448.335ZM384.629 464.81L383.107 468.481L378.014 463.371L382.273 462.916L384.629 464.81ZM384.321 462.681L385.551 462.549L385.199 463.386L384.321 462.681ZM382.273 526.908L378.014 526.453L383.107 521.343L384.629 525.014L382.273 526.908ZM385.214 526.424L385.565 527.261L384.336 527.129L385.214 526.424ZM376.755 525.631L370.082 503.884L372.994 496.836L382.507 519.875L376.755 525.646V525.631ZM376.931 531.225L376.404 531.651L375.16 529.302L376.053 528.406L376.916 531.225H376.931ZM376.755 464.194L382.507 469.965L372.994 493.003L370.082 485.955L376.755 464.208V464.194ZM376.067 461.433L375.175 460.537L376.419 458.188L376.945 458.614L376.082 461.433H376.067ZM377.106 456.852L377.984 455.193L377.399 457.087L377.106 456.852ZM371.896 494.178H367.55L369.408 488.143L371.896 494.178ZM371.896 495.647L369.408 501.682L367.55 495.647H371.896ZM377.399 532.738L377.984 534.632L377.106 532.973L377.399 532.738ZM377.443 527.863L380.663 528.215L378.175 530.227L377.443 527.863ZM374.092 495.647H406.654L383.634 518.744L374.092 495.647ZM374.092 494.178L383.634 471.08L406.654 494.178H374.092ZM377.443 461.962L378.175 459.598L380.663 461.609L377.443 461.962ZM375.248 457.234L374.092 459.436L358.066 443.357L375.248 457.234ZM374.809 462.241L374.223 462.3L374.443 461.874L374.809 462.241ZM375.379 463.665L369.189 483.826L366.423 477.116L373.404 463.885L375.379 463.665ZM365.706 475.339L361.506 465.163L371.662 464.062L365.72 475.339H365.706ZM368.53 486.014L366.569 492.416L363.554 482.578L365.559 478.79L368.545 486.014H368.53ZM366.555 497.409L368.516 503.811L365.53 511.035L363.525 507.247L366.54 497.409H366.555ZM365.706 514.486L371.648 525.763L361.491 524.662L365.691 514.486H365.706ZM366.423 512.724L369.189 506.013L375.379 526.174L373.404 525.954L366.423 512.724ZM374.809 527.584L374.443 527.951L374.223 527.525L374.809 527.584ZM374.092 530.388L375.248 532.591L358.066 546.467L374.092 530.388ZM375.95 533.913L379.946 541.489L352.373 552.943L375.95 533.913ZM380.502 542.84L383.019 551.034L352.93 554.294L380.502 542.84ZM383.458 552.473L384.19 554.852H361.535L383.458 552.473ZM383.956 549.081L384.878 550.843L384.497 550.887L383.941 549.081H383.956ZM387.848 528.994L405.41 530.902L391.083 536.849L387.834 528.994H387.848ZM389.751 537.407L381.438 540.858L378.643 531.725L382.726 528.421L386.209 528.803L389.766 537.407H389.751ZM385.814 524.06L384.234 520.227L408.41 495.97L413.855 501.432L385.814 524.074V524.06ZM410.181 495.647H420.982L414.996 500.477L410.181 495.647ZM410.181 494.178L414.996 489.347L420.982 494.178H410.181ZM408.41 493.87L384.234 469.612L385.814 465.78L413.855 488.422L408.41 493.884V493.87ZM382.712 461.389L378.628 458.085L381.424 448.952L389.736 452.403L386.18 461.007L382.697 461.389H382.712ZM391.097 452.975L405.425 458.922L387.863 460.831L391.112 452.975H391.097ZM385.726 429.98L379.331 422.007L389.473 417.793L385.726 429.98ZM386.678 433.505H386.165L386.312 433.049L386.678 433.505ZM386.985 434.973L385.609 437.587L384.936 437.513L385.712 434.973H386.985ZM387.175 437.763L388.331 435.575L390.366 438.101L387.175 437.748V437.763ZM390.029 415.957L378.365 420.803L377.311 419.481L391.214 412.095L390.029 415.957ZM373.375 460.802L372.482 462.505L360.92 463.753L350.032 437.381L373.375 460.802ZM359.398 463.915L357.861 464.076L353.222 448.937L359.398 463.9V463.915ZM359.984 465.324L364.813 477.027L362.925 480.596L358.301 465.515L359.984 465.339V465.324ZM365.574 494.178H357.422L362.574 484.413L365.574 494.178ZM365.574 495.647L362.574 505.411L357.422 495.647H365.574ZM362.94 509.229L364.828 512.797L359.998 524.5L358.315 524.324L362.94 509.244V509.229ZM359.398 525.91L353.222 540.873L357.861 525.734L359.398 525.895V525.91ZM360.92 526.071L372.482 527.32L373.375 529.023L350.032 552.444L360.92 526.071ZM378.365 569.022L390.029 573.867L391.214 577.729L377.311 570.343L378.365 569.022ZM386.824 558.464L388.068 556.907L397.903 575.556L391.214 572.781L386.824 558.479V558.464ZM398.986 577.582L402.103 583.5L393.029 578.684L391.771 574.587L398.971 577.582H398.986ZM401.108 578.463L407.123 580.96L404.049 584.043L401.108 578.463ZM402.644 585.453L396.878 591.238L393.644 580.681L402.644 585.453ZM403.683 586.495L408.454 595.526L397.932 592.281L403.698 586.495H403.683ZM405.088 585.086L408.162 582.002L410.65 588.037L405.088 585.086ZM399.132 556.32H431.695L408.674 579.418L399.132 556.32ZM407.064 579.359L400.039 576.437L389.429 556.32H397.551L407.064 579.359ZM389.736 554.852L392.429 551.504L395.429 551.181L396.951 554.852H389.736ZM394.902 546.071L391.653 538.215L405.981 532.268L394.902 546.071ZM387.219 527.452L386.4 525.469L414.894 502.46L423.206 510.8L408.03 529.713L387.219 527.452ZM424.245 511.828L432.163 519.772L410.708 528.685L424.245 511.813V511.828ZM424.128 509.64L416.035 501.52L423.06 495.852L430.421 501.799L424.128 509.64ZM416.035 488.305L424.128 480.184L430.421 488.026L423.06 493.973L416.035 488.305ZM410.708 461.125L432.163 470.038L424.245 477.982L410.708 461.11V461.125ZM423.206 479.039L414.894 487.38L386.4 464.37L387.219 462.388L408.03 460.126L423.206 479.039ZM391.653 451.61L394.902 443.754L405.981 457.557L391.653 451.61ZM392.415 438.321L389.722 434.973H396.922L395.4 438.644L392.4 438.321H392.415ZM389.414 433.505L400.025 413.388L407.049 410.466L397.537 433.505H389.414ZM408.674 410.407L431.695 433.505H399.132L408.674 410.407ZM408.147 407.822L405.074 404.739L410.635 401.787L408.147 407.822ZM405.63 402.786L410.43 393.682L414.513 392.419L411.528 399.644L405.63 402.771V402.786ZM420.645 377.559L419.445 376.59L422.094 371.568L422.694 372.611L420.645 377.574V377.559ZM421.245 379.923L429.192 386.34L417.045 390.099L421.245 379.923ZM418.289 375.65L412.245 370.775L418.201 364.799L421.231 370.07L418.289 375.665V375.65ZM418.743 377.912L420.06 378.969L415.23 390.672L411.381 391.861L418.743 377.912ZM416.328 391.861L430.582 387.456L431.826 388.469L432.002 388.778L413.547 398.572L416.313 391.861H416.328ZM421.831 378.514L423.616 374.197L429.807 384.945L421.845 378.514H421.831ZM423.397 370.893L422.899 370.026L426.821 362.582L423.397 370.893ZM422.036 368.529L419.27 363.727L430.538 352.42L422.05 368.529H422.036ZM418.523 362.405L415.289 356.781L430.348 350.541L418.523 362.405ZM405.557 365.357L401.839 362.347L407.152 360.144L405.557 365.357ZM406.318 367.868L410.064 370.893L403.318 377.662L406.318 367.868ZM411.206 371.818L417.587 376.972L409.42 392.463L397.654 396.09L402.396 380.657L411.206 371.818ZM396.205 395.826L391.741 391.347L400.186 382.875L396.22 395.826H396.205ZM395.166 396.868L382.258 400.848L390.702 392.375L395.166 396.854V396.868ZM395.429 398.322L391.815 410.128L376.375 418.321L371.238 411.919L380.048 403.08L395.429 398.322ZM370.316 410.774L367.301 407.015L377.062 404.005L370.316 410.774ZM356.383 464.238L348.671 465.075V439.128L356.383 464.238ZM356.822 465.677L361.959 482.431L356.208 493.341L348.671 479.069V466.558L356.822 465.677ZM354.993 494.178H348.671V482.196L354.993 494.178ZM354.993 495.647L348.671 507.629V495.647H354.993ZM356.208 496.484L361.959 507.394L356.822 524.148L348.671 523.267L348.671 510.756L356.208 496.484ZM356.383 525.587L348.671 550.696V524.75L356.383 525.587ZM370.316 579.051L377.062 585.82L367.301 582.81L370.316 579.051ZM371.238 577.905L376.375 571.503L391.815 579.712L395.429 591.517L380.048 586.76L371.238 577.92V577.905ZM395.166 592.956L390.702 597.435L382.258 588.962L395.166 592.956ZM396.205 593.999L400.171 606.95L391.727 598.478L396.19 593.999H396.205ZM397.654 593.72L409.42 597.347L417.587 612.838L411.206 617.992L402.396 609.153L397.654 593.72ZM410.064 618.932L406.318 621.957L403.318 612.163L410.064 618.932ZM407.152 629.681L401.839 627.478L405.557 624.468L407.152 629.681ZM406.771 623.469L411.089 619.975L417.44 626.347L413.913 632.471L408.893 630.385L406.771 623.455V623.469ZM413.035 634.012L411.059 637.448L409.567 632.573L413.035 634.012ZM414.221 652.705L398.107 662.925L410.664 641.105L414.221 652.72V652.705ZM414.66 654.159L419.987 671.515L400.713 681.75L395.107 668.123L396.527 665.641L414.66 654.144V654.159ZM411.645 639.357L414.396 634.57L431.563 641.707L415.494 651.883L411.645 639.343V639.357ZM424.319 617.332L431.826 604.278L432.719 604.557V637.683L424.319 617.332ZM432.587 602.985L432.734 602.736V603.029L432.587 602.985ZM412.669 589.124L409.757 582.076L432.719 591.62V599.77L412.669 589.124ZM409.698 580.446L432.719 557.348V590.02L409.698 580.446ZM398.532 554.852L396.951 551.019L432.734 547.143V554.866H398.532V554.852ZM396.351 549.595L395.532 547.613L408.659 531.255L432.719 533.869V545.66L396.351 549.595ZM411.264 530.051L432.719 521.138V532.386L411.264 530.065V530.051ZM425.167 510.683L431.563 502.709L432.734 503.649L432.734 518.26L425.167 510.668V510.683ZM432.47 501.579L432.719 501.27V501.784L432.47 501.579ZM431.329 500.654L425.124 495.647H432.719V498.921L431.329 500.654ZM425.138 494.178L431.343 489.171L432.734 490.904V494.178H425.138ZM432.47 488.246L432.719 488.04V488.554L432.47 488.246ZM431.563 487.101L425.167 479.127L432.734 471.536V486.146L431.563 487.086V487.101ZM411.264 459.774L432.719 457.454V468.702L411.264 459.789V459.774ZM408.659 458.57L395.532 442.212L396.351 440.23L432.719 444.165V455.956L408.659 458.57ZM396.937 438.82L398.517 434.988H432.719V442.711L396.937 438.835V438.82ZM409.698 409.379L432.719 399.805V432.477L409.698 409.379ZM409.757 407.764L412.669 400.716L432.719 390.07V398.219L409.757 407.764ZM432.587 386.839L432.734 386.795V387.089L432.587 386.839ZM431.826 385.532L424.319 372.478L432.719 352.127V385.253L431.826 385.532ZM414.396 355.254L411.645 350.482L415.494 337.942L431.563 348.118L414.396 355.254ZM414.66 335.666L396.527 324.169L395.107 321.687L400.713 308.06L419.987 318.295L414.66 335.651V335.666ZM399.234 307.297L394.039 319.881L381.336 297.796L399.234 307.297ZM395.429 325.226L410.064 350.644L407.81 357.986L400.288 361.113L384.204 348.118L394.01 324.315L395.429 325.211V325.226ZM398.751 361.759L374.428 371.862L383.619 349.542L398.737 361.759H398.751ZM400.288 362.993L405.088 366.869L401.093 379.879L390.702 390.305L374.253 373.8L400.303 362.993H400.288ZM389.663 391.347L379.272 401.773L366.306 405.781L362.442 400.965L373.213 374.828L389.663 391.333V391.347ZM361.213 399.423L349.037 384.255L371.282 375.033L361.213 399.438V399.423ZM360.569 400.965L357.452 408.513L336.656 414.929L323.894 394.666L347.617 384.828L360.569 400.965ZM356.72 410.275L347.602 432.345L337.46 416.222L356.72 410.275ZM347.207 466.705V476.279L342.436 467.219L347.207 466.705ZM341.705 465.838L338.324 459.436L347.222 437.939V465.251L341.705 465.853V465.838ZM357.452 581.312L360.569 588.86L347.617 604.997L323.894 595.159L336.656 574.895L357.452 581.312ZM361.213 590.401L371.282 614.806L349.037 605.584L361.213 590.416V590.401ZM362.442 588.86L366.306 584.043L379.272 588.052L389.663 598.478L373.213 614.982L362.442 588.845V588.86ZM390.702 599.52L401.093 609.946L405.088 622.955L400.288 626.832L374.238 616.025L390.688 599.52H390.702ZM398.751 628.065L383.634 640.282L374.443 617.963L398.766 628.065H398.751ZM400.288 628.711L407.81 631.839L410.064 639.181L395.429 664.599L394.01 665.494L384.204 641.692L400.288 628.697V628.711ZM394.054 669.944L399.249 682.528L381.351 692.028L394.054 669.944ZM399.805 683.893L407.225 701.881L388.302 709.766L375.423 702.307L379.946 694.436L399.791 683.908L399.805 683.893ZM407.854 703.393L417.455 726.638L390.088 710.779L407.854 703.393ZM409.362 702.762L427.29 695.317L441.105 740.338L419.738 727.96L409.362 702.762ZM408.747 701.25L401.283 683.115L420.44 672.939L426.821 693.717L408.762 701.235L408.747 701.25ZM415.947 653.336L432.982 642.544L437.417 662.249L421.318 670.795L415.962 653.322L415.947 653.336ZM434.783 388.968L436.963 387.808L437.3 391.009L434.783 388.968ZM437.519 393.065L437.827 395.973L434.973 391.009L437.519 393.065ZM434.183 387.618V386.34L436.714 385.562L436.788 386.237L434.183 387.618ZM436.524 396.633L434.183 397.603V392.566L436.524 396.633ZM437.271 397.911L438.236 399.585L441.895 433.505H434.197V399.188L437.271 397.911ZM460.277 434.973H467.111L462.779 439.319L460.277 434.973ZM465.048 446.206L458.681 445.516L462.472 441.713L465.048 446.206ZM461.711 440.391L456.823 445.296L455.33 445.134L456.428 434.973H458.594L461.711 440.391ZM440.037 402.742L455.52 429.643L455.11 433.505H443.359L440.051 402.727L440.037 402.742ZM442.861 442.653L435.222 434.988H442.041L442.861 442.653ZM455.169 446.603L455.491 446.632L455.125 446.999L455.169 446.603ZM456.574 433.505L456.764 431.787L457.745 433.505H456.574ZM455.784 427.176L439.641 399.13L439.422 397.03L441.398 396.208L457.701 409.379L455.784 427.176ZM439.261 395.503L439.144 394.372L440.11 395.15L439.276 395.503H439.261ZM442.934 395.561L450.764 392.302L456.691 406.677L442.934 395.561ZM441.646 394.504L438.924 392.302L438.353 387.06L446.769 382.596L450.208 390.936L441.632 394.504H441.646ZM438.178 385.503L438.134 385.121L439.919 384.563L438.163 385.488L438.178 385.503ZM441.837 443.68L434.197 442.858V436.015L441.837 443.68ZM443.154 445.31L444.164 454.737L434.183 455.824V444.356L443.139 445.325L443.154 445.31ZM444.325 456.191L444.486 457.689L434.197 468.012V457.278L444.325 456.176V456.191ZM445.627 454.561L444.778 446.617L450.149 452.006L447.837 454.326L445.627 454.561ZM446.169 455.985L445.803 456.353L445.773 456.03L446.169 455.985ZM446.271 474.311L434.739 469.524L444.676 459.554L446.271 474.311ZM445.715 475.677L434.183 484.986V470.89L445.715 475.677ZM446.549 476.881L447.003 481.109L436.875 493.738L434.183 490.39V486.866L446.549 476.881ZM448.408 494.178H438.397L447.222 483.18L448.408 494.178ZM447.998 476.616L449.959 477.439L448.305 479.494L447.998 476.616ZM448.305 510.33L449.959 512.401L447.998 513.223L448.305 510.345V510.33ZM447.237 506.645L438.412 495.647H448.422L447.237 506.645ZM435.353 494.178H434.197V492.724L435.353 494.178ZM435.353 495.647L434.197 497.1V495.647H435.353ZM436.875 496.087L447.003 508.715L446.549 512.944L434.183 502.959V499.435L436.875 496.087ZM445.773 533.795L445.803 533.472L446.169 533.839L445.773 533.795ZM447.822 535.498L450.135 537.818L444.764 543.208L445.612 535.278L447.822 535.513V535.498ZM444.69 530.271L434.753 520.301L446.286 515.514L444.69 530.271ZM445.715 514.148L434.183 518.935L434.183 504.839L445.715 514.148ZM444.486 532.151L444.325 533.648L434.197 532.547V521.813L444.486 532.136V532.151ZM444.164 535.102L443.154 544.529L434.197 545.498V534.03L444.178 535.117L444.164 535.102ZM462.472 548.112L458.696 544.324L465.062 543.633L462.486 548.112H462.472ZM462.779 550.505L467.111 554.852H460.277L462.779 550.505ZM461.711 549.433L458.594 554.852H456.428L455.33 544.691L456.823 544.529L461.711 549.433ZM438.353 602.75L438.924 597.508L441.646 595.306L450.222 598.874L446.783 607.214L438.368 602.75H438.353ZM439.934 605.247L438.149 604.689L438.193 604.307L439.934 605.232V605.247ZM439.144 595.453L439.261 594.322L440.095 594.674L439.129 595.453H439.144ZM442.934 594.263L456.691 583.148L450.764 597.523L442.934 594.263ZM441.398 593.632L439.422 592.809L439.656 590.695L455.798 562.649L457.715 580.446L441.412 593.617L441.398 593.632ZM456.574 556.32H457.745L456.764 558.023L456.574 556.32ZM455.169 543.222L455.125 542.826L455.491 543.193L455.169 543.222ZM455.52 560.182L440.037 587.083L443.344 556.32H455.096L455.506 560.182H455.52ZM442.041 554.852H435.222L442.861 547.187L442.041 554.852ZM441.822 546.144L434.183 553.809V546.967L441.822 546.144ZM441.881 556.32L438.222 590.24L437.256 591.914L434.183 590.636V556.32H441.881ZM434.987 598.801L437.841 593.837L437.534 596.745L434.987 598.801ZM437.3 598.815L436.963 602.016L434.783 600.856L437.3 598.815ZM436.524 593.191L434.183 597.259V592.222L436.524 593.191ZM436.788 603.587L436.714 604.263L434.183 603.485V602.207L436.788 603.587ZM436.553 605.746L434.183 627.742V605.012L436.553 605.746ZM437.988 606.187L446.154 608.712L434.739 636.376L437.988 606.187ZM447.5 609.27L455.052 613.279L436.085 636.92L447.5 609.255V609.27ZM458.564 615.144L442.539 631.222L456.369 613.984L458.564 615.144ZM457.306 612.824L457.73 612.295L460.54 613.161L459.647 614.057L457.306 612.809V612.824ZM455.989 612.119L454.335 611.238L456.223 611.825L455.989 612.119ZM461.008 614.777L461.374 614.409L461.433 614.997L461.008 614.777ZM458.725 611.061L460.73 608.565L461.082 611.796L458.725 611.061ZM457.218 610.592L448.115 607.787L451.554 599.447L460.13 603.015L460.511 606.51L457.218 610.606V610.592ZM452.125 598.081L458.052 583.705L459.955 601.326L452.125 598.066V598.081ZM457.028 560.505L459.428 556.32H467.77L458.886 577.847L457.013 560.505H457.028ZM469.131 556.878L477.048 564.822L460.233 578.405L469.116 556.878H469.131ZM468.618 554.279L463.54 549.184L466.848 543.428L473.389 542.723L468.618 554.294V554.279ZM465.955 542.047L457.35 542.973L454.862 540.476L454.408 536.189L468.428 537.716L465.94 542.033L465.955 542.047ZM454.949 554.852H443.52L444.486 545.865L453.881 544.852L454.964 554.866L454.949 554.852ZM445.803 544.235L451.174 538.846L453.486 541.166L453.72 543.384L445.803 544.235ZM450.149 535.748L451.993 535.954L451.174 536.776L450.149 535.748ZM452.198 537.804L453.018 536.982L453.223 538.832L452.198 537.804ZM448.495 534.089L446.008 531.593L447.705 515.763L451.013 518.436L452.754 534.544L448.481 534.074L448.495 534.089ZM448.554 514.559L450.515 513.737L450.793 516.365L448.539 514.545L448.554 514.559ZM448.525 508.26L449.227 501.74L450.149 510.272L448.525 508.245V508.26ZM448.525 481.565L450.149 479.538L449.227 488.07L448.525 481.55V481.565ZM448.554 475.265L450.808 473.445L450.53 476.073L448.569 475.251L448.554 475.265ZM447.72 474.047L446.022 458.217L448.51 455.721L452.784 455.251L451.042 471.359L447.734 474.032L447.72 474.047ZM450.149 454.077L451.174 453.049L451.993 453.871L450.149 454.077ZM452.198 452.021L453.223 450.993L453.018 452.843L452.198 452.021ZM451.174 450.978L445.803 445.589L453.72 446.441L453.486 448.658L451.174 450.978ZM444.486 443.974L443.52 434.988H454.949L453.867 445.002L444.471 443.989L444.486 443.974ZM454.876 449.334L457.364 446.837L465.97 447.763L468.458 452.08L454.437 453.607L454.891 449.319L454.876 449.334ZM463.54 440.641L468.618 435.546L473.389 447.116L466.848 446.412L463.54 440.656V440.641ZM460.247 411.42L477.063 425.003L469.145 432.947L460.262 411.42H460.247ZM467.784 433.505H459.442L457.028 429.32L458.901 411.978L467.784 433.505ZM458.052 406.119L452.125 391.744L459.955 388.484L458.052 406.104V406.119ZM451.569 390.393L448.13 382.052L457.233 379.248L460.525 383.345L460.145 386.839L451.569 390.407V390.393ZM456.369 375.841L442.539 358.602L458.564 374.681L456.369 375.841ZM459.647 375.768L460.54 376.663L457.73 377.53L457.306 377.001L459.647 375.753V375.768ZM456.223 378L454.335 378.587L455.989 377.706L456.223 378ZM458.725 378.763L461.082 378.029L460.73 381.259L458.725 378.763ZM461.008 375.048L461.433 374.828L461.374 375.415L461.008 375.048ZM455.052 376.546L447.5 380.555L436.085 352.89L455.052 376.546ZM446.154 381.113L437.988 383.638L434.739 353.448L446.154 381.113ZM436.553 384.079L434.183 384.813V362.082L436.553 384.079ZM432.968 347.266L415.947 336.474L421.304 319L437.402 327.546L432.968 347.252V347.266ZM420.426 316.885L401.269 306.71L408.732 288.575L426.792 296.093L420.411 316.871L420.426 316.885ZM409.362 287.063L419.738 261.865L441.105 249.487L427.29 294.507L409.362 287.063ZM420.66 259.633L444.339 202.161H455.637L441.749 247.416L420.675 259.618L420.66 259.633ZM418.362 260.955L388.375 278.326L364.418 268.37L343.431 231.895L373.067 202.161H442.642L418.362 260.955ZM386.604 279.354L374.692 286.255L365.72 270.661L386.604 279.354ZM377.531 294.111L370.506 290.381L374.165 288.267L377.531 294.111ZM378.907 296.504L393.336 321.584L393.146 322.039L356.222 298.648L368.999 291.247L378.892 296.504H378.907ZM392.59 323.42L382.843 347.017L336.86 309.881L354.803 299.485L392.59 323.42ZM382.258 348.426L372.511 372.053L320.177 319.543L335.499 310.659L382.258 348.426ZM371.472 373.095L347.924 382.875L304.429 328.662L318.859 320.307L371.472 373.095ZM346.519 383.462L323.001 393.241L288.258 338.03L303.156 329.396L346.534 383.462H346.519ZM321.625 393.799L306.932 399.908L277.56 344.227L286.985 338.764L321.625 393.799ZM322.533 395.238L335.207 415.385L317.908 420.73L307.708 401.391L322.533 395.238ZM336.026 416.677L346.783 433.769L327.143 438.218L318.625 422.066L336.041 416.692L336.026 416.677ZM346.373 435.355L337.256 457.424L327.831 439.554L346.373 435.355ZM337.592 461.184L340.139 466L335.397 466.514L337.607 461.184H337.592ZM340.87 467.395L347.207 479.421V494.178H323.938L334.738 468.07L340.856 467.409L340.87 467.395ZM347.207 495.647V510.404L340.87 522.43L334.753 521.769L323.952 495.661H347.222L347.207 495.647ZM340.139 523.825L337.592 528.641L335.382 523.311L340.124 523.825H340.139ZM346.373 554.47L327.831 550.27L337.256 532.4L346.373 554.47ZM346.768 556.071L336.012 573.162L318.596 567.788L327.114 551.636L346.754 556.085L346.768 556.071ZM335.207 574.44L322.533 594.586L307.708 588.434L317.908 569.095L335.207 574.44ZM321.625 596.025L286.985 651.06L277.56 645.598L306.932 589.917L321.625 596.025ZM323.001 596.583L346.519 606.363L303.142 660.429L288.243 651.795L322.987 596.583H323.001ZM347.924 606.95L371.472 616.73L318.859 669.518L304.429 661.163L347.924 606.95ZM372.511 617.772L382.258 641.398L335.499 679.165L320.177 670.281L372.511 617.772ZM382.843 642.808L392.59 666.405L354.803 690.34L336.86 679.943L382.843 642.808ZM393.146 667.785L393.336 668.24L378.907 693.32L369.013 698.577L356.237 691.177L393.161 667.785H393.146ZM377.531 695.714L374.165 701.558L370.506 699.444L377.516 695.714H377.531ZM374.706 703.57L386.619 710.471L365.735 719.164L374.706 703.57ZM388.375 711.484L418.362 728.855L442.642 787.649H373.067L343.431 757.915L364.418 721.44L388.375 711.484ZM420.66 730.191L441.734 742.394L455.623 787.649H444.325L420.645 730.177L420.66 730.191ZM442.963 741.425L428.636 694.759L443.329 688.651L457.042 749.589L442.949 741.425H442.963ZM428.168 693.159L421.743 672.249L437.739 663.747L442.978 686.992L428.168 693.159ZM434.563 642.955L456.559 652.103L438.749 661.559L434.563 642.955ZM464.433 629.299L476.097 624.453L479.653 626.347L464.623 630.987L464.448 629.299H464.433ZM462.984 615.834L462.765 613.851L482.858 620.063L476.17 622.838L462.984 615.834ZM462.486 611.208L462.033 606.935L463.921 604.571L467.579 606.098L462.486 611.208ZM463.467 602.794L461.491 601.972L459.237 581.092L478.087 565.865L486.4 574.205L463.467 602.794ZM470.638 556.32H485.2L486.136 557.495L478.19 563.912L470.623 556.32H470.638ZM469.965 554.852L474.736 543.281L484.014 554.852H469.965ZM474.341 540.432L472.526 538.171L475.146 538.45L474.326 540.418L474.341 540.432ZM471.223 536.556L470.975 536.247L471.633 535.102L473.785 536.849L471.223 536.57V536.556ZM473.126 541.269L467.755 541.857L470.023 537.907L470.462 537.951L473.126 541.269ZM469.994 535.014L467.14 531.446L470.492 534.148L469.994 534.999V535.014ZM469.175 536.335L455.184 534.823L462.267 527.731L469.175 536.35V536.335ZM454.145 533.78L452.637 519.743L461.228 526.673L454.159 533.766L454.145 533.78ZM452.418 517.687L452.14 515.103L457.496 521.784L452.403 517.672L452.418 517.687ZM451.759 511.637L450.032 495.647H490.234L451.759 511.637ZM450.047 494.178L451.774 478.187L490.249 494.178H450.047ZM452.418 472.138L457.496 468.026L452.14 474.707L452.418 472.138ZM452.637 470.082L454.145 456.044L461.213 463.136L452.623 470.067L452.637 470.082ZM455.184 455.002L469.175 453.489L462.267 462.109L455.198 455.016L455.184 455.002ZM469.994 454.796L470.492 455.648L467.14 458.35L469.994 454.781V454.796ZM470.462 451.874L470.023 451.918L467.755 447.968L473.126 448.555L470.462 451.874ZM471.223 453.269L473.785 452.99L471.633 454.723L470.975 453.577L471.223 453.269ZM472.526 451.654L474.341 449.392L475.16 451.36L472.541 451.639L472.526 451.654ZM474.751 446.544L469.98 434.973H484.029L474.751 446.544ZM470.638 433.505L478.204 425.913L486.151 432.33L485.214 433.505H470.653H470.638ZM478.102 423.96L459.252 408.733L461.506 387.852L463.482 387.03L486.415 415.62L478.102 423.96ZM462.033 382.889L462.486 378.616L467.579 383.726L463.921 385.253L462.033 382.889ZM462.984 373.991L476.17 366.987L482.858 369.762L462.765 375.973L462.984 373.991ZM476.097 365.372L464.433 360.526L464.609 358.837L479.639 363.477L476.082 365.372H476.097ZM434.563 346.87L438.749 328.265L456.559 337.722L434.563 346.87ZM437.739 326.078L421.743 317.576L428.168 296.666L442.978 302.833L437.739 326.078ZM428.651 295.08L442.963 248.415L457.057 240.251L443.344 301.188L428.651 295.08ZM443.607 246.344L457.159 202.161H465.048L465.574 202.469L457.511 238.298L443.607 246.344ZM457.613 200.692L458.359 198.284L462.53 200.692H457.628H457.613ZM465.443 200.692L458.798 196.845L489.005 98.4193L465.984 200.692H465.457H465.443ZM457.496 196.096L448.891 191.118L488.61 94.7043L457.496 196.111V196.096ZM457.057 197.535L456.091 200.707H444.954L448.335 192.484L457.057 197.535ZM443.242 200.692H374.531L406.742 168.373L446.973 191.676L443.256 200.678L443.242 200.692ZM406.493 166.552L356.691 137.699L490.805 81.9587L406.493 166.552ZM405.425 167.624L372.467 200.692H325.474L302.249 160.326L354.993 138.403L405.44 167.624H405.425ZM371.004 202.161L342.67 230.589L326.309 202.161H370.989H371.004ZM362.193 267.46L323.865 251.528L342.348 232.982L362.179 267.46H362.193ZM363.511 269.736L373.433 286.989L368.984 289.574L314.689 260.749L322.679 252.732L363.511 269.736ZM367.491 290.44L354.847 297.767L307.62 267.841L313.62 261.821L367.506 290.425L367.491 290.44ZM353.398 298.589L335.631 308.883L297.434 278.032L306.537 268.899L353.398 298.589ZM334.27 309.676L319.094 318.471L288.126 287.4L296.395 279.104L334.27 309.69V309.676ZM317.791 319.22L303.507 327.487L278.818 296.71L287.087 288.413L317.776 319.206L317.791 319.22ZM302.22 328.251L287.468 336.797L268.662 306.915L277.765 297.782L302.205 328.251H302.22ZM286.209 337.516L276.872 342.92L261.608 313.978L267.608 307.958L286.209 337.502V337.516ZM305.571 400.481L287.643 407.925L264.432 351.818L276.287 344.946L305.571 400.466V400.481ZM306.347 401.949L316.489 421.17L295.78 427.572L288.287 409.452L306.361 401.964L306.347 401.949ZM317.176 422.492L325.65 438.541L302.483 443.798L296.336 428.938L317.176 422.492ZM326.353 439.892L336.524 459.187L333.407 466.734L312.888 468.966L303.054 445.178L326.353 439.892ZM332.777 468.276L322.708 492.68L313.474 470.376L332.777 468.276ZM322.708 497.144L332.777 521.549L313.474 519.464L322.708 497.159V497.144ZM333.421 523.091L336.538 530.638L326.367 549.933L303.068 544.647L312.903 520.859L333.421 523.091ZM325.65 551.284L317.176 567.333L296.336 560.887L302.483 546.027L325.65 551.284ZM316.489 568.655L306.347 587.876L288.273 580.387L295.766 562.267L316.474 568.669L316.489 568.655ZM305.571 589.344L276.287 644.864L264.432 637.992L287.643 581.885L305.571 589.329V589.344ZM276.872 646.905L286.209 652.308L267.608 681.852L261.608 675.832L276.872 646.89V646.905ZM287.468 653.043L302.22 661.589L277.779 692.058L268.676 682.924L287.482 653.043H287.468ZM303.507 662.323L317.791 670.59L287.102 701.382L278.833 693.085L303.522 662.308L303.507 662.323ZM319.094 671.353L334.27 680.149L296.395 710.735L288.126 702.439L319.094 671.368V671.353ZM335.631 680.942L353.398 691.235L306.537 720.926L297.434 711.793L335.631 680.942ZM354.832 692.058L367.477 699.385L313.591 727.989L307.591 721.969L354.817 692.043L354.832 692.058ZM368.984 700.251L373.433 702.835L363.511 720.089L322.679 737.093L314.689 729.076L368.984 700.251ZM362.193 722.365L342.363 756.843L323.879 738.297L362.208 722.365H362.193ZM342.67 759.236L371.004 787.664H326.323L342.685 759.236H342.67ZM372.467 789.132L405.425 822.201L354.978 851.421L302.234 829.498L325.46 789.132H372.452H372.467ZM406.493 823.272L490.805 907.866L356.691 852.126L406.493 823.272ZM374.531 789.132H443.242L446.959 798.134L406.727 821.437L374.516 789.118L374.531 789.132ZM444.939 789.132H456.076L457.042 792.304L448.32 797.355L444.939 789.132ZM457.496 793.729L488.61 895.12L448.891 798.706L457.496 793.729ZM458.798 792.98L465.443 789.132H465.97L488.99 891.405L458.784 792.98H458.798ZM467.477 789.132H480.18L491.829 897.308L467.477 789.132ZM467.975 787.664L479.302 781.1L480.004 787.664H467.96H467.975ZM478.936 763.95L492.459 771.791L480.517 778.707L478.921 763.964L478.936 763.95ZM479.141 779.5L466.906 786.592L459.237 752.54L477.37 763.039L479.141 779.5ZM458.798 750.587L444.72 688.078L468.238 678.299L477.165 761.233L458.784 750.587H458.798ZM467.375 656.596L491.698 666.699L469.467 675.964L467.389 656.596H467.375ZM468.048 676.537L444.339 686.404L439.071 663.028L458.301 652.822L465.823 655.95L468.048 676.537ZM465.809 642.118H475.351L466.321 646.905L465.809 642.118ZM465.662 640.649L464.784 632.471L481.483 627.317L492.356 633.087L478.131 640.649H465.662ZM477.853 623.719L485.053 620.723L491.434 622.691L481.629 625.716L477.853 623.704V623.719ZM484.98 619.167L463.306 612.471L469.058 606.7L492.02 616.245L484.995 619.167H484.98ZM468.706 604.968L464.887 603.382L487.454 575.248L492.898 580.71L468.721 604.968H468.706ZM487.337 573.06L479.243 564.94L487.058 558.626L492.986 566.011L487.337 573.06ZM487.278 556.57L487.073 556.32H487.585L487.278 556.57ZM475.687 540.99L476.507 539.023L478.57 540.682L475.702 540.99H475.687ZM475.907 536.644L472.394 533.81L488.99 504.971L475.921 536.644H475.907ZM471.238 532.87L463.423 526.556L490.527 499.362L471.253 532.87H471.238ZM462.384 525.528L452.33 513.003L490.805 497.012L462.384 525.528ZM452.33 476.837L462.384 464.311L490.805 492.827L452.33 476.837ZM463.408 463.269L471.223 456.955L490.498 490.463L463.394 463.269H463.408ZM472.38 456.015L475.892 453.181L488.961 484.854L472.365 456.03L472.38 456.015ZM475.687 448.834L478.556 449.143L476.507 450.802L475.687 448.834ZM487.088 433.505L487.293 433.255L487.6 433.505H487.088ZM487.058 431.199L479.243 424.885L487.337 416.765L492.986 423.813L487.058 431.199ZM464.872 386.443L468.692 384.857L492.869 409.115L487.424 414.577L464.857 386.443H464.872ZM463.306 377.354L484.98 370.658L492.005 373.58L469.043 383.124L463.291 377.354H463.306ZM477.853 366.106L481.629 364.094L491.434 367.119L485.053 369.087L477.853 366.091V366.106ZM481.483 362.508L464.784 357.354L465.662 349.175H478.131L492.356 356.737L481.483 362.508ZM465.809 347.707L466.321 342.92L475.351 347.707H465.809ZM465.838 333.875L458.316 337.002L439.085 326.797L444.354 303.42L468.062 313.288L465.838 333.875ZM469.467 313.875L491.698 323.141L467.375 333.243L469.453 313.875H469.467ZM468.238 311.526L444.72 301.746L458.798 239.237L477.18 228.592L468.253 311.526H468.238ZM459.237 237.284L466.906 203.233L479.141 210.325L477.37 226.785L459.237 237.284ZM467.975 202.161H480.019L479.317 208.724L467.989 202.161H467.975ZM480.517 211.132L492.459 218.049L478.936 225.875L480.531 211.132H480.517ZM480.18 200.692H467.477L491.829 92.5164L480.18 200.692ZM447.53 190.325L407.81 167.316L491.844 83.0013L447.53 190.325ZM355.096 136.773L257.686 80.3435L490.878 80.3435L355.096 136.773ZM353.383 137.478L301.502 159.049L256.954 81.621L353.398 137.493L353.383 137.478ZM300.141 159.607L255.681 178.079V82.3405L300.141 159.607ZM300.873 160.899L323.777 200.707L255.681 200.707V179.68L300.873 160.899ZM324.626 202.161L341.602 231.66L322.416 250.911L255.681 223.173V202.146L324.626 202.146V202.161ZM321.216 252.115L313.342 260.015L255.681 229.399V224.818L321.216 252.115ZM312.244 261.102L306.332 267.034L255.666 234.935V231.058L312.244 261.102ZM305.278 268.106L296.292 277.122L255.681 244.318V236.682L305.278 268.106ZM295.253 278.164L287.087 286.358L255.666 254.832V246.197L295.239 278.164H295.253ZM286.063 287.386L277.896 295.579L255.681 267.886V256.902L286.063 287.386ZM276.857 296.622L267.871 305.638L255.681 286.27V270.235L276.857 296.622ZM266.803 306.71L260.891 312.642L255.666 302.745V289.03L266.803 306.71ZM259.808 313.714L255.666 317.869V305.873L259.808 313.714ZM260.525 315.079L275.599 343.669L263.861 350.467L255.666 330.659V319.954L260.525 315.079ZM262.486 351.26L255.681 355.196V334.77L262.486 351.26ZM263.042 352.626L286.136 408.557L255.681 421.214V356.899L263.057 352.626H263.042ZM286.765 410.069L294.185 428.057L255.681 439.951V422.962L286.765 410.069ZM294.756 429.422L300.844 444.165L255.681 454.4V441.493L294.756 429.422ZM301.4 445.545L311.147 469.142L255.681 475.163V455.912L301.415 445.545H301.4ZM311.732 470.552L321.479 494.178H255.681V476.631L311.732 470.552ZM321.479 495.647L311.732 519.273L255.681 513.194V495.647H321.479ZM311.147 520.682L301.4 544.279L255.666 533.913V514.662L311.132 520.682H311.147ZM300.844 545.66L294.756 560.402L255.681 548.332V535.425L300.844 545.66ZM294.185 561.768L286.765 579.756L255.681 566.863V549.874L294.185 561.768ZM286.136 581.268L263.042 637.199L255.666 632.926V568.611L286.121 581.268H286.136ZM262.486 638.564L255.681 655.054V634.629L262.486 638.564ZM263.876 639.372L275.613 646.171L260.539 674.76L255.681 669.885V659.18L263.876 639.372ZM259.808 676.111L255.666 683.952V671.955L259.808 676.111ZM260.891 677.198L266.803 683.13L255.666 700.809V687.094L260.891 677.198ZM267.871 684.187L276.857 693.203L255.681 719.59V703.555L267.871 684.187ZM277.896 694.245L286.063 702.439L255.681 732.923V721.939L277.896 694.245ZM287.087 703.467L295.253 711.66L255.681 743.627V734.993L287.087 703.482V703.467ZM296.292 712.703L305.278 721.719L255.681 753.142V745.507L296.292 712.703ZM306.347 722.791L312.259 728.723L255.681 758.766V754.904L306.347 722.806V722.791ZM313.327 729.81L321.201 737.71L255.666 765.007V760.426L313.327 729.81ZM322.401 738.899L341.587 758.15L324.611 787.649H255.666L255.666 766.622L322.401 738.884V738.899ZM323.777 789.132L300.873 828.94L255.681 810.16V789.132H323.777ZM300.141 830.218L255.681 907.484V811.746L300.141 830.218ZM301.502 830.776L353.383 852.346L256.939 908.218L301.488 830.791L301.502 830.776ZM355.081 853.051L490.864 909.481H257.671L355.081 853.051ZM407.81 822.509L447.53 799.499L491.844 906.824L407.81 822.509ZM481.644 789.132H493.191V896.339L481.644 789.132ZM481.483 787.664L480.692 780.293L493.191 773.054V787.664H481.483ZM478.746 762.144L469.658 677.711L493.205 667.932V770.513L478.761 762.144H478.746ZM467.17 654.629L466.511 648.491L478.497 642.118H493.191V665.465L467.17 654.629ZM481.263 640.649L493.191 634.306V640.649H481.263ZM483.458 626.7L493.191 623.69V631.869L483.458 626.7ZM487.176 619.842L493.191 617.346V621.707L487.176 619.842ZM470.17 605.584L493.191 582.487V615.158L470.17 605.584ZM488.376 574.102L493.191 568.097V578.933L488.376 574.102ZM488.2 557.715L489.927 556.32H493.191V563.941L488.2 557.715ZM491.742 554.852L493.191 553.692V554.852H491.742ZM482.229 541.768L493.191 540.579V550.623L482.229 541.768ZM477.253 537.216L493.191 498.613L493.191 538.949L477.253 537.216ZM477.253 452.608L493.191 450.876V491.212L477.253 452.608ZM482.229 448.071L493.191 439.217V449.26L482.229 448.071ZM491.742 434.973H493.191V436.133L491.742 434.973ZM489.927 433.505L488.2 432.11L493.191 425.884V433.505H489.927ZM488.376 415.722L493.191 410.891V421.728L488.376 415.722ZM470.17 384.24L493.191 374.666V407.338L470.17 384.24ZM487.176 369.982L493.191 368.117V372.478L487.176 369.982ZM483.458 363.125L493.191 357.956V366.135L483.458 363.125ZM481.248 349.175H493.191V355.519L481.248 349.175ZM478.482 347.707L466.496 341.349L467.155 335.211L493.176 324.374V347.722H478.468L478.482 347.707ZM469.643 312.113L478.731 227.681L493.176 219.311V321.893L469.628 312.113H469.643ZM480.692 209.532L481.483 202.161H493.191V216.771L480.692 209.532ZM481.644 200.692L493.191 93.4855V200.692H481.644ZM79.7689 494.178H18.6975L98.9699 447.674L79.7689 494.178ZM101.048 446.47L163.642 410.216L82.3447 491.785L101.048 446.47ZM79.7689 495.647L98.9699 542.15L18.6975 495.647H79.7689ZM82.3447 498.04L163.642 579.609L101.048 543.354L82.3447 498.04ZM167.637 583.617L200.683 616.774L200.683 784.698L101.97 545.572L167.637 583.617ZM172.54 586.451L200.697 602.765V614.703L172.54 586.451ZM168.53 582.443L83.3691 496.997L200.683 545.748V601.062L168.53 582.443ZM95.0331 500.243L200.683 532.885V544.059L95.0331 500.243ZM98.7504 499.861L200.683 522.958V531.343L98.7504 499.846V499.861ZM92.8672 497.012L200.683 508.7V521.446L92.8672 497.012ZM93.8477 495.647H200.697V507.232L93.8477 495.647ZM93.8477 494.178L200.683 482.593V494.178H93.8477ZM92.8672 492.813L200.683 468.379V481.124L92.8672 492.813ZM98.7504 489.964L200.683 458.467V466.852L98.7504 489.949V489.964ZM95.0331 489.582L200.683 445.766V456.94L95.0331 489.582ZM83.3838 492.827L168.544 407.382L200.697 388.763V444.077L83.3838 492.827ZM172.54 403.373L200.697 375.122V387.06L172.54 403.373ZM167.637 406.207L101.97 444.253L200.683 205.127L200.683 373.051L167.637 406.207ZM99.8919 445.457L17.9657 492.915L191.067 192.087L200.551 201.603L99.8773 445.457H99.8919ZM99.8919 544.368L200.565 788.222L191.082 797.737L17.9803 496.909L99.9066 544.368H99.8919ZM201.59 789.265L254.217 811.129V907.47L191.828 799.044L201.59 789.25V789.265ZM205.102 789.132H254.217V809.543L205.102 789.132ZM202.146 784.698L202.146 618.242L250.734 666.992L202.146 784.698ZM205.102 787.664L254.217 767.254L254.217 787.664H205.102ZM215.625 781.673L254.202 761.189V765.609L215.625 781.673ZM217.981 778.766L254.217 755.815V759.53L217.981 778.766ZM211.82 780.939L254.217 746.696V754.082L211.82 780.939ZM211.542 779.28L254.217 736.462V744.817L211.542 779.28ZM210.503 778.237L254.202 723.76V734.391L210.503 778.237ZM208.849 777.958L254.217 705.89V721.425L208.849 777.958ZM211 771.791L254.217 689.87V703.144L211 771.806V771.791ZM208.102 774.14L251.934 668.196L254.202 670.472V686.713L208.088 774.14H208.102ZM252.549 666.743L254.217 662.705V668.417L252.549 666.743ZM251.349 665.539L202.146 616.172V603.617L254.202 633.777V658.593L251.334 665.539H251.349ZM202.146 601.913V546.364L254.202 568.009V632.089L202.146 601.928V601.913ZM202.146 544.661V533.325L254.202 549.404V566.246L202.146 544.661ZM202.146 531.798V523.296L254.202 535.102V547.892L202.146 531.813V531.798ZM202.146 521.784V508.862L254.202 514.501V533.575L202.146 521.769V521.784ZM202.146 507.394V495.647H254.202V513.032L202.146 507.394ZM202.146 494.178V482.431L254.202 476.792V494.178H202.146ZM202.146 480.963V468.041L254.202 456.235V475.309L202.146 480.948V480.963ZM202.146 466.528V458.027L254.202 441.948V454.737L202.146 466.543V466.528ZM202.146 456.485V445.149L254.202 423.564V440.406L202.146 456.485ZM202.146 443.46V387.911L254.202 357.751V421.831L202.146 443.475V443.46ZM202.146 386.208V373.653L251.349 324.286L254.217 331.232V356.047L202.161 386.208H202.146ZM202.146 371.583L202.146 205.127L250.734 322.832L202.146 371.583ZM252.549 323.082L254.217 321.408V327.12L252.549 323.082ZM251.934 321.628L208.102 215.684L254.202 303.097V319.338L251.934 321.614V321.628ZM211.015 218.049L254.217 286.696V299.97L211.015 218.049ZM208.849 211.867L254.202 268.399V283.935L208.849 211.867ZM210.503 211.588L254.202 255.434L254.202 266.05L210.503 211.573V211.588ZM211.542 210.545L254.217 245.008V253.363L211.542 210.545ZM211.82 208.886L254.217 235.743V243.129L211.82 208.886ZM217.981 211.059L254.217 230.295V234.01L217.981 211.044V211.059ZM215.625 208.137L254.217 224.216V228.636L215.625 208.152V208.137ZM205.102 202.161H254.217V222.571L205.102 202.161ZM205.102 200.692L254.217 180.282V200.692H205.102ZM201.59 200.56L191.828 190.766L254.217 82.3405V178.681L201.59 200.545V200.56ZM6.94562 929.334L7.3993 929.848C7.83835 930.332 8.43837 930.582 9.03841 930.582C9.55063 930.582 10.0775 930.406 10.5019 930.024C11.4093 929.216 11.4825 927.821 10.6775 926.911L9.71162 925.81C8.99451 925.002 7.83835 924.885 6.94562 925.428L6.94562 744.802C7.9847 744.229 8.39447 742.937 7.85298 741.88L7.19442 740.588C7.12124 740.441 7.03344 740.309 6.931 740.191L6.931 248.283C7.47249 248.106 7.94079 247.739 8.21885 247.196L8.89207 245.889C9.4482 244.802 9.00914 243.481 7.94079 242.923C7.61882 242.761 7.28223 242.688 6.94562 242.688L6.94562 170.781C7.16515 170.62 7.37003 170.444 7.53101 170.209L8.33594 168.99C9.00914 167.977 8.74571 166.611 7.7359 165.936C7.48711 165.759 7.20906 165.657 6.931 165.598L6.931 7.33543L105.117 105.849L104.941 106.026C104.078 106.892 104.092 108.287 104.941 109.138C105.365 109.564 105.936 109.785 106.492 109.785C107.048 109.785 107.619 109.564 108.044 109.138L108.219 108.962L189.984 191.001L15.3168 494.531L15.9461 494.898L15.3168 495.265L189.984 798.794L107.795 881.259C107.78 880.716 107.575 880.187 107.165 879.761L106.141 878.719C105.292 877.852 103.902 877.838 103.038 878.689C102.175 879.541 102.16 880.936 103.009 881.802L104.048 882.859C104.458 883.271 105 883.476 105.541 883.491L80.208 908.909C80.1055 908.644 79.9445 908.395 79.725 908.174L78.7006 907.132C77.8518 906.265 76.4615 906.265 75.598 907.117C74.7345 907.969 74.7199 909.364 75.5833 910.23L76.6224 911.273C76.842 911.493 77.0907 911.654 77.3542 911.757L35.3666 953.885C34.7373 953.826 34.0788 954.003 33.5958 954.487C33.1129 954.972 32.9372 955.633 32.9958 956.264L6.931 982.416L6.931 929.275L6.94562 929.334ZM922.345 983.517C921.73 983.209 921.013 983.209 920.384 983.517H245.202C245.612 982.475 245.202 981.285 244.178 980.757L242.875 980.081C241.792 979.523 240.475 979.949 239.919 981.021C239.48 981.858 239.655 982.856 240.255 983.517H171.135C171.062 983.444 170.988 983.385 170.901 983.326L169.686 982.519C168.676 981.843 167.315 982.122 166.642 983.121C166.554 983.253 166.481 983.385 166.437 983.517H67.1244C67.0073 983.165 66.8024 982.827 66.5097 982.563L65.4121 981.594C64.5047 980.786 63.1144 980.874 62.3095 981.784C61.8704 982.284 61.7095 982.915 61.7826 983.517H7.98471L33.6836 957.732L34.6641 958.701C35.0886 959.127 35.6447 959.333 36.2154 959.333C36.7862 959.333 37.3423 959.113 37.7667 958.687C38.6156 957.82 38.6156 956.425 37.7667 955.574L36.8008 954.619L190.775 800.131L254.334 910.583L254.963 910.215V910.95H732.91V910.215L733.54 910.583L797.099 800.131L906.48 909.878C906.48 909.878 906.407 909.922 906.363 909.951L905.324 910.979C904.461 911.831 904.461 913.226 905.324 914.092C905.749 914.518 906.319 914.738 906.89 914.738C907.461 914.738 908.002 914.532 908.441 914.107L909.48 913.064C909.48 913.064 909.524 912.976 909.554 912.947L979.874 983.502H922.359L922.345 983.517ZM980.899 60.5056C980.079 59.698 978.777 59.6393 977.899 60.4175C976.991 61.2251 976.918 62.6201 977.723 63.5305L978.689 64.6171C979.128 65.1164 979.728 65.366 980.328 65.366C980.518 65.366 980.709 65.3072 980.899 65.2632V240.118C980.313 239.12 979.04 238.738 978.001 239.281C976.918 239.839 976.508 241.176 977.064 242.247L977.738 243.54C978.133 244.289 978.894 244.729 979.684 244.729C980.021 244.729 980.372 244.656 980.694 244.479C980.767 244.45 980.826 244.391 980.884 244.347V818.706L980.284 819.616C979.611 820.629 979.874 821.995 980.884 822.67V982.46L910.08 911.42C910.066 910.891 909.861 910.362 909.451 909.951C909.041 909.54 908.515 909.334 907.973 909.32L797.831 798.809L972.498 495.279L971.869 494.912L972.498 494.545L797.831 191.016L952.156 36.1745C952.492 36.3801 952.873 36.5269 953.253 36.5269C953.81 36.5269 954.38 36.3066 954.805 35.8808C955.536 35.1466 955.61 34.06 955.097 33.2084L980.87 7.35013V60.5203L980.899 60.5056Z" fill="#8F7E77"/>
</svg>
