<svg width="120" height="40" viewBox="0 0 120 40" fill="none" xmlns="http://www.w3.org/2000/svg">
<path d="M101.003 21.0391V23.276H92.1591V26.1632H89.9482V21.0391H101.003ZM106.543 23.276V26.1632H104.332V21.0391H115.387V23.276H106.543ZM117.598 23.276V26.1632H115.387V23.276H117.598ZM89.9482 28.3741H92.1591V26.1632H94.3701V28.3741H98.7919V30.585H92.1591V37.2177H101.003V39.4287H89.9482V28.3741ZM106.543 26.1632H108.754V28.3741H106.543V26.1632ZM117.598 28.3741V26.1632H119.809V28.3741H117.598ZM115.387 30.585V32.7959H117.598V39.4287H115.387V35.0068H113.176V32.7959H106.543V39.4287H104.332V28.3741H106.543V30.585H115.387ZM117.598 30.585H115.387V28.3741H117.598V30.585Z" fill="#E4E4E4"/>
<path d="M86.3116 39.43H83.8926V21.0664H86.3116V39.43Z" fill="#E4E4E4"/>
<path d="M67.5488 21.0664H82.1929V23.1473H76.1064V39.43H73.6353V23.1473H67.5488V21.0664Z" fill="#E4E4E4"/>
<path d="M50.4863 21.0664H54.9082V23.2773H52.6972V39.43H50.4863V21.0664ZM63.7518 21.0664H65.9627V39.43H61.5409V37.2191H63.7518V21.0664ZM54.9082 23.2773H57.1191V27.257H54.9082V23.2773ZM57.1191 27.257H59.33V32.7972H57.1191V27.257ZM59.33 32.7972H61.5409V37.2191H59.33V32.7972Z" fill="#E4E4E4"/>
<path d="M39.2236 39.8483C37.5416 39.8483 36.033 39.4234 34.6978 38.5737C33.3625 37.7067 32.3221 36.5449 31.5765 35.0883C30.8308 33.6144 30.458 31.993 30.458 30.2243C30.458 28.4035 30.8308 26.7649 31.5765 25.3083C32.3221 23.8517 33.3539 22.7159 34.6717 21.9009C36.007 21.0685 37.5243 20.6523 39.2236 20.6523C40.923 20.6523 42.4403 21.0685 43.7755 21.9009C45.1107 22.7159 46.1425 23.8517 46.8708 25.3083C47.6164 26.7475 47.9892 28.3862 47.9892 30.2243C47.9892 31.993 47.6164 33.6144 46.8708 35.0883C46.1251 36.5449 45.0847 37.7067 43.7495 38.5737C42.4316 39.4234 40.923 39.8483 39.2236 39.8483ZM39.2236 37.7674C40.4548 37.7674 41.5473 37.4293 42.501 36.753C43.4547 36.0767 44.1917 35.1663 44.7119 34.0219C45.2494 32.8774 45.5182 31.6115 45.5182 30.2243C45.5182 28.785 45.2581 27.5018 44.7379 26.3747C44.2177 25.2302 43.4807 24.3372 42.527 23.6956C41.5733 23.054 40.4721 22.7332 39.2236 22.7332C37.9925 22.7332 36.9 23.054 35.9463 23.6956C34.9925 24.3372 34.2469 25.2302 33.7094 26.3747C33.1891 27.5018 32.929 28.785 32.929 30.2243C32.929 31.5942 33.1891 32.8601 33.7094 34.0219C34.2469 35.1663 34.9925 36.0767 35.9463 36.753C36.9 37.4293 37.9925 37.7674 39.2236 37.7674Z" fill="#E4E4E4"/>
<path d="M27.7056 37.3751H29.2663V39.43H26.171L21.385 32.095H16.9632V39.43H14.4922V21.0664H22.6596C23.804 21.0664 24.8358 21.3092 25.7548 21.7947C26.6739 22.2802 27.3935 22.9479 27.9137 23.7975C28.4339 24.6299 28.694 25.5663 28.694 26.6067C28.694 27.9419 28.2865 29.0864 27.4715 30.0401C26.6565 30.9765 25.5294 31.6008 24.0901 31.9129L27.7056 37.3751ZM16.9632 30.0141H22.5035C23.648 30.0141 24.5497 29.7106 25.2086 29.1037C25.8849 28.4968 26.223 27.6731 26.223 26.6327C26.223 25.627 25.8849 24.7946 25.2086 24.1357C24.5323 23.4767 23.6566 23.1473 22.5815 23.1473H16.9632V30.0141Z" fill="#E4E4E4"/>
<path d="M12.199 21.0664V23.1473H2.47102V29.0257H10.9505V31.1066H2.47102V39.43H0V21.0664H12.199Z" fill="#E4E4E4"/>
<path d="M107.35 18.7776H95.1514V0.414062H97.6224V16.6968H107.35V18.7776Z" fill="#E4E4E4"/>
<path d="M93.7353 18.7816H91.1602L89.8077 15.088H80.5738L79.2213 18.7816H76.6982L83.8252 0.417969H86.6083L93.7353 18.7816ZM85.1517 2.62888L81.3542 13.0072H89.0273L85.2038 2.62888H85.1517Z" fill="#E4E4E4"/>
<path d="M73.0565 9.93657V12.1475H75.2674V18.7802H73.0565V14.3584H70.8456V12.1475H64.2129V18.7802H62.002V0.390625H73.0565V2.62755H64.2129V9.93657H73.0565ZM73.0565 2.62755H75.2674V9.93657H73.0565V2.62755Z" fill="#E4E4E4"/>
<path d="M45.7617 0.414062H60.4058V2.49492H54.3192V18.7776H51.8482V2.49492H45.7617V0.414062Z" fill="#E4E4E4"/>
<path d="M38.2226 19.1959C36.4018 19.1959 34.8498 18.8404 33.5666 18.1295C32.2834 17.4012 31.4337 16.3001 31.0176 14.8261L33.2545 14.0198C33.5146 15.0949 34.0955 15.8752 34.9972 16.3608C35.9163 16.8463 37.0174 17.0891 38.3006 17.0891C39.6878 17.0891 40.841 16.8289 41.76 16.3087C42.6791 15.7712 43.1386 14.9648 43.1386 13.8897C43.1386 13.1441 42.9045 12.5372 42.4363 12.069C41.9681 11.6008 41.3612 11.2366 40.6155 10.9765C39.8872 10.7164 38.9682 10.4737 37.8584 10.2482C36.5579 9.98812 35.4654 9.69334 34.581 9.36387C33.714 9.0344 32.9771 8.53152 32.3701 7.85524C31.7806 7.17896 31.4858 6.28593 31.4858 5.17614C31.4858 4.06635 31.7892 3.12129 32.3961 2.34097C33.0204 1.56065 33.8527 0.979738 34.8932 0.598247C35.9336 0.199416 37.0867 0 38.3526 0C39.9826 0 41.3612 0.35548 42.4883 1.06644C43.6154 1.76006 44.3958 2.85251 44.8293 4.34379L42.6184 5.17614C42.3583 4.03166 41.8467 3.234 41.0837 2.78315C40.3381 2.31496 39.393 2.08086 38.2486 2.08086C37 2.08086 35.9509 2.32363 35.1013 2.80916C34.2689 3.27735 33.8527 4.00565 33.8527 4.99406C33.8527 5.653 34.0608 6.18189 34.477 6.58072C34.9105 6.97955 35.4567 7.29168 36.1157 7.5171C36.7746 7.72519 37.6156 7.91593 38.6387 8.08934C39.9739 8.33211 41.1184 8.63557 42.0721 8.99972C43.0432 9.36387 43.8495 9.9361 44.4911 10.7164C45.1501 11.4794 45.4795 12.4938 45.4795 13.7597C45.4795 15.5111 44.8033 16.855 43.4507 17.7913C42.0982 18.7277 40.3554 19.1959 38.2226 19.1959Z" fill="#E4E4E4"/>
<path d="M30.4081 18.7816H27.8331L26.4805 15.088H17.2467L15.8941 18.7816H13.3711L20.498 0.417969H23.2812L30.4081 18.7816ZM21.8246 2.62888L18.027 13.0072H25.7002L21.8766 2.62888H21.8246Z" fill="#E4E4E4"/>
</svg>
