<?xml version="1.0" encoding="UTF-8"?>
<svg version="1.1" xmlns="http://www.w3.org/2000/svg" width="120" height="40">
<path d="M0 0 C6.6 0 13.2 0 20 0 C20 6.27 20 12.54 20 19 C18.68 19 17.36 19 16 19 C16 13.72 16 8.44 16 3 C14.02 3 12.04 3 10 3 C10 8.28 10 13.56 10 19 C8.68 19 7.36 19 6 19 C6 13.72 6 8.44 6 3 C4.02 3 2.04 3 0 3 C0 2.01 0 1.02 0 0 Z " fill="#E3E3E3" transform="translate(67,21)"/>
<path d="M0 0 C4.272281 -0.36619551 6.5455773 0.47920505 10 3 C12.83405067 7.251076 12.75459637 11.01172082 12 16 C9.99802059 19.12809283 8.71400832 20.62325758 5.02734375 21.43359375 C1.45956138 21.65366257 -0.59809173 21.3091602 -3.4375 19.125 C-6.2873289 15.24923269 -6.6776077 11.72518436 -6 7 C-4.125 4 -4.125 4 -2 2 C-1.34 2 -0.68 2 0 2 C0 1.34 0 0.68 0 0 Z M-2 7 C-3.08805146 9.3566226 -3.08805146 9.3566226 -3 12 C-1.8584081 14.2831838 -0.80987317 16.19012683 1 18 C3.41537838 18.41717279 3.41537838 18.41717279 6 18 C8.04826062 16.52040427 8.04826062 16.52040427 9 14 C8.87571402 10.45784948 8.70048901 7.98705269 6.625 5.0625 C3.07508944 2.74140463 0.71630573 4.37423779 -2 7 Z " fill="#E5E5E5" transform="translate(36,19)"/>
<path d="M0 0 C1.65 0 3.3 0 5 0 C5 0.66 5 1.32 5 2 C5.99 2 6.98 2 8 2 C8 3.32 8 4.64 8 6 C8.66 6 9.32 6 10 6 C10 7.65 10 9.3 10 11 C10.66 11 11.32 11 12 11 C12.33 7.37 12.66 3.74 13 0 C13.99 0 14.98 0 16 0 C16 6.27 16 12.54 16 19 C14.35 19 12.7 19 11 19 C11 18.34 11 17.68 11 17 C10.34 17 9.68 17 9 17 C9 15.35 9 13.7 9 12 C8.34 12 7.68 12 7 12 C7 10.35 7 8.7 7 7 C6.01 7 5.02 7 4 7 C3.67 10.96 3.34 14.92 3 19 C2.01 19 1.02 19 0 19 C0 12.73 0 6.46 0 0 Z " fill="#E3E3E3" transform="translate(50,21)"/>
<path d="M0 0 C11.47897324 -0.37028946 11.47897324 -0.37028946 13.86328125 1.32421875 C15.63321345 3.93350024 15.38278316 5.9377347 15 9 C13.5 10.875 13.5 10.875 12 12 C12.66 12.598125 13.32 13.19625 14 13.8125 C16 16 16 16 16 19 C13.6875 19.3125 13.6875 19.3125 11 19 C9.18116991 16.6167054 8 15.04181663 8 12 C6.35 12 4.7 12 3 12 C3 14.31 3 16.62 3 19 C2.01 19 1.02 19 0 19 C0 12.73 0 6.46 0 0 Z M3 3 C3 4.98 3 6.96 3 9 C5.64 8.67 8.28 8.34 11 8 C11.33 7.01 11.66 6.02 12 5 C11.67 4.34 11.34 3.68 11 3 C8.36 3 5.72 3 3 3 Z " fill="#E3E3E3" transform="translate(14,21)"/>
<path d="M0 0 C3.96 0 7.92 0 12 0 C12 0.66 12 1.32 12 2 C12.66 2 13.32 2 14 2 C14 2.99 14 3.98 14 5 C14.66 5 15.32 5 16 5 C16 5.99 16 6.98 16 8 C15.34 8 14.68 8 14 8 C14 11.63 14 15.26 14 19 C13.01 19 12.02 19 11 19 C11 17.68 11 16.36 11 15 C10.34 15 9.68 15 9 15 C9 14.01 9 13.02 9 12 C7.02 12 5.04 12 3 12 C3 14.31 3 16.62 3 19 C2.01 19 1.02 19 0 19 C0 12.73 0 6.46 0 0 Z M3 3 C3 3.66 3 4.32 3 5 C3.66 5 4.32 5 5 5 C5 5.99 5 6.98 5 8 C4.01 8.495 4.01 8.495 3 9 C5.64 9 8.28 9 11 9 C11 8.34 11 7.68 11 7 C11.66 6.67 12.32 6.34 13 6 C12.34 6 11.68 6 11 6 C11 5.01 11 4.02 11 3 C8.36 3 5.72 3 3 3 Z " fill="#E3E3E3" transform="translate(104,21)"/>
<path d="M0 0 C9.27734375 -0.09765625 9.27734375 -0.09765625 12 0 C13 1 13 1 13.125 3.875 C13 7 13 7 12 10 C12.87914688 12.6569191 12.87914688 12.6569191 14 15 C12.35 15 10.7 15 9 15 C8.34 13.35 7.68 11.7 7 10 C6.34 10 5.68 10 5 10 C4.67 11.65 4.34 13.3 4 15 C2.68 15 1.36 15 0 15 C0 10.05 0 5.1 0 0 Z M4 3 C4 3.99 4 4.98 4 6 C5.65 5.67 7.3 5.34 9 5 C8.67 4.34 8.34 3.68 8 3 C6.68 3 5.36 3 4 3 Z " fill="#BEBEBE" transform="translate(36,3)"/>
<path d="M0 0 C8.30078125 -0.390625 8.30078125 -0.390625 11 0 C13.63284295 2.58231931 13.97461816 3.76310282 14.375 7.5 C13.97461816 11.23689718 13.63284295 12.41768069 11 15 C7.27101421 15.53965062 3.78628294 15.17817802 0 15 C0 10.05 0 5.1 0 0 Z M4 3 C4 5.97 4 8.94 4 12 C7.29075996 11.62095792 7.29075996 11.62095792 10 10 C10.33343551 7.54207971 10.33343551 7.54207971 10 5 C7.18490007 2.7226499 7.18490007 2.7226499 4 3 Z " fill="#BEBEBE" transform="translate(5,3)"/>
<path d="M0 0 C5.61 0 11.22 0 17 0 C17 4.95 17 9.9 17 15 C15.68 15 14.36 15 13 15 C13 11.04 13 7.08 13 3 C11.35 3 9.7 3 8 3 C8 6.96 8 10.92 8 15 C6.68 15 5.36 15 4 15 C4 11.04 4 7.08 4 3 C2.68 3 1.36 3 0 3 C0 2.01 0 1.02 0 0 Z " fill="#BEBEBE" transform="translate(67,3)"/>
<path d="M0 0 C3.96 0 7.92 0 12 0 C12 0.99 12 1.98 12 3 C9.36 3 6.72 3 4 3 C4 3.66 4 4.32 4 5 C4.66 5 5.32 5 6 5 C6 5.66 6 6.32 6 7 C7.32 7 8.64 7 10 7 C10 7.99 10 8.98 10 10 C8.02 10 6.04 10 4 10 C4 11.98 4 13.96 4 16 C6.64 16 9.28 16 12 16 C12 16.99 12 17.98 12 19 C8.04 19 4.08 19 0 19 C0 12.73 0 6.46 0 0 Z " fill="#E4E4E4" transform="translate(89,21)"/>
<path d="M0 0 C1.32 0 2.64 0 4 0 C4.33 1.32 4.66 2.64 5 4 C5.556875 3.34 6.11375 2.68 6.6875 2 C9 0 9 0 11.75 -0.25 C12.4925 -0.1675 13.235 -0.085 14 0 C12.02 2.97 12.02 2.97 10 6 C11.65 8.97 13.3 11.94 15 15 C13.35 15 11.7 15 10 15 C8.02389614 12.95575462 7 11.8823175 7 9 C6.01 9.495 6.01 9.495 5 10 C4.34444881 12.52733235 4.34444881 12.52733235 4 15 C2.68 15 1.36 15 0 15 C0 10.05 0 5.1 0 0 Z " fill="#BEBEBE" transform="translate(101,3)"/>
<path d="M0 0 C0.99 0 1.98 0 3 0 C3.33 1.32 3.66 2.64 4 4 C4.53625 3.34 5.0725 2.68 5.625 2 C8 0 8 0 11.25 -0.25 C12.61125 -0.12625 12.61125 -0.12625 14 0 C13.29875 0.70125 12.5975 1.4025 11.875 2.125 C9.60103876 4.87583237 9.60103876 4.87583237 10.625 8.0625 C12.24788783 11.56373982 12.24788783 11.56373982 14 15 C11.75 15.3125 11.75 15.3125 9 15 C6.6875 12.5 6.6875 12.5 5 10 C4.34 11.65 3.68 13.3 3 15 C2.01 15 1.02 15 0 15 C0 10.05 0 5.1 0 0 Z " fill="#BEBEBE" transform="translate(52,3)"/>
<path d="M0 0 C1.2065625 0.0309375 1.2065625 0.0309375 2.4375 0.0625 C3.27489781 2.1859016 4.10730283 4.3112728 4.9375 6.4375 C5.4015625 7.62085938 5.865625 8.80421875 6.34375 10.0234375 C7.4375 13.0625 7.4375 13.0625 7.4375 15.0625 C5.7875 14.7325 4.1375 14.4025 2.4375 14.0625 C2.4375 13.4025 2.4375 12.7425 2.4375 12.0625 C0.4575 12.0625 -1.5225 12.0625 -3.5625 12.0625 C-3.5625 13.0525 -3.5625 14.0425 -3.5625 15.0625 C-5.2125 15.0625 -6.8625 15.0625 -8.5625 15.0625 C-7.75343245 12.74874595 -6.94043083 10.43651052 -6.125 8.125 C-5.89490234 7.46564453 -5.66480469 6.80628906 -5.42773438 6.12695312 C-3.28811329 0.08019789 -3.28811329 0.08019789 0 0 Z M-1.5625 6.0625 C-1.5625 7.0525 -1.5625 8.0425 -1.5625 9.0625 C-0.5725 8.7325 0.4175 8.4025 1.4375 8.0625 C1.1075 7.4025 0.7775 6.7425 0.4375 6.0625 C-0.2225 6.0625 -0.8825 6.0625 -1.5625 6.0625 Z " fill="#BEBEBE" transform="translate(27.5625,2.9375)"/>
<path d="M0 0 C1.051875 -0.02126953 1.051875 -0.02126953 2.125 -0.04296875 C4 0.1875 4 0.1875 6 2.1875 C6 3.1775 6 4.1675 6 5.1875 C4.88625 5.001875 3.7725 4.81625 2.625 4.625 C-0.82568861 3.87069343 -0.82568861 3.87069343 -3 5.1875 C-3 6.8375 -3 8.4875 -3 10.1875 C0.47823115 11.34691038 2.45895578 10.89570884 6 10.1875 C5.125 14.0625 5.125 14.0625 4 15.1875 C-3.15789474 15.64929966 -3.15789474 15.64929966 -5.9375 14.125 C-7.56269287 11.16141301 -7.82357605 8.53955511 -8 5.1875 C-6.47549252 0.73124737 -4.50668926 0.04142178 0 0 Z " fill="#BEBEBE" transform="translate(93,2.8125)"/>
<path d="M0 0 C4.29 0 8.58 0 13 0 C13 0.99 13 1.98 13 3 C9.7 3 6.4 3 3 3 C3 4.65 3 6.3 3 8 C5.64 8 8.28 8 11 8 C11 8.99 11 9.98 11 11 C8.36 11 5.72 11 3 11 C3 13.64 3 16.28 3 19 C2.01 19 1.02 19 0 19 C0 12.73 0 6.46 0 0 Z " fill="#E3E3E3" transform="translate(0,21)"/>
</svg>
