<svg width="553" height="1" viewBox="0 0 553 1" fill="none" xmlns="http://www.w3.org/2000/svg">
<path fill-rule="evenodd" clip-rule="evenodd" d="M327.123 0.941387L325.238 0.941387V-0.00134242L327.123 -0.00134259V0.941387ZM331.837 -0.00134301L343.151 -0.00134397V0.941385L331.837 0.941386V-0.00134301ZM313.926 0.941389L320.524 0.941388V-0.001342L313.926 -0.0013414V0.941389ZM305.442 0.94139L298.843 0.941391V-0.00134009L305.442 -0.00134069V0.94139ZM310.155 -0.00134104L312.04 -0.00134122V0.941389L310.155 0.941389V-0.00134104ZM296.957 0.941391L291.3 0.941392V-0.00133944L296.957 -0.00133991V0.941391ZM420.452 0.941375L422.338 0.941375V-0.00135088L420.452 -0.0013507V0.941375ZM427.995 -0.00135136L423.281 -0.00135094V0.941375L427.995 0.941374V-0.00135136ZM419.51 0.941375L416.683 0.941375V-0.00135034L419.51 -0.00135058V0.941375ZM411.969 0.941376L413.855 0.941376V-0.0013501L411.969 -0.00134993V0.941376ZM545.835 0.941359L540.179 0.94136V-0.00136113L545.835 -0.00136161V0.941359ZM550.549 -0.00136203L552.434 -0.0013622V0.941358L550.549 0.941358V-0.00136203ZM535.465 0.94136L538.294 0.94136V-0.00136095L535.465 -0.00136071V0.94136ZM530.751 0.941361L521.324 0.941362V-0.00135952L530.751 -0.00136036V0.941361ZM514.724 0.941363L519.439 0.941362V-0.0013594L514.724 -0.00135899V0.941363ZM510.011 0.941363L502.469 0.941364V-0.00135791L510.011 -0.00135857V0.941363ZM482.672 0.941367L490.214 0.941366V-0.00135684L482.672 -0.00135618V0.941367ZM477.959 0.941368L473.246 0.941368V-0.00135535L477.959 -0.00135577V0.941368ZM478.902 -0.00135583L481.729 -0.00135607V0.941367L478.902 0.941367V-0.00135583ZM471.36 0.941368L461.933 0.94137V-0.00135434L471.36 -0.00135517V0.941368ZM454.391 0.941371L458.162 0.94137V-0.00135404L454.391 -0.00135368V0.941371ZM453.448 0.941371L450.62 0.941371V-0.00135332L453.448 -0.00135356V0.941371ZM444.964 0.941372L448.734 0.941371V-0.0013532L444.964 -0.00135285V0.941372ZM440.25 0.941372L435.537 0.941373V-0.00135201L440.25 -0.00135243V0.941372ZM430.823 0.941374L433.651 0.941373V-0.00135183L430.823 -0.00135159V0.941374ZM391.228 0.941379L407.255 0.941377V-0.00134951L391.228 -0.00134814V0.941379ZM386.515 0.941379L383.687 0.94138V-0.00134748L386.515 -0.00134772V0.941379ZM367.661 0.941382L378.974 0.94138V-0.00134712L367.661 -0.00134611V0.941382ZM358.233 0.941383L350.692 0.941384V-0.00134462L358.233 -0.00134528V0.941383ZM348.806 0.941384L349.749 0.941384V-0.0013445L348.806 -0.00134444V0.941384ZM347.863 0.941384L344.093 0.941385V-0.00134403L347.863 -0.00134438V0.941384ZM285.644 0.941392L267.732 0.941395V-0.00133735L285.644 -0.0013389V0.941392ZM244.164 0.941398L257.362 0.941396V-0.00133646L244.164 -0.00133532V0.941398ZM241.336 0.941398L239.45 0.941398V-0.00133491L241.336 -0.00133508V0.941398ZM229.081 0.9414L236.622 0.941399V-0.00133467L229.081 -0.00133401V0.9414ZM224.367 0.9414L209.284 0.941402V-0.00133228L224.367 -0.00133359V0.9414ZM195.143 0.941404L200.8 0.941403V-0.00133151L195.143 -0.00133103V0.941404ZM187.602 0.941406H178.174V-0.00132954L187.602 -0.00133038V0.941406ZM188.544 -0.00133044L194.2 -0.00133091V0.941404L188.544 0.941406V-0.00133044ZM173.46 0.941406H164.976V-0.00132841L173.46 -0.00132912V0.941406ZM151.778 0.941406H158.377V-0.00132787L151.778 -0.00132728V0.941406ZM148.949 0.941406H136.694V-0.00132596L148.949 -0.00132704V0.941406ZM129.152 0.941406H133.866V-0.00132573L129.152 -0.00132531V0.941406ZM122.553 0.941406H115.012V-0.00132406L122.553 -0.00132471V0.941406ZM105.585 0.941406H112.184V-0.00132382L105.585 -0.00132322V0.941406ZM103.699 0.941406H93.3291V-0.00132215L103.699 -0.00132304V0.941406ZM86.7311 0.941406H90.501V-0.00132191L86.7311 -0.00132155V0.941406ZM84.8457 0.941406H80.1313V-0.00132096L84.8457 -0.00132138V0.941406ZM66.9336 0.941406H73.5322V-0.00132042L66.9336 -0.00131983V0.941406ZM64.1055 0.941406H57.5065V-0.00131899L64.1055 -0.00131959V0.941406ZM48.0782 0.941406H55.6211V-0.00131881L48.0782 -0.00131816V0.941406ZM45.25 0.941406H38.6511V-0.00131732L45.25 -0.00131792V0.941406ZM34.8803 0.941406H36.7656V-0.00131714L34.8803 -0.00131696V0.941406ZM28.2812 0.941406H24.5111V-0.00131607L28.2812 -0.00131643V0.941406ZM16.9692 0.941406H20.7402V-0.00131577L16.9692 -0.00131541V0.941406ZM10.3701 0.941406H6.59867V-0.00131452L10.3701 -0.00131488V0.941406ZM0 0.941406H3.77051V-0.00131428L0 -0.00131392V0.941406Z" fill="#8F7E77"/>
</svg>
