<svg width="1" height="978" viewBox="0 0 1 978" fill="none" xmlns="http://www.w3.org/2000/svg">
<path fill-rule="evenodd" clip-rule="evenodd" d="M1.94087e-05 444.93L1.88731e-05 432.676H0.942739L0.94274 444.93H1.94087e-05ZM1.95323e-05 447.758L1.98209e-05 454.359H0.94274L0.94274 447.758H1.95323e-05ZM2.04802e-05 469.441L2.01093e-05 460.958H0.94274L0.942741 469.441H2.04802e-05ZM2.11396e-05 484.529L2.13866e-05 490.18H0.942742L0.942741 484.529H2.11396e-05ZM2.10984e-05 483.586H0.942741L0.942741 474.155H2.06862e-05L2.10984e-05 483.586ZM2.27055e-05 520.352L2.20461e-05 505.266H0.942742L0.942743 520.352H2.27055e-05ZM2.29115e-05 525.065L2.32411e-05 532.605H0.942743L0.942743 525.065H2.29115e-05ZM2.34471e-05 537.316L2.33648e-05 535.434H0.942744L0.942744 537.316H2.34471e-05ZM2.35707e-05 540.145L2.41476e-05 553.344H0.942744L0.942744 540.145H2.35707e-05ZM2.5384e-05 581.629L2.46009e-05 563.714H0.942745L0.942746 581.629H2.5384e-05ZM2.64552e-05 606.136L2.65378e-05 608.023H0.942747L0.942747 606.136H2.64552e-05ZM2.62492e-05 601.422H0.942746L0.942746 594.823H2.59608e-05L2.62492e-05 601.422ZM2.7197e-05 623.105L2.71145e-05 621.218H0.942747L0.942747 623.105H2.7197e-05ZM2.74031e-05 627.819L2.78976e-05 639.133H0.942748L0.942748 627.819H2.74031e-05ZM0.942747 616.504H2.69085e-05L2.66202e-05 609.909H0.942747L0.942747 616.504ZM2.58783e-05 592.938H0.942746L0.942746 587.285H2.56313e-05L2.58783e-05 592.938ZM2.81035e-05 643.844L2.79388e-05 640.076H0.942748L0.942748 643.844H2.81035e-05ZM2.81447e-05 644.786L2.8186e-05 645.73H0.942748L0.942748 644.786H2.81447e-05ZM2.85569e-05 654.215L2.82272e-05 646.673H0.942748L0.942749 654.215H2.85569e-05ZM2.89689e-05 663.642L2.94634e-05 674.953H0.94275L0.942749 663.642H2.89689e-05ZM2.97931e-05 682.496L2.96694e-05 679.667H0.94275L0.94275 682.496H2.97931e-05ZM2.99991e-05 687.21L3.06997e-05 703.238H0.942751L0.94275 687.21H2.99991e-05ZM3.12354e-05 715.492L3.11118e-05 712.664H0.942751L0.942751 715.492H3.12354e-05ZM3.12766e-05 716.435L3.1359e-05 718.32H0.942752L0.942751 716.435H3.12766e-05ZM3.16062e-05 723.977L3.14002e-05 719.263H0.942752L0.942752 723.977H3.16062e-05ZM0.942751 709.836H3.09881e-05L3.09058e-05 707.952H0.942751L0.942751 709.836ZM3.17299e-05 726.805L3.18535e-05 729.633H0.942752L0.942752 726.805H3.17299e-05ZM3.21419e-05 736.231L3.19359e-05 731.518H0.942752L0.942752 736.231H3.21419e-05ZM3.23479e-05 740.944L3.25129e-05 744.719H0.942753L0.942752 740.944H3.23479e-05ZM3.27188e-05 749.43L3.25953e-05 746.604H0.942753L0.942753 749.43H3.27188e-05ZM3.276e-05 750.372L3.29247e-05 754.141H0.942753L0.942753 750.372H3.276e-05ZM3.35017e-05 767.34L3.30896e-05 757.911H0.942753L0.942754 767.34H3.35017e-05ZM3.38315e-05 774.884L3.3955e-05 777.711H0.942754L0.942754 774.884H3.38315e-05ZM3.37903e-05 773.941H0.942754L0.942754 769.225H3.35841e-05L3.37903e-05 773.941ZM3.51914e-05 805.996L3.48616e-05 798.451H0.942755L0.942755 805.996H3.51914e-05ZM3.53975e-05 810.71L3.56034e-05 815.422H0.942756L0.942756 810.71H3.53975e-05ZM3.60979e-05 826.734L3.56859e-05 817.307H0.942756L0.942756 826.734H3.60979e-05ZM3.6304e-05 831.448L3.64275e-05 834.273H0.942757L0.942756 831.448H3.6304e-05ZM3.67572e-05 841.817L3.65099e-05 836.159H0.942757L0.942757 841.817H3.67572e-05ZM3.69632e-05 846.53L3.70867e-05 849.355H0.942757L0.942757 846.53H3.69632e-05ZM3.72517e-05 853.129L3.71691e-05 851.241H0.942757L0.942757 853.129H3.72517e-05ZM3.72929e-05 854.072L3.74578e-05 857.844H0.942758L0.942757 854.072H3.72929e-05ZM3.77873e-05 865.383L3.76226e-05 861.615H0.942758L0.942758 865.383H3.77873e-05ZM3.78697e-05 867.268L3.79934e-05 870.098H0.942758L0.942758 867.268H3.78697e-05ZM3.84879e-05 881.41L3.8117e-05 872.926H0.942758L0.942759 881.41H3.84879e-05ZM3.85291e-05 882.353L3.86115e-05 884.238H0.942759L0.942759 882.353H3.85291e-05ZM3.88176e-05 888.953L3.86527e-05 885.181H0.942759L0.942759 888.953H3.88176e-05ZM3.89412e-05 891.781L3.90648e-05 894.609H0.942759L0.942759 891.781H3.89412e-05ZM3.98066e-05 911.578L3.94357e-05 903.094H0.94276L0.94276 911.578H3.98066e-05ZM4.00538e-05 917.234L4.03422e-05 923.832H0.94276L0.94276 917.234H4.00538e-05ZM4.07131e-05 932.316L4.05894e-05 929.488H0.942761L0.942761 932.316H4.07131e-05ZM4.07955e-05 934.202L4.10428e-05 939.859H0.942761L0.942761 934.202H4.07955e-05ZM4.13312e-05 946.457L4.12076e-05 943.63H0.942761L0.942761 946.457H4.13312e-05ZM4.13724e-05 947.4L4.16609e-05 954H0.942762L0.942762 947.4H4.13724e-05ZM4.17845e-05 956.828L4.17021e-05 954.943H0.942762L0.942762 956.828H4.17845e-05ZM4.18257e-05 957.771L4.19493e-05 960.598H0.942762L0.942762 957.771H4.18257e-05ZM4.21965e-05 966.254L4.19905e-05 961.54H0.942762L0.942762 966.254H4.21965e-05ZM4.2485e-05 972.853L4.26911e-05 977.568H0.942763L0.942763 972.853H4.2485e-05ZM0.942755 786.195H3.43259e-05L3.39962e-05 778.654H0.942754L0.942755 786.195ZM0.942742 496.781H2.16752e-05L2.14279e-05 491.122H0.942742L0.942742 496.781ZM0.942739 429.848H1.87495e-05L1.83788e-05 421.367H0.942739L0.942739 429.848ZM0.942738 418.539H1.82551e-05L1.77195e-05 406.285H0.942738L0.942738 418.539ZM0.942738 403.457H1.75959e-05L1.73073e-05 396.855H0.942737L0.942738 403.457ZM1.66481e-05 381.774L1.70189e-05 390.256H0.942737L0.942737 381.774H1.66481e-05ZM1.59886e-05 366.686L1.57416e-05 361.035H0.942736L0.942736 366.686H1.59886e-05ZM1.60298e-05 367.629H0.942736L0.942737 377.06H1.6442e-05L1.60298e-05 367.629ZM1.44227e-05 330.863L1.50821e-05 345.949H0.942735L0.942735 330.863H1.44227e-05ZM1.42167e-05 326.15L1.38871e-05 318.609H0.942734L0.942734 326.15H1.42167e-05ZM1.36812e-05 313.898L1.37634e-05 315.781H0.942734L0.942734 313.898H1.36812e-05ZM1.35575e-05 311.07L1.29806e-05 297.871H0.942733L0.942734 311.07H1.35575e-05ZM1.17444e-05 269.59L1.25273e-05 287.501H0.942733L0.942732 269.59H1.17444e-05ZM1.0673e-05 245.079L1.05905e-05 243.191H0.942731L0.942731 245.079H1.0673e-05ZM1.0879e-05 249.793H0.942731L0.942731 256.392H1.11675e-05L1.0879e-05 249.793ZM9.93119e-06 228.109L1.00137e-05 229.997H0.94273L0.94273 228.109H9.93119e-06ZM9.72515e-06 223.396L9.23062e-06 212.082H0.942729L0.94273 223.396H9.72515e-06ZM0.94273 234.711H1.02198e-05L1.0508e-05 241.306H0.942731L0.94273 234.711ZM1.12499e-05 258.277H0.942731L0.942732 263.934H1.14971e-05L1.12499e-05 258.277ZM9.0247e-06 207.371L9.18941e-06 211.139H0.942729L0.942729 207.371H9.0247e-06ZM8.9835e-06 206.429L8.94222e-06 205.484H0.942729L0.942729 206.429H8.9835e-06ZM8.57136e-06 197L8.90102e-06 204.542H0.942729L0.942729 197H8.57136e-06ZM8.15928e-06 187.573L7.66486e-06 176.262H0.942728L0.942728 187.573H8.15928e-06ZM7.33515e-06 168.719L7.45882e-06 171.548H0.942728L0.942728 168.719H7.33515e-06ZM7.12911e-06 164.005L6.42865e-06 147.98H0.942727L0.942727 164.005H7.12911e-06ZM5.89284e-06 135.723L6.01647e-06 138.551H0.942726L0.942726 135.723H5.89284e-06ZM5.85163e-06 134.78L5.76922e-06 132.895H0.942726L0.942726 134.78H5.85163e-06ZM5.52198e-06 127.238L5.72801e-06 131.952H0.942726L0.942726 127.238H5.52198e-06ZM0.942726 141.379H6.14009e-06L6.22261e-06 143.267H0.942726L0.942726 141.379ZM5.39835e-06 124.41L5.27491e-06 121.586H0.942725L0.942726 124.41H5.39835e-06ZM4.98634e-06 114.984L5.19249e-06 119.701H0.942725L0.942725 114.984H4.98634e-06ZM4.78031e-06 110.271L4.61531e-06 106.496H0.942725L0.942725 110.271H4.78031e-06ZM4.40939e-06 101.785L4.53289e-06 104.611H0.942725L0.942725 101.785H4.40939e-06ZM4.36818e-06 100.843L4.20346e-06 97.0742H0.942724L0.942725 100.843H4.36818e-06ZM3.62651e-06 83.875L4.03863e-06 93.3033H0.942724L0.942724 83.875H3.62651e-06ZM3.29674e-06 76.3307L3.17317e-06 73.5039H0.942723L0.942724 76.3307H3.29674e-06ZM3.33795e-06 77.2734H0.942724L0.942724 81.9896H3.54409e-06L3.33795e-06 77.2734ZM1.93679e-06 45.2188L2.26661e-06 52.7642H0.942722L0.942722 45.2188H1.93679e-06ZM0 40.5051V35.793H0.942722L0.942722 40.5051H0ZM0 24.4805V33.9076H0.942722L0.942721 24.4805H0ZM0 19.7669V16.9414H0.942721L0.942721 19.7669H0ZM0 9.39841V15.056H0.942721L0.942721 9.39841H0ZM0 4.68481V0.910156H0.94272L0.94272 4.68481H0ZM0.942723 65.0195H2.80231e-06L3.13197e-06 72.5612H0.942723L0.942723 65.0195ZM0.942736 354.434H1.5453e-05L1.57004e-05 360.092H0.942736L0.942736 354.434Z" fill="#8F7E77"/>
</svg>
