<svg width="2" height="978" viewBox="0 0 2 978" fill="none" xmlns="http://www.w3.org/2000/svg">
<path fill-rule="evenodd" clip-rule="evenodd" d="M0.911152 444.93L0.911152 432.676H1.85387L1.85387 444.93H0.911152ZM0.911152 447.758L0.911153 454.359H1.85387L1.85387 447.758H0.911152ZM0.911153 469.441L0.911153 460.958H1.85387L1.85387 469.441H0.911153ZM0.911154 484.529L0.911154 490.18H1.85387L1.85387 484.529H0.911154ZM0.911154 483.586H1.85387L1.85387 474.155H0.911153L0.911154 483.586ZM0.911156 520.352L0.911155 505.266H1.85387L1.85388 520.352H0.911156ZM0.911156 525.065L0.911156 532.605H1.85388L1.85388 525.065H0.911156ZM0.911156 537.316L0.911156 535.434H1.85388L1.85388 537.316H0.911156ZM0.911156 540.145L0.911157 553.344H1.85388L1.85388 540.145H0.911156ZM0.911158 581.629L0.911157 563.714H1.85388L1.85388 581.629H0.911158ZM0.911159 606.136L0.911159 608.023H1.85388L1.85388 606.136H0.911159ZM0.911159 601.422H1.85388L1.85388 594.823H0.911159L0.911159 601.422ZM0.91116 623.105L0.91116 621.218H1.85388L1.85388 623.105H0.91116ZM0.91116 627.819L0.911161 639.133H1.85388L1.85388 627.819H0.91116ZM1.85388 616.504H0.91116L0.911159 609.909H1.85388L1.85388 616.504ZM0.911159 592.938H1.85388L1.85388 587.285H0.911158L0.911159 592.938ZM0.911161 643.844L0.911161 640.076H1.85388L1.85388 643.844H0.911161ZM0.911161 644.786L0.911161 645.73H1.85388L1.85388 644.786H0.911161ZM0.911161 654.215L0.911161 646.673H1.85388L1.85388 654.215H0.911161ZM0.911162 663.642L0.911162 674.953H1.85388L1.85388 663.642H0.911162ZM0.911163 682.496L0.911162 679.667H1.85388L1.85388 682.496H0.911163ZM0.911163 687.21L0.911164 703.238H1.85388L1.85388 687.21H0.911163ZM0.911164 715.492L0.911164 712.664H1.85388L1.85388 715.492H0.911164ZM0.911164 716.435L0.911164 718.32H1.85388L1.85388 716.435H0.911164ZM0.911164 723.977L0.911164 719.263H1.85388L1.85388 723.977H0.911164ZM1.85388 709.836H0.911164L0.911164 707.952H1.85388L1.85388 709.836ZM0.911165 726.805L0.911165 729.633H1.85388L1.85388 726.805H0.911165ZM0.911165 736.231L0.911165 731.518H1.85388L1.85389 736.231H0.911165ZM0.911165 740.944L0.911165 744.719H1.85389L1.85389 740.944H0.911165ZM0.911166 749.43L0.911165 746.604H1.85389L1.85389 749.43H0.911166ZM0.911166 750.372L0.911166 754.141H1.85389L1.85389 750.372H0.911166ZM0.911166 767.34L0.911166 757.911H1.85389L1.85389 767.34H0.911166ZM0.911167 774.884L0.911167 777.711H1.85389L1.85389 774.884H0.911167ZM0.911167 773.941H1.85389L1.85389 769.225H0.911166L0.911167 773.941ZM0.911168 805.996L0.911168 798.451H1.85389L1.85389 805.996H0.911168ZM0.911168 810.71L0.911168 815.422H1.85389L1.85389 810.71H0.911168ZM0.911169 826.734L0.911168 817.307H1.85389L1.85389 826.734H0.911169ZM0.911169 831.448L0.911169 834.273H1.85389L1.85389 831.448H0.911169ZM0.91117 841.817L0.911169 836.159H1.85389L1.85389 841.817H0.91117ZM0.91117 846.53L0.91117 849.355H1.85389L1.85389 846.53H0.91117ZM0.91117 853.129L0.91117 851.241H1.85389L1.85389 853.129H0.91117ZM0.91117 854.072L0.91117 857.844H1.85389L1.85389 854.072H0.91117ZM0.911171 865.383L0.91117 861.615H1.85389L1.85389 865.383H0.911171ZM0.911171 867.268L0.911171 870.098H1.85389L1.85389 867.268H0.911171ZM0.911171 881.41L0.911171 872.926H1.85389L1.85389 881.41H0.911171ZM0.911171 882.353L0.911171 884.238H1.85389L1.85389 882.353H0.911171ZM0.911172 888.953L0.911171 885.181H1.85389L1.85389 888.953H0.911172ZM0.911172 891.781L0.911172 894.609H1.85389L1.85389 891.781H0.911172ZM0.911173 911.578L0.911172 903.094H1.85389L1.85389 911.578H0.911173ZM0.911173 917.234L0.911173 923.832H1.85389L1.85389 917.234H0.911173ZM0.911174 932.316L0.911173 929.488H1.85389L1.85389 932.316H0.911174ZM0.911174 934.202L0.911174 939.859H1.85389L1.85389 934.202H0.911174ZM0.911174 946.457L0.911174 943.63H1.85389L1.85389 946.457H0.911174ZM0.911174 947.4L0.911174 954H1.85389L1.85389 947.4H0.911174ZM0.911175 956.828L0.911175 954.943H1.85389L1.85389 956.828H0.911175ZM0.911175 957.771L0.911175 960.598H1.85389L1.85389 957.771H0.911175ZM0.911175 966.254L0.911175 961.54H1.8539L1.8539 966.254H0.911175ZM0.911175 972.853L0.911176 977.568H1.8539L1.8539 972.853H0.911175ZM1.85389 786.195H0.911167L0.911167 778.654H1.85389L1.85389 786.195ZM1.85387 496.781H0.911154L0.911154 491.122H1.85387L1.85387 496.781ZM1.85387 429.848H0.911152L0.911151 421.367H1.85387L1.85387 429.848ZM1.85387 418.539H0.911151L0.911151 406.285H1.85387L1.85387 418.539ZM1.85387 403.457H0.91115L0.91115 396.855H1.85387L1.85387 403.457ZM0.911149 381.773L0.91115 390.256H1.85387L1.85387 381.773H0.911149ZM0.911149 366.686L0.911149 361.035H1.85387L1.85387 366.686H0.911149ZM0.911149 367.629H1.85387L1.85387 377.06H0.911149L0.911149 367.629ZM0.911147 330.863L0.911148 345.949H1.85387L1.85387 330.863H0.911147ZM0.911147 326.15L0.911147 318.609H1.85387L1.85387 326.15H0.911147ZM0.911146 313.898L0.911147 315.781H1.85387L1.85387 313.898H0.911146ZM0.911146 311.07L0.911146 297.871H1.85387L1.85387 311.07H0.911146ZM0.911145 269.586L0.911145 287.501H1.85387L1.85386 269.586H0.911145ZM0.911143 245.079L0.911143 243.191H1.85386L1.85386 245.079H0.911143ZM0.911144 249.793H1.85386L1.85386 256.392H0.911144L0.911144 249.793ZM0.911143 228.109L0.911143 229.997H1.85386L1.85386 228.109H0.911143ZM0.911143 223.396L0.911142 212.082H1.85386L1.85386 223.396H0.911143ZM1.85386 234.711H0.911143L0.911143 241.306H1.85386L1.85386 234.711ZM0.911144 258.277H1.85386L1.85386 263.93H0.911144L0.911144 258.277ZM0.911142 207.371L0.911142 211.139H1.85386L1.85386 207.371H0.911142ZM0.911142 206.428L0.911142 205.484H1.85386L1.85386 206.428H0.911142ZM0.911141 197L0.911142 204.542H1.85386L1.85386 197H0.911141ZM0.911141 187.573L0.91114 176.262H1.85386L1.85386 187.573H0.911141ZM0.91114 168.719L0.91114 171.548H1.85386L1.85386 168.719H0.91114ZM0.91114 164.005L0.911139 147.977H1.85386L1.85386 164.005H0.91114ZM0.911139 135.723L0.911139 138.551H1.85386L1.85386 135.723H0.911139ZM0.911139 134.78L0.911139 132.895H1.85386L1.85386 134.78H0.911139ZM0.911138 127.238L0.911139 131.952H1.85386L1.85386 127.238H0.911138ZM1.85386 141.379H0.911139L0.911139 143.263H1.85386L1.85386 141.379ZM0.911138 124.41L0.911138 121.582H1.85386L1.85386 124.41H0.911138ZM0.911138 114.984L0.911138 119.697H1.85386L1.85386 114.984H0.911138ZM0.911138 110.271L0.911137 106.496H1.85386L1.85386 110.271H0.911138ZM0.911137 101.785L0.911137 104.611H1.85386L1.85386 101.785H0.911137ZM0.911137 100.842L0.911137 97.0742H1.85386L1.85386 100.842H0.911137ZM0.911136 83.875L0.911137 93.3033H1.85386L1.85386 83.875H0.911136ZM0.911136 76.3307L0.911136 73.5039H1.85386L1.85386 76.3307H0.911136ZM0.911136 77.2734H1.85386L1.85386 81.9896H0.911136L0.911136 77.2734ZM0.911135 45.2188L0.911135 52.7642H1.85386L1.85385 45.2188H0.911135ZM0.911133 40.5051V35.7928H1.85385L1.85385 40.5051H0.911133ZM0.911133 24.4805V33.9074H1.85385L1.85385 24.4805H0.911133ZM0.911133 19.7669V16.9414H1.85385L1.85385 19.7669H0.911133ZM0.911133 9.39844V15.056H1.85385L1.85385 9.39844H0.911133ZM0.911133 4.68484V0.910156H1.85385L1.85385 4.68484H0.911133ZM1.85386 65.0195H0.911136L0.911136 72.5612H1.85386L1.85386 65.0195ZM1.85387 354.434H0.911148L0.911149 360.092H1.85387L1.85387 354.434Z" fill="#8F7E77"/>
</svg>
