<svg width="1115" height="1264" viewBox="0 0 1115 1264" fill="none" xmlns="http://www.w3.org/2000/svg">
<path opacity="0.4" d="M1004.79 362.327L1005.01 362.451L1005.22 362.077H1004.79V362.327ZM555.685 1142.56L555.469 1142.68L555.685 1143.06L555.902 1142.68L555.685 1142.56ZM104.675 362.327V362.077H104.241L104.458 362.452L104.675 362.327ZM8.29785 308.918V308.668H7.86458L8.08141 309.043L8.29785 308.918ZM1106.66 308.918L1106.87 309.043L1107.09 308.668H1106.66V308.918ZM558.638 1260.98L558.422 1261.11L558.638 1261.48L558.855 1261.11L558.638 1260.98ZM398.875 362.327V362.077H398.442L398.659 362.452L398.875 362.327ZM865.008 362.327L865.224 362.451L865.44 362.077H865.008V362.327ZM632.434 766.374L632.218 766.499L632.434 766.874L632.651 766.498L632.434 766.374ZM1004.79 362.077H862.834V362.577H1004.79V362.077ZM555.902 1142.68L1005.01 362.451L1004.58 362.202L555.468 1142.43L555.902 1142.68ZM104.458 362.452L555.469 1142.68L555.901 1142.43L104.891 362.202L104.458 362.452ZM593.47 362.077H104.675V362.577H593.47V362.077ZM862.834 362.077H593.47V362.577H862.834V362.077ZM955.469 622.403C955.469 842.849 776.762 1021.56 556.316 1021.56V1022.06C777.038 1022.06 955.969 843.125 955.969 622.403H955.469ZM556.316 1021.56C518.489 1021.56 481.891 1016.29 447.214 1006.46L447.077 1006.94C481.798 1016.79 518.442 1022.06 556.316 1022.06V1021.56ZM424.338 999.221C406.438 992.952 389.121 985.444 372.489 976.799L372.258 977.243C388.911 985.898 406.251 993.416 424.173 999.693L424.338 999.221ZM349.422 963.819C346.18 961.85 342.968 959.836 339.787 957.778L339.515 958.198C342.7 960.258 345.916 962.275 349.162 964.246L349.422 963.819ZM320.32 944.351C307.942 935.262 296.108 925.477 284.874 915.053L284.534 915.419C295.782 925.856 307.631 935.654 320.024 944.754L320.32 944.351ZM270.12 900.639C260.154 890.39 250.734 879.607 241.907 868.338L241.513 868.646C250.351 879.929 259.783 890.725 269.762 900.987L270.12 900.639ZM229.08 851.023C223.483 843.026 218.171 834.815 213.16 826.403L212.73 826.659C217.748 835.081 223.066 843.303 228.67 851.31L229.08 851.023ZM203.367 808.988C198.214 799.261 193.452 789.295 189.1 779.112L188.641 779.309C192.997 789.505 197.766 799.483 202.925 809.222L203.367 808.988ZM184.143 766.957C180.94 758.716 178.002 750.342 175.341 741.846L174.864 741.995C177.528 750.502 180.469 758.887 183.677 767.138L184.143 766.957ZM171.734 729.646C170.272 724.393 168.915 719.096 167.666 713.758L167.179 713.872C168.43 719.216 169.789 724.52 171.252 729.78L171.734 729.646ZM165.004 701.526C162.114 687.153 159.996 672.501 158.695 657.614L158.197 657.658C159.499 672.563 161.62 687.233 164.514 701.624L165.004 701.526ZM157.81 645.323C157.381 637.738 157.163 630.096 157.163 622.403H156.663C156.663 630.105 156.881 637.756 157.311 645.351L157.81 645.323ZM157.163 622.403C157.163 620.365 157.178 618.331 157.209 616.3L156.709 616.293C156.678 618.326 156.663 620.363 156.663 622.403H157.163ZM157.581 603.967C157.669 602.029 157.771 600.094 157.887 598.163L157.388 598.133C157.272 600.066 157.17 602.004 157.082 603.944L157.581 603.967ZM160.366 571.593C185.325 375.139 353.083 223.25 556.316 223.25V222.75C352.828 222.75 184.86 374.829 159.87 571.53L160.366 571.593ZM556.316 223.25C768.784 223.25 942.48 389.256 954.773 598.64L955.272 598.611C942.963 388.964 769.05 222.75 556.316 222.75V223.25ZM954.967 602.212C955.3 608.9 955.469 615.632 955.469 622.403H955.969C955.969 615.624 955.8 608.884 955.466 602.187L954.967 602.212ZM8.29785 309.168H22.3237V308.668H8.29785V309.168ZM26.9943 309.168H40.9871V308.668H26.9943V309.168ZM69.0107 309.168H106.385V308.668H69.0107V309.168ZM134.408 309.168H153.075V308.668H134.408V309.168ZM171.757 309.168H195.148V308.668H171.757V309.168ZM227.843 309.168H255.865V308.668H227.843V309.168ZM283.888 309.168H321.239V308.668H283.888V309.168ZM325.91 309.168H339.924V308.668H325.91V309.168ZM344.595 309.168H363.27V308.668H344.595V309.168ZM395.964 309.168H414.665V308.668H395.964V309.168ZM428.677 309.168H442.692V308.668H428.677V309.168ZM447.362 309.168H456.695V308.668H447.362V309.168ZM466.036 309.168H480.04V308.668H466.036V309.168ZM508.064 309.168H522.07V308.668H508.064V309.168ZM536.082 309.168H550.119V308.668H536.082V309.168ZM601.496 309.168H615.495V308.668H601.496V309.168ZM638.848 309.168H652.843V308.668H638.848V309.168ZM690.208 309.168H708.919V308.668H690.208V309.168ZM736.943 309.168H760.271V308.668H736.943V309.168ZM778.953 309.168H830.329V308.668H778.953V309.168ZM858.352 309.168H881.723V308.668H858.352V309.168ZM895.735 309.168H914.389V308.668H895.735V309.168ZM923.731 309.168H942.438V308.668H923.731V309.168ZM970.462 309.168H993.812V308.668H970.462V309.168ZM1017.16 309.168H1031.18V308.668H1017.16V309.168ZM1045.19 309.168H1063.87V308.668H1045.19V309.168ZM1073.21 309.168H1087.21V308.668H1073.21V309.168ZM1101.23 309.168H1106.66V308.668H1101.23V309.168ZM1106.44 308.793L1104.21 312.671L1104.64 312.92L1106.87 309.043L1106.44 308.793ZM1097.22 324.815L1090.27 336.883L1090.7 337.132L1097.65 325.064L1097.22 324.815ZM1085.61 344.979L1076.3 361.16L1076.73 361.409L1086.04 345.228L1085.61 344.979ZM1069.31 373.303L1062.33 385.419L1062.77 385.668L1069.74 373.553L1069.31 373.303ZM1050.68 405.658L1038.98 425.983L1039.42 426.232L1051.12 405.908L1050.68 405.658ZM1025 450.27L1015.71 466.416L1016.14 466.666L1025.44 450.52L1025 450.27ZM1011.05 474.512L1001.77 490.637L1002.2 490.887L1011.48 474.762L1011.05 474.512ZM994.778 502.781L983.08 523.105L983.513 523.355L995.212 503.03L994.778 502.781ZM969.099 547.393L943.454 591.946L943.887 592.196L969.533 547.642L969.099 547.393ZM934.134 608.138L922.516 628.322L922.949 628.572L934.567 608.387L934.134 608.138ZM908.535 652.61L899.222 668.789L899.656 669.039L908.969 652.859L908.535 652.61ZM880.582 701.173L873.603 713.297L874.036 713.547L881.015 701.422L880.582 701.173ZM861.953 733.537L854.957 745.69L855.391 745.94L862.386 733.786L861.953 733.537ZM844.645 763.605L822.298 802.429L822.731 802.679L845.079 763.855L844.645 763.605ZM815.308 814.573L808.346 826.667L808.78 826.916L815.741 814.822L815.308 814.573ZM794.366 850.954L787.352 863.14L787.786 863.389L794.8 851.204L794.366 850.954ZM782.692 871.236L778.042 879.314L778.476 879.563L783.126 871.485L782.692 871.236ZM775.712 883.362L768.703 895.539L769.136 895.789L776.146 883.611L775.712 883.362ZM761.713 907.683L752.427 923.815L752.86 924.065L762.146 907.933L761.713 907.683ZM736.117 952.151L726.765 968.397L727.199 968.647L736.55 952.4L736.117 952.151ZM724.435 972.445L717.485 984.52L717.918 984.769L724.868 972.694L724.435 972.445ZM715.155 988.567L696.508 1020.96L696.941 1021.21L715.588 988.817L715.155 988.567ZM682.527 1045.25L668.534 1069.56L668.968 1069.81L682.961 1045.5L682.527 1045.25ZM652.224 1097.9L640.565 1118.15L640.999 1118.4L652.658 1098.15L652.224 1097.9ZM631.245 1134.34L621.941 1150.51L622.375 1150.76L631.678 1134.59L631.245 1134.34ZM607.961 1174.79L589.326 1207.17L589.759 1207.42L608.394 1175.04L607.961 1174.79ZM575.345 1231.46L568.344 1243.62L568.777 1243.87L575.779 1231.71L575.345 1231.46ZM565.222 1249.04L558.421 1260.86L558.855 1261.11L565.655 1249.29L565.222 1249.04ZM558.854 1260.86L555.436 1254.94L555.003 1255.19L558.422 1261.11L558.854 1260.86ZM548.423 1242.81L541.412 1230.68L540.979 1230.93L547.991 1243.06L548.423 1242.81ZM536.737 1222.6L527.425 1206.49L526.993 1206.74L536.304 1222.85L536.737 1222.6ZM520.413 1194.36L513.423 1182.26L512.99 1182.51L519.98 1194.61L520.413 1194.36ZM501.736 1162.05L490.002 1141.75L489.569 1142L501.303 1162.3L501.736 1162.05ZM475.977 1117.48L466.646 1101.34L466.213 1101.59L475.544 1117.73L475.977 1117.48ZM461.971 1093.25L452.628 1077.09L452.195 1077.34L461.539 1093.5L461.971 1093.25ZM445.616 1064.96L433.923 1044.73L433.49 1044.98L445.183 1065.21L445.616 1064.96ZM419.898 1020.47L394.166 975.954L393.733 976.204L419.465 1020.72L419.898 1020.47ZM384.816 959.779L373.118 939.542L372.685 939.792L384.383 960.03L384.816 959.779ZM359.093 915.28L349.751 899.117L349.318 899.368L358.661 915.53L359.093 915.28ZM331.051 866.768L324.063 854.678L323.63 854.929L330.618 867.019L331.051 866.768ZM312.375 834.46L305.368 822.337L304.935 822.587L311.943 834.71L312.375 834.46ZM279.656 777.857L272.625 765.693L272.192 765.944L279.223 778.107L279.656 777.857ZM265.613 753.563L258.635 741.491L258.202 741.741L265.18 753.813L265.613 753.563ZM244.61 717.229L237.563 705.037L237.13 705.288L244.177 717.479L244.61 717.229ZM232.888 696.95L228.228 688.889L227.795 689.139L232.455 697.2L232.888 696.95ZM225.891 684.845L218.865 672.692L218.433 672.942L225.458 685.095L225.891 684.845ZM211.853 660.561L202.494 644.37L202.061 644.621L211.42 660.811L211.853 660.561ZM186.132 616.065L176.789 599.901L176.356 600.152L185.7 616.315L186.132 616.065ZM174.452 595.858L171.237 590.296L170.804 590.546L174.019 596.108L174.452 595.858ZM165.113 579.702L146.392 547.315L145.959 547.566L164.68 579.952L165.113 579.702ZM132.367 523.054L118.367 498.834L117.935 499.085L131.935 523.304L132.367 523.054ZM102.006 470.529L90.315 450.305L89.8821 450.555L101.573 470.779L102.006 470.529ZM80.9653 434.13L71.6318 417.984L71.1989 418.234L80.5324 434.38L80.9653 434.13ZM57.6073 393.722L38.8749 361.315L38.442 361.566L57.1744 393.972L57.6073 393.722ZM24.8504 337.054L17.8642 324.968L17.4313 325.218L24.4175 337.304L24.8504 337.054ZM15.5267 320.924L8.51429 308.793L8.08141 309.043L15.0939 321.174L15.5267 320.924ZM398.875 362.577H865.008V362.077H398.875V362.577ZM864.791 362.202L632.217 766.249L632.651 766.498L865.224 362.451L864.791 362.202ZM632.65 766.249L399.091 362.202L398.659 362.452L632.218 766.499L632.65 766.249ZM555.577 705.65C568.433 705.65 580.611 702.728 591.47 697.516L591.254 697.065C580.461 702.246 568.357 705.15 555.577 705.15V705.65ZM507.543 550.341C484.457 565.124 472.47 593.154 472.47 622.544H472.97C472.97 593.275 484.908 565.43 507.813 550.762L507.543 550.341ZM472.47 622.544C472.47 668.437 509.673 705.65 555.577 705.65V705.15C509.95 705.15 472.97 668.161 472.97 622.544H472.47ZM816.142 620.081C816.142 762.296 700.854 877.585 558.638 877.585V878.085C701.13 878.085 816.642 762.573 816.642 620.081H816.142ZM558.638 877.585C416.422 877.585 301.134 762.296 301.134 620.081H300.634C300.634 762.573 416.146 878.085 558.638 878.085V877.585ZM301.134 620.081C301.134 477.865 416.422 362.577 558.638 362.577V362.077C416.146 362.077 300.634 477.589 300.634 620.081H301.134ZM558.638 362.577C700.854 362.577 816.142 477.865 816.142 620.081H816.642C816.642 477.589 701.13 362.077 558.638 362.077V362.577Z" fill="#8F7E77"/>
</svg>
