<svg width="1047" height="1046" viewBox="0 0 1047 1046" fill="none" xmlns="http://www.w3.org/2000/svg">
<path opacity="0.4" fill-rule="evenodd" clip-rule="evenodd" d="M459.376 12.2272C441.322 14.5083 423.56 17.7259 406.14 21.8299L406.437 22.3146C423.799 18.2307 441.501 15.028 459.493 12.7565L459.376 12.2272ZM482.059 10.4114C496.039 9.26885 510.177 8.68634 524.451 8.68634C527.769 8.68634 531.079 8.7178 534.381 8.78045L534.457 8.24206C531.13 8.17852 527.794 8.14661 524.451 8.14661C510.137 8.14661 495.96 8.73177 481.941 9.87948L482.059 10.4114ZM552.689 8.90916L552.614 9.4456C573.565 10.5782 594.183 12.967 614.393 16.5379L614.468 16.0031C594.258 12.4329 573.641 10.0436 552.689 8.90916ZM666.148 27.927L666.072 28.4668C685.852 34.1311 705.144 40.9521 723.869 48.8521L724.081 48.3552C705.312 40.437 685.975 33.6015 666.148 27.927ZM771.693 71.4119L771.481 71.9113C784.67 79.1639 797.507 86.9792 809.958 95.3249L810.293 94.9003C797.803 86.5267 784.926 78.6864 771.693 71.4119ZM819.414 101.158L819.078 101.582C823.79 104.889 828.443 108.273 833.037 111.732L833.372 111.309C828.778 107.849 824.125 104.465 819.414 101.158ZM842.116 118.042L841.781 118.466C850.417 125.264 858.829 132.334 867.005 139.662L867.4 139.291C859.205 131.945 850.772 124.857 842.116 118.042ZM896.427 167.435L896.034 167.805C905.467 177.696 914.51 187.962 923.137 198.581L923.578 198.267C914.936 187.629 905.877 177.344 896.427 167.435ZM947.806 230.598L947.366 230.911C955.319 242.44 962.813 254.31 969.822 266.495L970.298 266.24C963.278 254.035 955.772 242.146 947.806 230.598ZM989.04 302.018L988.564 302.274C996.704 319.428 1003.92 337.106 1010.15 355.243L1010.65 355.039C1004.41 336.884 997.19 319.19 989.04 302.018ZM1022.3 393.909L1021.79 394.115C1024.59 405.005 1027.03 416.035 1029.12 427.192L1029.65 427.098C1027.56 415.903 1025.1 404.836 1022.3 393.909ZM1035.5 467.079L1034.97 467.174C1036.45 481.065 1037.37 495.122 1037.72 509.323H1038.26C1037.91 495.09 1036.99 481.002 1035.5 467.079ZM1038.31 532.619H1037.77C1037.48 547.223 1036.58 561.677 1035.09 575.956L1035.62 576.013C1037.11 561.715 1038.02 547.242 1038.31 532.619ZM1029.86 616.017L1029.32 615.96C1027.05 628.252 1024.34 640.392 1021.21 652.361L1021.74 652.469C1024.87 640.483 1027.59 628.327 1029.86 616.017ZM1016.48 671.122L1015.95 671.014C1013.33 679.693 1010.48 688.274 1007.41 696.752L1007.95 696.861C1011.01 688.383 1013.86 679.801 1016.48 671.122ZM1000.93 715.156L1000.39 715.046C995.564 726.949 990.301 738.63 984.624 750.068L985.139 750.245C990.825 738.784 996.096 727.082 1000.93 715.156ZM974.021 771.398L973.502 771.221C967.497 782.024 961.112 792.588 954.367 802.894L954.826 803.178C961.593 792.838 967.998 782.238 974.021 771.398ZM941.431 822.657L940.971 822.372C934.242 831.69 927.208 840.774 919.883 849.607L920.281 849.973C927.628 841.114 934.682 832.003 941.431 822.657ZM904.791 867.808L904.393 867.443C896.164 876.492 887.615 885.246 878.765 893.687L879.124 894.092C887.987 885.638 896.549 876.871 904.791 867.808ZM861.667 909.996L861.308 909.592C854.333 915.662 847.191 921.546 839.892 927.238L840.251 927.642C847.55 921.951 854.691 916.066 861.667 909.996ZM807.064 951.471L806.702 951.063C797.895 956.87 788.899 962.412 779.725 967.68L779.97 968.161C789.185 962.872 798.22 957.304 807.064 951.471ZM771.45 972.945L771.205 972.464C763.945 976.45 756.578 980.267 749.109 983.907L749.354 984.388C756.822 980.748 764.19 976.932 771.45 972.945ZM740.534 988.583L740.289 988.102C729.86 992.94 719.241 997.439 708.447 1001.58L708.693 1002.07C719.487 997.922 730.105 993.422 740.534 988.583ZM686.138 1010.13L685.891 1009.64C674.383 1013.45 662.694 1016.86 650.842 1019.86L650.951 1020.39C662.851 1017.38 674.586 1013.95 686.138 1010.13ZM627.784 1025.69L627.675 1025.16C618.472 1027.04 609.18 1028.67 599.805 1030.05L599.825 1030.59C609.23 1029.21 618.552 1027.57 627.784 1025.69ZM576.756 1033.45L576.735 1032.91C567.09 1033.88 557.367 1034.59 547.572 1035.03L547.592 1035.57C557.387 1035.13 567.111 1034.42 576.756 1033.45ZM518.232 1036.04L518.212 1035.5C504.418 1035.34 490.754 1034.63 477.241 1033.4L477.168 1033.93C490.711 1035.17 504.406 1035.88 518.232 1036.04ZM462.791 1032.42L462.865 1031.88C455.9 1031.05 448.977 1030.08 442.101 1028.97L442.027 1029.5C448.904 1030.61 455.826 1031.58 462.791 1032.42ZM432.801 1027.93L432.874 1027.39C424 1025.8 415.206 1023.97 406.496 1021.92L406.361 1022.45C415.091 1024.5 423.906 1026.33 432.801 1027.93ZM382.466 1016.21L382.601 1015.69C373.065 1012.96 363.642 1009.95 354.342 1006.69L354.153 1007.19C363.471 1010.46 372.911 1013.47 382.466 1016.21ZM320.854 994.175L321.043 993.668C309.162 988.536 297.513 982.969 286.117 976.985L285.861 977.461C297.279 983.455 308.95 989.034 320.854 994.175ZM264.876 965.808L265.132 965.332C254.512 959.105 244.135 952.507 234.02 945.556L233.763 946.034C243.879 952.984 254.256 959.581 264.876 965.808ZM210.338 928.952L210.597 928.47C198.469 919.088 186.771 909.176 175.541 898.768L175.191 899.18C186.45 909.614 198.178 919.549 210.338 928.952ZM164.405 888.891L164.755 888.479C156.639 880.509 148.786 872.272 141.211 863.781L140.819 864.152C148.407 872.658 156.274 880.909 164.405 888.891ZM122.715 842.718L123.109 842.345C116.238 833.746 109.639 824.921 103.322 815.884L102.876 816.187C109.208 825.249 115.826 834.097 122.715 842.718ZM87.4588 792.797L87.9058 792.493C83.0708 784.704 78.4386 776.775 74.0164 768.715L73.5204 768.933C77.9577 777.022 82.6063 784.98 87.4588 792.797ZM60.7038 743.97L61.1981 743.752C54.7161 730.228 48.8087 716.377 43.5078 702.229L43.0129 702.447C48.3147 716.594 54.2222 730.446 60.7038 743.97ZM28.5101 657.519L29.0097 657.299C26.3351 647.474 23.9449 637.532 21.8486 627.481L21.32 627.591C23.4241 637.679 25.824 647.658 28.5101 657.519ZM13.8435 581.18L14.3742 581.07C13.3222 571.869 12.5135 562.593 11.9545 553.25H28.2146V552.71H11.9225C11.5309 546.048 11.2664 539.351 11.1313 532.622L10.592 532.654C10.7272 539.372 10.9913 546.058 11.3819 552.71H10.7559V553.25H11.4138C11.9744 562.63 12.7865 571.942 13.8435 581.18ZM10.7615 505.126L11.3025 505.095C11.4759 499.77 11.7304 494.466 12.0647 489.184H22.3892V488.644H12.0992C12.6012 480.841 13.2776 473.085 14.1245 465.381L13.5853 465.346C12.7375 473.062 12.0606 480.829 11.5583 488.644H10.7559V489.184H11.5239C11.1892 494.477 10.9347 499.791 10.7615 505.126ZM17.3251 438.06L17.8664 438.095C20.3781 422.836 23.5624 407.804 27.3881 393.031L26.8604 392.915C23.0286 407.715 19.8396 422.774 17.3251 438.06ZM43.0306 341.73L43.5633 341.847C48.6433 328.302 54.2793 315.028 60.4434 302.053L59.9512 301.831C53.7713 314.839 48.1218 328.148 43.0306 341.73ZM71.346 279.297L71.8393 279.52C77.2311 269.481 82.9472 259.642 88.9734 250.018L88.4768 249.794C82.452 259.419 76.7371 269.258 71.346 279.297ZM97.1878 236.347L97.6868 236.572C102.511 229.377 107.511 222.311 112.683 215.379L112.199 215.125C107.022 222.066 102.016 229.142 97.1878 236.347ZM128.63 194.24L129.119 194.497C134.927 187.495 140.918 180.651 147.084 173.97L146.639 173.657C140.457 180.356 134.452 187.22 128.63 194.24ZM151.43 168.535L151.877 168.848C157.889 162.509 164.062 156.323 170.389 150.297L170.018 149.905C163.665 155.956 157.467 162.168 151.43 168.535ZM187.247 134.218L187.618 134.611C200.558 123.353 214.067 112.733 228.097 102.8L227.722 102.403C213.695 112.339 200.187 122.96 187.247 134.218ZM247.3 89.2005L247.677 89.5998C260.91 81.1138 274.559 73.2186 288.585 65.9513L288.303 65.4897C274.243 72.7755 260.563 80.6916 247.3 89.2005ZM329.999 46.2045L330.285 46.671C347.615 39.586 365.419 33.4211 383.637 28.2369L383.344 27.7588C365.13 32.9481 347.328 39.1168 329.999 46.2045ZM34.0376 488.644V489.184H45.6826V488.644H34.0376ZM80.6278 488.644V489.184H97.3442C97.1271 492.039 96.9381 494.903 96.7773 497.774L97.3176 497.779C97.4786 494.906 97.6681 492.041 97.8855 489.184H98.1191V488.644H97.927C98.4187 482.289 99.0493 475.973 99.8158 469.699L99.2779 469.651C98.5097 475.941 97.878 482.273 97.3856 488.644H80.6278ZM100.849 458.096L101.387 458.144C102.853 448.371 104.649 438.705 106.763 429.16L106.246 429C104.122 438.582 102.319 448.284 100.849 458.096ZM112.187 405.41L112.703 405.57C115.04 397.297 117.62 389.126 120.434 381.065L119.947 380.821C117.122 388.909 114.533 397.108 112.187 405.41ZM128.654 358.016L129.138 358.258C135.932 341.887 143.713 326.028 152.407 310.758L151.942 310.482C143.242 325.764 135.454 341.633 128.654 358.016ZM164.556 289.721L165.02 289.997C168.204 285.077 171.486 280.227 174.863 275.449L174.447 275.102C171.053 279.903 167.755 284.777 164.556 289.721ZM179.004 268.78L179.419 269.127C181.94 265.695 184.511 262.301 187.131 258.948L186.716 258.601C184.096 261.955 181.525 265.348 179.004 268.78ZM202.207 239.889L202.621 240.236C210.81 230.894 219.399 221.912 228.361 213.316L227.944 212.968C218.983 221.565 210.395 230.547 202.207 239.889ZM246.12 196.498L246.54 196.849C258.035 187.018 270.058 177.786 282.56 169.201L282.274 168.742C269.724 177.359 257.656 186.628 246.12 196.498ZM302.683 155.563L302.968 156.021C312.213 150.416 321.687 145.152 331.372 140.245L331.122 139.767C321.424 144.68 311.939 149.951 302.683 155.563ZM338.089 136.316L338.339 136.795C343.821 134.143 349.368 131.604 354.976 129.181L354.726 128.701C349.117 131.124 343.57 133.664 338.089 136.316ZM361.914 125.674L362.165 126.155C374.38 121.143 386.879 116.68 399.631 112.796L399.488 112.275C386.699 116.17 374.164 120.646 361.914 125.674ZM422.918 105.866L423.061 106.387C434.232 103.672 445.575 101.396 457.07 99.5773L457.028 99.0375C445.499 100.86 434.122 103.143 422.918 105.866ZM481.151 95.9233L481.193 96.4616C487.728 95.8054 494.306 95.2963 500.924 94.9377L500.892 94.3989C494.271 94.7577 487.689 95.267 481.151 95.9233ZM508.658 94.0478L508.689 94.5868C513.919 94.3974 519.172 94.302 524.447 94.302C532.109 94.302 539.725 94.5034 547.288 94.9013L547.32 94.3625C539.746 93.964 532.12 93.7622 524.447 93.7622C519.161 93.7622 513.897 93.858 508.658 94.0478ZM571.538 96.3212L571.507 96.8608C583.167 98.1366 594.685 99.8809 606.044 102.074L606.171 101.549C594.781 99.3489 583.23 97.5998 571.538 96.3212ZM629.885 106.836L629.757 107.361C642.568 110.604 655.148 114.424 667.469 118.794L667.669 118.292C655.325 113.913 642.72 110.085 629.885 106.836ZM690.323 127.063L690.123 127.564C701.329 132.275 712.291 137.45 722.987 143.064L723.261 142.598C712.541 136.971 701.554 131.784 690.323 127.063ZM730.598 146.541L730.325 147.007C736.354 150.323 742.295 153.78 748.143 157.375L748.416 156.909C742.568 153.315 736.628 149.858 730.598 146.541ZM755.468 161.338L755.195 161.804C764.938 168.057 774.411 174.694 783.592 181.694L783.918 181.264C774.72 174.251 765.23 167.602 755.468 161.338ZM800.102 194.231L799.775 194.661C808.196 201.749 816.34 209.156 824.188 216.864L824.518 216.431C816.668 208.724 808.523 201.318 800.102 194.231ZM839.119 231.48L838.787 231.917C844.976 238.617 850.953 245.515 856.707 252.601L857.2 252.352C851.395 245.2 845.365 238.239 839.119 231.48ZM868.498 266.896L868.009 267.143C874.642 276.066 880.935 285.256 886.87 294.694L887.354 294.45C881.42 285.011 875.129 275.82 868.498 266.896ZM896.673 309.993L896.19 310.237C900.09 317.065 903.808 324.012 907.337 331.07L907.818 330.827C904.29 323.769 900.573 316.822 896.673 309.993ZM915.559 347.167L915.076 347.41C920.633 359.815 925.615 372.532 929.991 385.529L930.507 385.371C926.122 372.345 921.128 359.599 915.559 347.167ZM941.436 423.694L940.919 423.853C943.139 433.301 945.047 442.87 946.629 452.548L947.168 452.499C945.581 442.784 943.666 433.178 941.436 423.694ZM950.035 473.206L949.497 473.255C950.077 478.358 950.568 483.488 950.967 488.644H948.454V489.184H951.008C951.249 492.35 951.456 495.525 951.627 498.71L952.167 498.688C951.996 495.51 951.79 492.342 951.55 489.184H966.783V488.644H951.508C951.108 483.472 950.617 478.325 950.035 473.206ZM998.863 488.644V489.184H1035.82V488.644H998.863ZM952.487 538.554L951.946 538.577C951.766 543.308 951.511 548.02 951.179 552.71H948.454V553.25H951.141C950.868 557.04 950.546 560.815 950.176 564.577L950.71 564.655C951.084 560.868 951.408 557.066 951.682 553.25H965.909V552.71H951.72C952.052 548.012 952.308 543.293 952.487 538.554ZM983.381 552.71V553.25H1000.85V552.71H983.381ZM1018.32 552.71V553.25H1035.82V552.71H1018.32ZM945.166 603.023L944.631 602.945C943.325 609.773 941.857 616.544 940.231 623.253L940.767 623.331C942.393 616.622 943.86 609.851 945.166 603.023ZM932.624 652.393L932.083 652.314C929.481 660.467 926.641 668.514 923.572 676.446L924.064 676.67C927.152 668.691 930.008 660.596 932.624 652.393ZM912.281 704.196L911.79 703.972C903.928 720.689 895.015 736.814 885.137 752.263L885.58 752.572C895.476 737.097 904.405 720.943 912.281 704.196ZM877.262 765.091L876.819 764.782C872.033 771.718 867.047 778.507 861.87 785.139L862.281 785.489C867.469 778.844 872.466 772.042 877.262 765.091ZM852.826 797.173L852.415 796.824C846.39 804.009 840.134 810.993 833.657 817.765L834.028 818.158C840.519 811.372 846.789 804.374 852.826 797.173ZM813.982 837.793L813.611 837.401C804.057 846.168 794.102 854.508 783.778 862.387L784.091 862.828C794.435 854.933 804.409 846.578 813.982 837.793ZM764.941 876.628L764.628 876.188C752.575 884.38 740.082 891.972 727.192 898.923L727.418 899.414C740.339 892.449 752.861 884.839 764.941 876.628ZM706.325 910.043L706.099 909.552C695.57 914.497 684.807 919.026 673.83 923.117L673.94 923.652C684.956 919.549 695.759 915.005 706.325 910.043ZM665.128 926.824L665.018 926.291C659.158 928.328 653.24 930.242 647.267 932.029L647.376 932.56C653.349 930.774 659.267 928.861 665.128 926.824ZM638.44 935.127L638.331 934.597C629.851 936.933 621.266 939.014 612.583 940.833L612.681 941.364C621.367 939.545 629.956 937.463 638.44 935.127ZM583.633 946.405L583.536 945.874C578.135 946.62 572.701 947.265 567.238 947.808V946.115H566.698V947.861C563.351 948.189 559.992 948.479 556.623 948.73L556.619 949.271C559.99 949.021 563.35 948.732 566.698 948.404V963.67L567.238 963.674V948.35C572.734 947.805 578.2 947.156 583.633 946.405ZM567.238 975.439L566.698 975.435V986.968L567.238 986.972V975.439ZM567.238 1013.45L566.698 1013.45V1033.48H567.238V1013.45ZM535.01 950.333L535.013 949.793C532.172 949.862 529.324 949.903 526.469 949.917V893.97C704.344 896.17 793.852 789.798 817.103 734.965H888.46H888.929L888.693 734.56L813.83 605.627C820.892 579.961 824.664 552.933 824.664 525.024C824.664 524.142 824.66 523.261 824.652 522.382H932.217L932.194 521.842H824.647C823.206 381.681 726.64 264.312 596.435 231.219L521.773 102.633L521.538 102.228L521.306 102.635L448.028 230.869C317.119 263.476 219.869 381.182 218.422 521.842H96.6373C96.6382 520.385 96.6463 518.931 96.6617 517.478L96.122 517.473C96.1057 519.017 96.0974 520.563 96.0974 522.112C96.0974 525.52 96.1373 528.92 96.2164 532.309L96.7565 532.315C96.6792 529.013 96.6393 525.702 96.6373 522.382H218.417C218.41 523.261 218.406 524.142 218.406 525.024C218.406 554.903 222.729 583.772 230.784 611.041L160.199 734.562L159.969 734.965H160.434H229.54C254.774 787.869 348.096 891.551 525.929 893.963V949.919C525.435 949.921 524.941 949.921 524.447 949.921C521.353 949.921 518.266 949.889 515.188 949.823L515.173 950.363C518.256 950.428 521.348 950.461 524.447 950.461C524.941 950.461 525.435 950.46 525.929 950.459V951.939H526.469V950.456C529.322 950.443 532.169 950.402 535.01 950.333ZM491.523 956.81L490.984 956.795V963.67L491.523 963.674V956.81ZM491.523 1013.64L490.984 1013.64V1033.48H491.523V1013.64ZM465.297 946.41L465.312 945.867C457.091 944.731 448.945 943.361 440.88 941.764L440.786 942.295C448.877 943.897 457.049 945.271 465.297 946.41ZM430.21 940.062L430.304 939.529C426.53 938.682 422.775 937.785 419.04 936.838L418.947 937.371C422.682 938.317 426.437 939.214 430.21 940.062ZM408.469 934.575L408.563 934.041C402.663 932.384 396.815 930.605 391.021 928.705L390.838 929.213C396.661 931.123 402.539 932.911 408.469 934.575ZM357.593 916.748L357.777 916.24C344.142 910.466 330.868 904.006 318 896.903L317.718 897.364C330.618 904.486 343.924 910.962 357.593 916.748ZM300.585 887.38L300.866 886.919C294.567 883.051 288.377 879.024 282.299 874.844L282.018 875.305C288.095 879.485 294.286 883.512 300.585 887.38ZM275.433 870.686L275.715 870.224C271.155 866.96 266.662 863.608 262.237 860.171L261.954 860.635C266.379 864.071 270.873 867.422 275.433 870.686ZM255.614 855.615L255.898 855.151C248.506 849.183 241.317 842.974 234.342 836.535L233.932 836.892C240.947 843.368 248.178 849.614 255.614 855.615ZM221.623 825.065L222.031 824.71C215.329 818.012 208.848 811.093 202.601 803.965L202.194 804.319C208.441 811.447 214.922 818.367 221.623 825.065ZM194.46 795.244L194.867 794.89C190.262 789.332 185.795 783.656 181.471 777.867L181.063 778.222C185.387 784.011 189.855 789.687 194.46 795.244ZM176.663 772.226L177.072 771.87C172.755 765.877 168.59 759.767 164.581 753.547L164.114 753.818C168.141 760.067 172.326 766.205 176.663 772.226ZM160.151 747.549L160.618 747.278C154.937 738.118 149.593 728.728 144.602 719.125L144.134 719.397C149.126 728.999 154.47 738.389 160.151 747.549ZM137.624 706.332L138.093 706.06C134.433 698.387 130.995 690.587 127.787 682.67L127.271 682.834C130.493 690.788 133.947 698.623 137.624 706.332ZM122.024 669.215L122.54 669.052C120.164 662.554 117.941 655.984 115.875 649.343L115.36 649.507C117.426 656.147 119.649 662.717 122.024 669.215ZM109.471 628.728L109.987 628.565C108.262 621.829 106.697 615.03 105.296 608.171L104.762 608.253C106.168 615.14 107.739 621.966 109.471 628.728ZM102.764 597.802L103.297 597.72C102.89 595.437 102.501 593.148 102.131 590.854L101.597 590.936C101.968 593.231 102.357 595.52 102.764 597.802ZM100.032 580.418L100.566 580.335C99.349 571.392 98.4084 562.361 97.7531 553.25H98.1191V552.71H97.7146C97.6564 551.887 97.6005 551.062 97.547 550.237L97.0057 550.232C97.0593 551.059 97.1152 551.885 97.1735 552.71H80.6326V553.25H97.2119C97.8684 562.388 98.8116 571.447 100.032 580.418ZM816.517 734.965C793.202 789.682 703.877 895.627 526.469 893.43V828.113C610.426 826.774 686.091 791.301 740.194 734.965H816.517ZM739.445 734.965C685.465 790.982 610.087 826.237 526.469 827.573V734.965H739.445ZM525.929 827.582V734.965H303.624C358.665 792.081 435.95 827.613 521.535 827.613C523.002 827.613 524.467 827.602 525.929 827.582ZM739.964 734.426H526.469V653.333C595.097 650.741 649.937 594.286 649.937 525.024C649.937 455.761 595.097 399.307 526.469 396.714V223.912H525.929V396.695C524.47 396.646 523.005 396.621 521.535 396.621C450.62 396.621 393.132 454.109 393.132 525.024C393.132 595.939 450.62 653.426 521.535 653.426C523.005 653.426 524.47 653.402 525.929 653.353V734.426H303.105C270.163 700.071 245.245 657.961 231.367 611.108L282.068 522.382H282.742V521.842H282.377L448.382 231.337C471.807 225.521 496.311 222.435 521.535 222.435C547.26 222.435 572.236 225.645 596.083 231.687L813.25 605.702C799.722 654.723 774.169 698.755 739.964 734.426ZM649.398 525.024C649.398 593.988 594.799 650.201 526.469 652.793V590.838H525.929V652.812C524.47 652.862 523.005 652.887 521.535 652.887C450.918 652.887 393.672 595.64 393.672 525.024C393.672 454.407 450.918 397.161 521.535 397.161C523.005 397.161 524.47 397.186 525.929 397.235V398.639H526.469V397.254C594.799 399.847 649.398 456.059 649.398 525.024ZM230.996 611.757C244.877 658.325 269.65 700.2 302.358 734.426H229.881C229.81 734.275 229.739 734.125 229.669 733.976C229.581 733.789 229.495 733.603 229.409 733.417L228.919 733.644C229.039 733.903 229.161 734.164 229.284 734.426H160.899L230.996 611.757ZM525.929 893.423C348.584 891.015 255.454 787.77 230.138 734.965H302.875C358.037 792.403 435.611 828.153 521.535 828.153C523.002 828.153 524.467 828.142 525.929 828.121V893.423ZM281.447 522.382L231.155 610.391C223.209 583.317 218.946 554.668 218.946 525.024C218.946 524.142 218.949 523.261 218.957 522.382H281.447ZM281.755 521.842H218.962C220.407 381.615 317.237 264.242 447.657 231.518L281.755 521.842ZM521.535 221.895C496.445 221.895 472.068 224.943 448.752 230.689L521.542 103.309L595.704 231.034C571.969 225.065 547.122 221.895 521.535 221.895ZM813.45 604.972L596.815 231.873C726.526 265.084 822.668 382.118 824.108 521.842H766.152V522.382H824.113C824.12 523.261 824.124 524.142 824.124 525.024C824.124 552.698 820.409 579.505 813.45 604.972ZM740.711 734.426C774.68 698.882 800.089 655.088 813.629 606.355L887.991 734.426H817.33C817.441 734.16 817.551 733.896 817.659 733.633L817.16 733.428C817.074 733.636 816.988 733.845 816.9 734.055C816.849 734.178 816.797 734.302 816.745 734.426H740.711ZM218.946 303.704C218.946 294.203 226.648 286.501 236.148 286.501C245.649 286.501 253.351 294.203 253.351 303.704C253.351 313.205 245.649 320.907 236.148 320.907C226.648 320.907 218.946 313.205 218.946 303.704ZM236.148 285.961C226.349 285.961 218.406 293.905 218.406 303.704C218.406 313.503 226.349 321.446 236.148 321.446C245.947 321.446 253.891 313.503 253.891 303.704C253.891 293.905 245.947 285.961 236.148 285.961ZM783.894 303.704C783.894 294.203 791.596 286.501 801.097 286.501C810.598 286.501 818.3 294.203 818.3 303.704C818.3 313.205 810.598 320.907 801.097 320.907C791.596 320.907 783.894 313.205 783.894 303.704ZM801.097 285.961C791.298 285.961 783.354 293.905 783.354 303.704C783.354 313.503 791.298 321.446 801.097 321.446C810.896 321.446 818.839 313.503 818.839 303.704C818.839 293.905 810.896 285.961 801.097 285.961ZM160.704 420.188C160.704 410.687 168.405 402.985 177.906 402.985C187.407 402.985 195.109 410.687 195.109 420.188C195.109 429.689 187.407 437.391 177.906 437.391C168.405 437.391 160.704 429.689 160.704 420.188ZM177.906 402.445C168.107 402.445 160.164 410.389 160.164 420.188C160.164 429.987 168.107 437.93 177.906 437.93C187.705 437.93 195.649 429.987 195.649 420.188C195.649 410.389 187.705 402.445 177.906 402.445ZM842.136 420.188C842.136 410.687 849.838 402.985 859.339 402.985C868.84 402.985 876.542 410.687 876.542 420.188C876.542 429.689 868.84 437.391 859.339 437.391C849.838 437.391 842.136 429.689 842.136 420.188ZM859.339 402.445C849.54 402.445 841.597 410.389 841.597 420.188C841.597 429.987 849.54 437.93 859.339 437.93C869.138 437.93 877.082 429.987 877.082 420.188C877.082 410.389 869.138 402.445 859.339 402.445ZM457.738 525.024C457.738 489.79 486.301 461.227 521.535 461.227C556.769 461.227 585.331 489.79 585.331 525.024C585.331 560.258 556.769 588.82 521.535 588.82C486.301 588.82 457.738 560.258 457.738 525.024ZM521.535 460.688C486.003 460.688 457.199 489.492 457.199 525.024C457.199 560.556 486.003 589.36 521.535 589.36C557.067 589.36 585.871 560.556 585.871 525.024C585.871 489.492 557.067 460.688 521.535 460.688Z" fill="#8F7E77"/>
</svg>
