<svg width="1044" height="1049" viewBox="0 0 1044 1049" fill="none" xmlns="http://www.w3.org/2000/svg">
<g clip-path="url(#clip0_1262_90666)">
<path opacity="0.4" fill-rule="evenodd" clip-rule="evenodd" d="M495.316 28.7608C495.316 13.2909 507.857 0.75 523.327 0.75C538.797 0.75 551.336 13.2908 551.336 28.7608C551.336 44.2308 538.797 56.7716 523.327 56.7716C507.857 56.7716 495.316 44.2308 495.316 28.7608ZM523.327 0.25C507.581 0.25 494.816 13.0147 494.816 28.7608C494.816 44.4237 507.447 57.1366 523.078 57.2706V86.3306C522.334 86.335 521.591 86.3413 520.848 86.3494V86.8494C521.591 86.8413 522.334 86.835 523.078 86.8306V159.922C521.198 159.936 519.32 159.963 517.447 160.005L517.486 160.504C519.346 160.463 521.21 160.436 523.078 160.422V214.554C465.163 215.041 410.992 231.229 364.615 259.069C344.847 248.61 326.02 239.447 308.471 231.46C310.039 230.309 311.617 229.171 313.204 228.045L312.812 227.71C311.181 228.868 309.56 230.039 307.95 231.222C291.721 223.847 276.591 217.48 262.829 212.025C251.062 207.362 240.295 203.366 230.694 199.978C233.389 197.554 236.113 195.162 238.867 192.804L238.498 192.462C235.687 194.87 232.906 197.312 230.157 199.789C219.233 195.943 209.837 192.89 202.218 190.541C195.013 188.32 189.398 186.729 185.583 185.693C183.676 185.175 182.219 184.795 181.238 184.546C180.748 184.421 180.377 184.328 180.128 184.267C180.004 184.236 179.91 184.213 179.847 184.198L179.776 184.181L179.758 184.177C179.756 184.176 179.755 184.176 179.745 184.212C179.74 184.231 179.732 184.262 179.72 184.309L179.752 184.175L179.318 184.072L179.457 184.496C184.914 201.187 190.65 217.484 196.644 233.394C193.603 236.787 190.614 240.228 187.677 243.715L188.045 244.055C190.927 240.632 193.86 237.254 196.842 233.921C206.844 260.431 217.562 285.868 228.895 310.272C224.96 315.625 221.167 321.089 217.52 326.658L217.937 326.934C221.529 321.449 225.264 316.065 229.136 310.789C238.064 329.987 247.372 348.544 257.014 366.482C229.198 412.636 212.935 466.539 212.228 524.187H158.093C158.145 519.198 158.296 514.234 158.545 509.294L158.045 509.28C157.796 514.224 157.645 519.194 157.593 524.187H84.497C84.5327 520.089 84.6242 516.003 84.7709 511.932L84.2704 511.937C84.124 516.007 84.0326 520.09 83.9969 524.187H57.2713L57.2716 524.115V524.048C57.2716 508.302 44.5069 495.537 28.7608 495.537C13.0147 495.537 0.25 508.302 0.25 524.048C0.25 539.794 13.0147 552.559 28.7608 552.559C44.2934 552.559 56.9249 540.138 57.2646 524.687H83.9929C83.9842 525.827 83.9799 526.967 83.9799 528.109C83.9799 529.862 83.9901 531.613 84.0105 533.362L84.5105 533.357C84.4901 531.61 84.4799 529.861 84.4799 528.109C84.4799 526.967 84.4842 525.827 84.4929 524.687H157.588C157.577 525.827 157.572 526.967 157.572 528.109C157.572 529.928 157.585 531.744 157.612 533.557L158.112 533.571C158.085 531.754 158.072 529.933 158.072 528.109C158.072 526.967 158.077 525.827 158.088 524.687H212.222C212.21 525.826 212.204 526.967 212.204 528.109C212.204 585.25 227.488 638.821 254.19 684.957C244.664 703.432 235.546 722.553 226.894 742.34C225.653 740.613 224.427 738.874 223.217 737.125L222.846 737.468C224.102 739.282 225.373 741.083 226.661 742.873C215.693 767.995 205.477 794.19 196.13 821.5C194.534 819.708 192.952 817.903 191.385 816.085L191.006 816.411C192.636 818.302 194.282 820.18 195.944 822.043C191.488 835.086 187.229 848.383 183.182 861.938L183.059 862.351L183.478 862.253L183.421 862.01C183.478 862.253 183.48 862.253 183.484 862.252L183.501 862.248L183.57 862.232C183.63 862.217 183.721 862.196 183.841 862.167C184.081 862.109 184.439 862.022 184.913 861.904C185.86 861.668 187.268 861.309 189.111 860.817C192.798 859.833 198.228 858.318 205.203 856.191C210.455 854.589 216.583 852.641 223.503 850.311C227.008 853.601 230.567 856.834 234.179 860.009L234.545 859.665C230.992 856.542 227.491 853.363 224.041 850.13C235.389 846.299 248.835 841.453 264.013 835.444C275.441 830.919 287.85 825.734 301.085 819.827C305.621 823.326 310.242 826.722 314.943 830.011L315.318 829.663C310.667 826.411 306.094 823.054 301.603 819.595C318.876 811.873 337.546 802.922 357.269 792.602C405.231 823.221 462.077 841.152 523.078 841.665V895.797C521.479 895.785 519.883 895.764 518.289 895.732V896.232C519.883 896.264 521.479 896.285 523.078 896.297V969.388C522.214 969.383 521.35 969.375 520.487 969.365L520.449 969.864C521.324 969.875 522.201 969.882 523.078 969.888V991.549C507.447 991.683 494.816 1004.39 494.816 1020.06C494.816 1035.81 507.581 1048.57 523.327 1048.57C539.073 1048.57 551.836 1035.81 551.836 1020.06C551.836 1004.39 539.208 991.684 523.578 991.549V969.89C524.307 969.894 525.036 969.896 525.766 969.896C528.24 969.896 530.708 969.875 533.172 969.835V969.335C530.708 969.375 528.24 969.396 525.766 969.396C525.036 969.396 524.307 969.394 523.578 969.39V896.3C524.014 896.302 524.45 896.304 524.887 896.305C525.181 896.306 525.475 896.306 525.769 896.306C528.405 896.306 531.035 896.279 533.657 896.224L533.619 895.724C531.009 895.779 528.392 895.806 525.769 895.806C525.038 895.806 524.308 895.804 523.578 895.8V841.669C524.308 841.674 525.039 841.676 525.771 841.676C587.039 841.676 644.204 824.104 692.5 793.725C712.544 804.024 731.433 812.89 748.787 820.475C746.573 822.166 744.339 823.833 742.085 825.475L742.383 825.877C744.713 824.179 747.022 822.454 749.311 820.704C759.79 825.276 769.706 829.381 778.976 833.051C797.993 840.581 814.291 846.284 827.15 850.451C822.374 854.919 817.498 859.281 812.527 863.535L812.896 863.877C817.928 859.57 822.862 855.152 827.693 850.627C831.346 851.807 834.716 852.862 837.786 853.799C844.761 855.926 850.191 857.441 853.878 858.425C855.721 858.917 857.129 859.276 858.076 859.512C858.55 859.63 858.908 859.717 859.148 859.775C859.268 859.804 859.359 859.825 859.419 859.84L859.488 859.856L859.505 859.86C859.507 859.86 859.508 859.86 859.511 859.85C859.517 859.831 859.53 859.778 859.566 859.627L859.511 859.861L859.93 859.959L859.807 859.546C856.646 848.959 853.356 838.529 849.944 828.255C853.403 824.52 856.798 820.726 860.128 816.874L859.761 816.534C856.491 820.317 853.158 824.044 849.764 827.713C840.71 800.502 830.796 774.382 820.135 749.315C821.314 747.75 822.48 746.174 823.634 744.589L823.216 744.313C822.125 745.812 821.022 747.302 819.909 748.784C811.515 729.078 802.66 710.022 793.398 691.598C822.541 643.995 839.34 588.014 839.34 528.109C839.34 526.967 839.334 525.826 839.321 524.687H893.449C893.459 525.827 893.464 526.967 893.464 528.109C893.464 530.56 893.44 533.005 893.393 535.444L893.892 535.458C893.94 533.014 893.964 530.565 893.964 528.109C893.964 526.967 893.959 525.827 893.949 524.687H967.041C967.049 525.827 967.054 526.967 967.054 528.109C967.054 531.731 967.01 535.343 966.923 538.945L967.424 538.939C967.51 535.34 967.554 531.729 967.554 528.109C967.554 526.967 967.549 525.827 967.541 524.687H986.604C986.737 540.319 999.448 552.949 1015.11 552.949C1030.86 552.949 1043.62 540.184 1043.62 524.438C1043.62 508.692 1030.86 495.927 1015.11 495.927C999.449 495.927 986.738 508.557 986.604 524.187H967.537C967.521 522.437 967.496 520.69 967.461 518.945L966.961 518.959C966.996 520.7 967.021 522.442 967.037 524.187H893.944C893.936 523.455 893.926 522.723 893.914 521.992L893.414 521.978C893.426 522.714 893.436 523.45 893.444 524.187H839.316C838.576 463.883 820.814 407.677 790.611 360.153C800.015 342.259 809.088 323.759 817.784 304.633C821.262 309.172 824.637 313.793 827.904 318.494L828.324 318.222C824.998 313.437 821.561 308.734 818.018 304.117C829.077 279.759 839.523 254.387 849.26 227.963C852.93 231.915 856.527 235.936 860.051 240.021L860.431 239.695C856.847 235.541 853.188 231.454 849.454 227.436C854.329 214.186 859.026 200.672 863.533 186.888L863.671 186.463L863.237 186.567L863.295 186.81C863.237 186.567 863.235 186.567 863.231 186.568L863.213 186.573L863.142 186.59C863.079 186.605 862.986 186.628 862.861 186.658C862.612 186.72 862.241 186.812 861.751 186.937C860.77 187.187 859.313 187.566 857.406 188.084C853.591 189.12 847.976 190.711 840.771 192.933C835.104 194.68 828.453 196.817 820.922 199.38C818.396 197.111 815.845 194.871 813.268 192.66L812.884 192.989C815.407 195.153 817.906 197.345 820.379 199.565C808.878 203.488 795.352 208.396 780.161 214.417C768.488 219.043 755.833 224.325 742.357 230.323C741.368 229.602 740.374 228.885 739.377 228.174L739.002 228.521C739.948 229.195 740.891 229.874 741.83 230.558C724.182 238.424 705.136 247.513 685.057 257.955C638.374 230.371 583.92 214.543 525.771 214.543C525.039 214.543 524.308 214.545 523.578 214.55V160.419C524.308 160.415 525.038 160.412 525.769 160.412C528.243 160.412 530.71 160.437 533.172 160.486V159.985C530.71 159.937 528.243 159.912 525.769 159.912C525.038 159.912 524.308 159.915 523.578 159.919V86.8279C524.307 86.8243 525.036 86.8225 525.766 86.8225C528.622 86.8225 531.471 86.8497 534.314 86.9037L534.353 86.4043C531.497 86.3499 528.635 86.3225 525.766 86.3225C525.036 86.3225 524.307 86.3243 523.578 86.3279V57.2706C539.209 57.136 551.836 44.4233 551.836 28.7608C551.836 13.0147 539.073 0.25 523.327 0.25ZM545.1 86.738L545.061 87.2368C550.742 87.4812 556.394 87.8329 562.017 88.2901L562.056 87.7916C556.433 87.3344 550.78 86.9826 545.1 86.738ZM575.015 89.0366L574.976 89.5355C580.167 90.1114 585.33 90.7773 590.465 91.5317L590.596 91.0455C585.431 90.286 580.236 89.6158 575.015 89.0366ZM604.436 93.3062L604.305 93.7908C608.369 94.5208 612.414 95.3065 616.438 96.147L616.559 95.6612C612.538 94.8213 608.497 94.036 604.436 93.3062ZM632.83 99.3842L632.71 99.8697C635.426 100.546 638.132 101.247 640.827 101.973L640.947 101.487C638.252 100.761 635.546 100.06 632.83 99.3842ZM643.809 102.268L643.689 102.754C646.64 103.571 649.579 104.417 652.506 105.293L652.626 104.807C649.7 103.931 646.761 103.085 643.809 102.268ZM655.468 105.668L655.347 106.154C657.785 106.902 660.214 107.67 662.633 108.458L662.829 107.996C660.385 107.199 657.931 106.423 655.468 105.668ZM670.59 110.607L670.395 111.068C673.64 112.194 676.867 113.356 680.078 114.554L680.293 114.101C677.076 112.899 673.842 111.735 670.59 110.607ZM687.937 117.037L687.722 117.489C696.867 121.099 705.863 125.006 714.697 129.197L714.911 128.745C706.077 124.554 697.082 120.647 687.937 117.037ZM731.474 137.035L731.259 137.487C733.136 138.476 735.005 139.479 736.866 140.495L737.081 140.042C735.22 139.027 733.351 138.024 731.474 137.035ZM741.007 142.21L740.792 142.663C745.541 145.318 750.236 148.058 754.875 150.882L755.212 150.502C750.533 147.653 745.797 144.888 741.007 142.21ZM759.081 152.885L758.745 153.265C763.154 156.011 767.511 158.833 771.815 161.729L772.149 161.351C767.847 158.455 763.49 155.632 759.081 152.885ZM779.203 166.198L778.869 166.575C781.622 168.506 784.352 170.467 787.058 172.459L787.416 172.102C784.702 170.103 781.964 168.135 779.203 166.198ZM798.123 180.237L797.767 180.593C799.693 182.103 801.607 183.629 803.508 185.17L803.893 184.839C801.983 183.29 800.059 181.755 798.123 180.237ZM807.632 187.906L807.247 188.237C808.051 188.903 808.852 189.571 809.65 190.243L810.034 189.913C809.236 189.241 808.435 188.572 807.632 187.906ZM542.467 160.284V160.785C547.135 160.994 551.78 161.289 556.401 161.67V161.169C551.78 160.788 547.135 160.493 542.467 160.284ZM574.99 163.174V163.678C580.585 164.427 586.14 165.301 591.653 166.299L591.754 165.809C586.208 164.805 580.619 163.926 574.99 163.174ZM614.477 170.669L614.376 171.159C620.583 172.695 626.728 174.389 632.807 176.235L632.983 175.766C626.88 173.912 620.71 172.211 614.477 170.669ZM655.002 183.231L654.825 183.699C659.757 185.548 664.639 187.5 669.467 189.552L669.727 189.119C664.871 187.054 659.962 185.091 655.002 183.231ZM678.57 193.018L678.311 193.449C683.007 195.593 687.649 197.833 692.237 200.166L692.508 199.743C687.916 197.407 683.27 195.164 678.57 193.018ZM709.07 208.712L708.8 209.133C712.857 211.466 716.866 213.875 720.824 216.356L721.134 215.961C717.163 213.47 713.141 211.053 709.07 208.712ZM726.228 219.214L725.919 219.609C728.624 221.368 731.305 223.162 733.961 224.989L734.337 224.641C731.66 222.797 728.956 220.988 726.228 219.214ZM863.154 242.883L862.774 243.208C864.404 245.134 866.017 247.074 867.614 249.028L867.994 248.702C866.397 246.748 864.783 244.808 863.154 242.883ZM876.073 258.887L875.693 259.213C881.581 266.863 887.223 274.712 892.609 282.748L893.026 282.472C887.629 274.419 881.974 266.553 876.073 258.887ZM905.258 301.786L904.84 302.062C907.415 306.37 909.918 310.726 912.348 315.127L912.822 314.952C910.374 310.516 907.852 306.127 905.258 301.786ZM923.42 335.4L922.949 335.574C924.122 337.99 925.274 340.419 926.404 342.86L926.875 342.685C925.745 340.244 924.593 337.816 923.42 335.4ZM931.574 353.193L931.105 353.367C933.329 358.519 935.457 363.721 937.488 368.973L937.984 368.866C935.945 363.592 933.808 358.367 931.574 353.193ZM941.266 377.634L940.772 377.74C942.333 382.046 943.828 386.384 945.258 390.752L945.749 390.647C944.321 386.279 942.826 381.941 941.266 377.634ZM948.194 398.361L947.703 398.467C949.733 405.08 951.611 411.76 953.335 418.502L953.824 418.397C952.101 411.655 950.223 404.975 948.194 398.361ZM957.395 433.478L956.906 433.583C957.971 438.46 958.954 443.367 959.856 448.303L960.345 448.198C959.443 443.262 958.46 438.355 957.395 433.478ZM962.864 463.505L962.374 463.61C962.865 466.968 963.319 470.338 963.735 473.72L964.226 473.615C963.81 470.233 963.356 466.863 962.864 463.505ZM964.876 479.193L964.385 479.298C964.747 482.591 965.073 485.895 965.363 489.209L965.863 489.195C965.571 485.85 965.242 482.516 964.876 479.193ZM966.315 494.774L965.815 494.789C966.089 498.468 966.319 502.161 966.503 505.866L967.003 505.851C966.819 502.147 966.589 498.454 966.315 494.774ZM833.505 325.879L833.085 326.151C838.164 333.864 842.96 341.778 847.458 349.881L847.921 349.684C843.409 341.555 838.599 333.616 833.505 325.879ZM852.323 357.856L851.861 358.053C853.816 361.793 855.708 365.571 857.536 369.386L857.997 369.19C856.169 365.375 854.277 361.597 852.323 357.856ZM863.5 381.227L863.04 381.423C865.334 386.689 867.508 392.02 869.558 397.412L870.054 397.307C867.992 391.884 865.807 386.523 863.5 381.227ZM878.895 423.51L878.419 423.666C879.232 426.415 880.014 429.178 880.764 431.954L881.254 431.85C880.499 429.056 879.713 426.276 878.895 423.51ZM884.475 444.692L883.985 444.796C884.594 447.423 885.174 450.061 885.726 452.71L886.223 452.643C885.669 449.982 885.086 447.332 884.475 444.692ZM888.69 465.661L888.194 465.728C888.867 469.666 889.478 473.626 890.024 477.605L890.53 477.611C889.981 473.607 889.367 469.623 888.69 465.661ZM891.174 482.556L890.67 482.55C891.152 486.453 891.573 490.375 891.932 494.314L892.435 494.32C892.076 490.38 891.656 486.458 891.174 482.556ZM892.851 499.262L892.349 499.257C892.652 503.161 892.894 507.082 893.074 511.019L893.575 511.033C893.395 507.093 893.154 503.169 892.851 499.262ZM967.242 544.853L966.742 544.858C966.622 548.061 966.468 551.256 966.281 554.442L966.782 554.437C966.969 551.251 967.123 548.056 967.242 544.853ZM966.395 560.352L965.893 560.357C965.569 564.844 965.178 569.313 964.721 573.762L965.217 573.829C965.676 569.356 966.07 564.863 966.395 560.352ZM963.315 589.555L962.819 589.488C961.919 595.954 960.879 602.376 959.702 608.75L960.182 608.908C961.365 602.504 962.411 596.052 963.315 589.555ZM957 624.534L956.522 624.377C955.209 630.278 953.778 636.135 952.231 641.945L952.707 642.102C954.254 636.292 955.686 630.435 957 624.534ZM944.211 670.188L943.736 670.032C941.131 677.705 938.321 685.284 935.312 692.762L935.759 692.992C938.778 685.49 941.598 677.886 944.211 670.188ZM932.61 700.606L932.164 700.377C930.14 705.146 928.034 709.872 925.849 714.554L926.294 714.783C928.48 710.101 930.586 705.375 932.61 700.606ZM921.268 725.19L920.823 724.961C918.977 728.659 917.081 732.326 915.135 735.964L915.58 736.193C917.525 732.555 919.422 728.887 921.268 725.19ZM907.609 750.453L907.163 750.224C905.265 753.475 903.327 756.701 901.349 759.899L901.795 760.128C903.773 756.93 905.711 753.704 907.609 750.453ZM897.147 767.482L896.701 767.252C894.991 769.899 893.253 772.527 891.489 775.134L891.924 775.383C893.692 772.769 895.434 770.136 897.147 767.482ZM881.569 790.038L881.132 789.788C877.894 794.177 874.578 798.504 871.184 802.767L871.552 803.107C874.97 798.815 878.309 794.458 881.569 790.038ZM893.641 543.687L893.141 543.672C892.97 547.77 892.733 551.851 892.429 555.913L892.929 555.927C893.233 551.865 893.47 547.785 893.641 543.687ZM892.551 560.589L892.051 560.574C891.82 563.212 891.561 565.841 891.275 568.462L891.767 568.567C892.057 565.916 892.318 563.256 892.551 560.589ZM891.227 573.228L890.737 573.123C890.392 575.948 890.015 578.763 889.606 581.568L890.096 581.673C890.505 578.868 890.882 576.053 891.227 573.228ZM888.001 594.462L887.512 594.357C886.762 598.481 885.943 602.581 885.056 606.655L885.545 606.76C886.432 602.686 887.251 598.586 888.001 594.462ZM882.569 619.36L882.08 619.255C880.643 624.887 879.077 630.468 877.384 635.993L877.874 636.098C879.567 630.573 881.133 624.992 882.569 619.36ZM875.835 642.543L875.343 642.438C873.705 647.45 871.962 652.415 870.116 657.33L870.611 657.436C872.455 652.521 874.197 647.556 875.835 642.543ZM869.353 660.74L868.858 660.634C867.198 664.927 865.461 669.18 863.647 673.393L864.117 673.567C865.94 669.332 867.686 665.056 869.353 660.74ZM860.199 682.348L859.729 682.174C856.681 688.77 853.443 695.26 850.023 701.638L850.496 701.814C853.915 695.435 857.152 688.944 860.199 682.348ZM840.908 718.623L840.43 718.446C838.359 721.863 836.233 725.245 834.054 728.588L834.471 728.864C836.671 725.488 838.817 722.074 840.908 718.623ZM807.344 868.551L806.974 868.209C803.366 871.195 799.709 874.126 796.006 876.999L796.276 877.421C800.014 874.523 803.704 871.566 807.344 868.551ZM790.53 881.803L790.26 881.381C784.224 885.908 778.068 890.283 771.797 894.502L772.067 894.923C778.337 890.704 784.494 886.329 790.53 881.803ZM753.097 906.997L752.827 906.575C743.409 912.238 733.762 917.559 723.903 922.521L724.162 922.951C734.024 917.986 743.675 912.662 753.097 906.997ZM713.804 927.997L713.545 927.566C707.538 930.395 701.456 933.092 695.305 935.654L695.481 936.122C701.661 933.549 707.77 930.839 713.804 927.997ZM669.477 945.996L669.3 945.528C660.333 948.61 651.235 951.412 642.018 953.923L642.118 954.414C651.362 951.897 660.485 949.088 669.477 945.996ZM615.048 960.87L614.947 960.38C604.508 962.522 593.933 964.296 583.239 965.687V966.191C593.967 964.798 604.575 963.019 615.048 960.87ZM551.248 969.173V968.672C548.937 968.804 546.62 968.918 544.299 969.014V969.514C546.62 969.418 548.937 969.305 551.248 969.173ZM730.169 834.406L729.871 834.004C725.615 836.849 721.297 839.608 716.918 842.278L717.217 842.681C721.595 840.01 725.914 837.251 730.169 834.406ZM713.574 844.874L713.275 844.47C712.252 845.078 711.226 845.68 710.197 846.278L710.497 846.682C711.526 846.084 712.552 845.481 713.574 844.874ZM706.8 848.802L706.5 848.397C705.31 849.07 704.115 849.737 702.916 850.397L703.217 850.803C704.415 850.142 705.61 849.475 706.8 848.802ZM692.363 856.55L692.061 856.142C689.503 857.441 686.928 858.712 684.336 859.952L684.469 860.443C687.118 859.176 689.749 857.878 692.363 856.55ZM673.277 865.568L673.145 865.08C669.354 866.741 665.529 868.339 661.673 869.874L661.804 870.36C665.661 868.826 669.485 867.228 673.277 865.568ZM640.291 878.148L640.16 877.664C625.45 882.475 610.331 886.383 594.869 889.323L595 889.808C601.77 888.52 608.475 887.046 615.108 885.393L628.55 881.76L628.553 881.768C632.493 880.625 636.406 879.418 640.291 878.148ZM584.245 891.688L584.114 891.203C578.64 892.076 573.127 892.827 567.576 893.456L567.614 893.955C573.197 893.323 578.741 892.567 584.245 891.688ZM556.791 895.018L556.752 894.519C552.057 894.911 547.338 895.215 542.595 895.428L542.634 895.927C547.377 895.713 552.096 895.41 556.791 895.018ZM509.696 969.609L509.734 969.11C504.743 968.932 499.772 968.67 494.824 968.328L494.785 968.826C499.733 969.169 504.704 969.43 509.696 969.609ZM484.08 967.955L484.119 967.456C476.453 966.739 468.844 965.825 461.297 964.72L461.258 965.22C468.805 966.324 476.414 967.237 484.08 967.955ZM450.616 963.53L450.655 963.029C446.814 962.37 442.989 961.662 439.182 960.905L439.068 961.392C442.9 962.154 446.75 962.867 450.616 963.53ZM434.899 960.541L435.013 960.054C432.896 959.612 430.785 959.154 428.679 958.681L428.566 959.168C430.671 959.641 432.782 960.099 434.899 960.541ZM424.42 958.217L424.534 957.73C419.876 956.636 415.247 955.469 410.648 954.23L410.534 954.717C415.134 955.956 419.763 957.123 424.42 958.217ZM402.229 952.392L402.343 951.904C395.581 949.938 388.885 947.814 382.261 945.537L382.147 946.027C388.771 948.303 395.467 950.426 402.229 952.392ZM373.976 943.129L374.09 942.638C369.56 940.98 365.064 939.25 360.605 937.449L360.49 937.942C364.949 939.742 369.445 941.471 373.976 943.129ZM349.298 933.243L349.413 932.748C344.393 930.557 339.422 928.275 334.501 925.905L334.258 926.343C339.22 928.734 344.234 931.034 349.298 933.243ZM323.538 920.997L323.781 920.56C318.965 918.076 314.201 915.507 309.491 912.854L309.248 913.291C313.959 915.944 318.722 918.514 323.538 920.997ZM303.444 909.963L303.687 909.525C302.033 908.56 300.386 907.585 298.746 906.599L298.503 907.037C300.143 908.022 301.79 908.998 303.444 909.963ZM292.79 903.544L293.033 903.106C287.875 899.898 282.787 896.586 277.774 893.173L277.53 893.612C282.544 897.024 287.632 900.336 292.79 903.544ZM267.477 886.566L267.721 886.125C264.763 883.99 261.833 881.818 258.93 879.611L258.561 879.959C261.504 882.197 264.476 884.4 267.477 886.566ZM248.833 872.344L249.201 871.998C246.356 869.707 243.539 867.38 240.752 865.02L240.385 865.365C243.172 867.725 245.988 870.052 248.833 872.344ZM508.994 895.931V895.43C504.326 895.221 499.681 894.924 495.06 894.542V895.044C499.681 895.425 504.326 895.722 508.994 895.931ZM476.471 893.035V892.53C471.186 891.822 465.936 891.001 460.724 890.071L460.623 890.561C465.868 891.497 471.152 892.323 476.471 893.035ZM437.889 885.754L437.99 885.263C432.009 883.798 426.085 882.187 420.222 880.433L420.045 880.902C425.933 882.664 431.882 884.282 437.889 885.754ZM397.992 873.53L398.168 873.062C393.474 871.325 388.824 869.495 384.222 867.573L383.961 868.007C388.591 869.94 393.269 871.782 397.992 873.53ZM375.087 864.161L375.346 863.73C370.67 861.63 366.046 859.437 361.475 857.15L361.204 857.574C365.778 859.863 370.406 862.059 375.087 864.161ZM344.574 848.71L344.844 848.288C340.881 846.044 336.963 843.728 333.092 841.342L332.782 841.738C336.665 844.133 340.597 846.457 344.574 848.71ZM327.659 838.521L327.969 838.125C325.425 836.499 322.903 834.842 320.402 833.155L320.025 833.504C322.548 835.207 325.093 836.879 327.659 838.521ZM181.216 804.65L181.596 804.324C173.384 794.105 165.618 783.513 158.327 772.576L157.91 772.852C165.212 783.806 172.991 794.415 181.216 804.65ZM151.194 762.466L151.611 762.19C148.463 757.168 145.413 752.079 142.464 746.924L142.017 747.15C144.975 752.322 148.035 757.428 151.194 762.466ZM131.006 726.665L131.478 726.49C129.645 722.854 127.861 719.19 126.126 715.497L125.684 715.732C127.409 719.404 129.183 723.049 131.006 726.665ZM120.928 705.252L121.37 705.017C119.953 701.781 118.573 698.525 117.231 695.249L116.735 695.355C118.093 698.675 119.491 701.974 120.928 705.252ZM115.145 691.418L115.641 691.311C113.808 686.708 112.05 682.067 110.368 677.389L109.875 677.495C111.556 682.173 113.313 686.814 115.145 691.418ZM106.53 667.831L107.022 667.725C104.83 661.149 102.789 654.504 100.903 647.794L100.413 647.9C102.299 654.609 104.339 661.254 106.53 667.831ZM96.4813 632.896L96.9705 632.791C95.7904 627.94 94.6904 623.058 93.6721 618.146L93.1831 618.25C94.2015 623.163 95.3013 628.045 96.4813 632.896ZM90.3049 603.021L90.7943 602.916C90.2239 599.575 89.6911 596.222 89.1963 592.856L88.7063 592.962C89.2014 596.327 89.7344 599.68 90.3049 603.021ZM87.9258 587.412L88.4162 587.306C87.9651 583.942 87.5519 580.565 87.177 577.176L86.6755 577.19C87.0534 580.609 87.4703 584.017 87.9258 587.412ZM86.0949 571.614L86.5959 571.6C86.2362 567.923 85.9217 564.233 85.6528 560.53L85.1525 560.545C85.4212 564.247 85.7355 567.938 86.0949 571.614ZM84.3961 547.459L84.8959 547.445C84.8281 545.871 84.7685 544.295 84.7171 542.717L84.217 542.722C84.2684 544.303 84.3281 545.882 84.3961 547.459ZM219.329 732.296L219.701 731.952C218.549 730.226 217.411 728.489 216.287 726.742L215.84 726.972C216.988 728.757 218.151 730.532 219.329 732.296ZM211.971 720.822L212.417 720.592C211.061 718.39 209.728 716.172 208.418 713.939L207.973 714.168C209.283 716.401 210.616 718.619 211.971 720.822ZM201.285 702.27L201.73 702.042C200.358 699.491 199.016 696.923 197.703 694.337L197.258 694.565C198.571 697.151 199.914 699.72 201.285 702.27ZM193.002 685.901L193.447 685.672C191.977 682.577 190.548 679.458 189.163 676.317L188.718 676.546C190.103 679.688 191.531 682.806 193.002 685.901ZM186.002 670.229L186.448 669.999C184.645 665.691 182.921 661.342 181.278 656.953L180.803 657.109C182.454 661.523 184.188 665.897 186.002 670.229ZM172.991 633.881L173.466 633.725C172.588 630.792 171.745 627.843 170.939 624.879L170.449 624.983C171.26 627.964 172.107 630.931 172.991 633.881ZM167.206 612.145L167.695 612.042C167.051 609.283 166.438 606.512 165.856 603.729L165.359 603.797C165.943 606.591 166.559 609.374 167.206 612.145ZM162.884 590.779L163.38 590.713C162.66 586.513 162.011 582.289 161.434 578.042L160.929 578.037C161.508 582.308 162.16 586.556 162.884 590.779ZM160.292 573.092L160.797 573.097C160.321 569.194 159.906 565.273 159.553 561.333L159.05 561.328C159.403 565.268 159.817 569.189 160.292 573.092ZM158.642 556.386L159.144 556.391C158.844 552.454 158.607 548.5 158.432 544.529L157.931 544.515C158.105 548.488 158.342 552.446 158.642 556.386ZM84.5224 506.023L85.0232 506.018C85.2525 501.368 85.5537 496.737 85.9258 492.126L85.4296 492.059C85.0553 496.694 84.7525 501.349 84.5224 506.023ZM86.9872 476.286L87.4828 476.353C88.2703 469.612 89.2098 462.917 90.2977 456.272L89.8168 456.114C88.7228 462.789 87.7784 469.514 86.9872 476.286ZM92.6889 440.386L93.1673 440.544C94.3628 434.605 95.6775 428.71 97.1088 422.86L96.6323 422.704C95.2005 428.553 93.8851 434.448 92.6889 440.386ZM104.565 394.433L105.04 394.589C107.585 386.564 110.352 378.638 113.336 370.819L112.889 370.589C109.894 378.432 107.117 386.382 104.565 394.433ZM115.905 362.906L116.351 363.135C118.292 358.324 120.314 353.556 122.418 348.83L121.972 348.601C119.869 353.326 117.845 358.095 115.905 362.906ZM126.814 338.099L127.259 338.328C129.039 334.598 130.87 330.896 132.75 327.224L132.305 326.996C130.425 330.668 128.594 334.369 126.814 338.099ZM140.017 312.602L140.462 312.831C142.3 309.549 144.178 306.293 146.097 303.064L145.651 302.835C143.733 306.064 141.855 309.32 140.017 312.602ZM150.161 295.409L150.607 295.639C152.327 292.868 154.077 290.118 155.857 287.389L155.422 287.141C153.639 289.876 151.885 292.632 150.161 295.409ZM165.51 272.333L165.946 272.582C169.463 267.638 173.08 262.77 176.793 257.98L176.424 257.639C172.688 262.459 169.048 267.357 165.51 272.333ZM158.309 504.616L158.81 504.63C159.01 501.447 159.251 498.275 159.532 495.115L159.04 495.009C158.755 498.2 158.512 501.402 158.309 504.616ZM159.487 490.329L159.979 490.434C160.267 487.598 160.588 484.771 160.941 481.954L160.45 481.848C160.097 484.665 159.776 487.492 159.487 490.329ZM162.291 469.005L162.78 469.11C163.409 465.214 164.098 461.338 164.848 457.484L164.358 457.386C163.608 461.238 162.919 465.111 162.291 469.005ZM167.063 444.686L167.554 444.784C168.87 439.104 170.317 433.475 171.893 427.899L171.401 427.802C169.826 433.377 168.379 439.007 167.063 444.686ZM173.304 421.298L173.796 421.396C174.897 417.761 176.052 414.15 177.261 410.565L176.766 410.466C175.558 414.052 174.404 417.663 173.304 421.298ZM179.398 402.929L179.894 403.028C181.615 398.272 183.43 393.561 185.339 388.899L184.865 388.736C182.948 393.419 181.125 398.151 179.398 402.929ZM188.658 379.807L189.133 379.971C190.483 376.906 191.875 373.863 193.306 370.843L192.83 370.679C191.399 373.7 190.008 376.743 188.658 379.807ZM200.075 356.217L200.554 356.382C202.911 351.927 205.358 347.525 207.891 343.181L207.473 342.905C204.918 347.285 202.451 351.724 200.075 356.217ZM244.048 187.785L244.418 188.128C247.205 185.819 250.021 183.543 252.865 181.302L252.594 180.879C249.716 183.146 246.867 185.449 244.048 187.785ZM258.31 176.451L258.581 176.873C264.585 172.299 270.71 167.875 276.95 163.607L276.68 163.186C270.44 167.454 264.315 171.877 258.31 176.451ZM295.558 150.968L295.828 151.389C305.281 145.607 314.968 140.171 324.872 135.098L324.614 134.668C314.706 139.744 305.015 145.183 295.558 150.968ZM334.93 129.553L335.189 129.983C341.732 126.845 348.366 123.864 355.083 121.044L354.907 120.575C348.161 123.407 341.5 126.401 334.93 129.553ZM380.883 110.628L381.06 111.096C390.532 107.81 400.15 104.837 409.903 102.19L409.802 101.699C400.024 104.352 390.38 107.333 380.883 110.628ZM436.878 95.2681L436.978 95.7579C448.1 93.4861 459.373 91.6327 470.782 90.2147V89.7108C459.339 91.1314 448.032 92.9896 436.878 95.2681ZM493.035 87.5167V88.0181C498.569 87.6123 504.132 87.3086 509.722 87.1088V86.6085C504.133 86.808 498.569 87.1114 493.035 87.5167ZM323.451 220.429L323.847 220.768C328.065 217.991 332.344 215.298 336.681 212.693L336.436 212.257C332.048 214.893 327.719 217.618 323.451 220.429ZM353.718 202.499L353.963 202.936C358.598 200.482 363.291 198.124 368.041 195.865L367.796 195.428C363.046 197.687 358.353 200.045 353.718 202.499ZM376.107 191.601L376.353 192.039C381.105 189.923 385.91 187.905 390.765 185.988L390.61 185.511C385.724 187.44 380.889 189.471 376.107 191.601ZM399.145 182.264L399.3 182.74C402.9 181.421 406.526 180.157 410.177 178.949L409.988 178.485C406.348 179.69 402.734 180.95 399.145 182.264ZM426.534 173.44L426.723 173.906C430.738 172.786 434.781 171.732 438.851 170.746L438.812 170.241C434.692 171.238 430.598 172.305 426.534 173.44ZM455.805 166.551L455.844 167.053C462.323 165.806 468.862 164.728 475.457 163.826L475.419 163.327C468.824 164.228 462.284 165.305 455.805 166.551ZM494.316 161.237L494.354 161.736C499.048 161.338 503.768 161.03 508.51 160.81L508.471 160.312C503.729 160.531 499.01 160.84 494.316 161.237ZM365.131 259.342C411.376 231.643 465.365 215.54 523.078 215.054V361.868L523.022 361.912C501.115 344.691 479.314 328.996 457.935 314.715C425.676 293.167 394.379 274.838 365.131 259.342ZM523.578 215.05V361.478C544.269 345.362 564.85 330.603 585.054 317.107C619.781 293.91 653.393 274.444 684.534 258.228C637.985 230.786 583.716 215.043 525.771 215.043C525.039 215.043 524.308 215.045 523.578 215.05ZM523.578 362.112V362.349C578.305 405.433 633.672 458.047 684.738 521.941C722.431 474.503 758.136 420.827 790.033 360.176C763.552 318.593 727.526 283.682 685.041 258.527C653.838 274.764 620.145 294.268 585.332 317.522C565.037 331.079 544.362 345.91 523.578 362.112ZM523.078 362.592L523.021 362.547C467.905 405.572 412.04 458.242 360.483 522.348C360.974 522.962 361.466 523.575 361.958 524.187H494.817C494.817 524.141 494.816 524.095 494.816 524.048C494.816 508.385 507.447 495.673 523.078 495.539V362.592ZM457.658 315.131C478.995 329.384 500.753 345.046 522.616 362.229C467.53 405.242 411.697 457.886 360.163 521.948C323.584 476.197 288.841 424.603 257.589 366.496C284.01 322.748 320.832 285.988 364.63 259.643C393.94 275.161 425.316 293.527 457.658 315.131ZM257.289 366.994C288.539 425.059 323.274 476.62 359.842 522.347C359.503 522.77 359.163 523.193 358.824 523.616C358.672 523.806 358.52 523.997 358.367 524.187H212.728C213.433 466.739 229.612 413.017 257.289 366.994ZM212.722 524.687H357.968C320.492 571.623 285.338 624.639 254.463 684.429C227.902 638.429 212.704 585.044 212.704 528.109C212.704 526.967 212.71 525.826 212.722 524.687ZM358.608 524.687C320.998 571.75 285.724 624.935 254.76 684.943C279.906 728.302 315.159 765.07 357.294 792.024C387.661 776.124 420.519 756.977 454.604 734.072C476.862 719.116 499.644 702.558 522.598 684.255C468.466 641.367 413.302 588.801 361.719 524.687H358.608ZM254.488 685.47C244.976 703.932 235.872 723.04 227.233 742.812C248.061 771.722 272.984 797.484 301.154 819.248C318.412 811.539 337.071 802.6 356.784 792.292C314.777 765.366 279.615 728.695 254.488 685.47ZM227 743.345C216.048 768.453 205.846 794.634 196.512 821.928C205.141 831.591 214.189 840.872 223.627 849.741C235.021 845.9 248.546 841.03 263.829 834.979C275.18 830.484 287.5 825.339 300.635 819.48C272.593 797.781 247.769 772.123 227 743.345ZM183.785 861.666C187.766 848.353 191.95 835.289 196.326 822.471C204.849 832.003 213.779 841.162 223.09 849.922C216.279 852.213 210.241 854.132 205.057 855.713C198.088 857.838 192.664 859.352 188.982 860.334C187.141 860.825 185.737 861.183 184.792 861.419C184.566 861.475 184.367 861.524 184.194 861.567C184.035 861.606 183.899 861.639 183.785 861.666ZM523.078 841.165C462.279 840.653 405.613 822.81 357.78 792.335C388.091 776.452 420.876 757.339 454.883 734.487C477.181 719.504 500.004 702.914 523 684.573L523.078 684.635V841.165ZM523.578 841.169V685.03C545.359 702.244 566.969 717.892 588.106 732.095C624.662 756.659 659.806 776.904 691.983 793.459C643.817 823.693 586.835 841.176 525.771 841.176C525.039 841.176 524.308 841.174 523.578 841.169ZM588.385 731.68C625.023 756.3 660.242 776.578 692.474 793.15C733.22 767.469 767.629 732.652 792.827 691.574C761.292 628.886 725.053 573.514 686.287 524.687H683.189C632.066 588.624 577.358 641.156 523.578 684.112V684.393C545.453 701.695 567.157 717.416 588.385 731.68ZM692.991 793.415C713.026 803.702 731.902 812.555 749.241 820.127C775.765 799.798 799.44 775.936 819.562 749.245C811.181 729.553 802.339 710.511 793.091 692.1C767.919 733.044 733.604 767.764 692.991 793.415ZM779.16 832.586C798.296 840.163 814.677 845.889 827.567 850.061C835.089 843.007 842.363 835.692 849.376 828.132C840.335 800.935 830.434 774.83 819.788 749.776C799.732 776.337 776.16 800.094 749.764 820.356C760.144 824.882 769.97 828.948 779.16 832.586ZM837.932 853.321C834.938 852.407 831.659 851.382 828.11 850.236C835.502 843.296 842.655 836.103 849.556 828.673C852.891 838.724 856.109 848.923 859.204 859.274C859.105 859.25 858.988 859.222 858.854 859.189C858.668 859.143 858.449 859.089 858.197 859.027C857.253 858.791 855.848 858.433 854.007 857.942C850.326 856.96 844.901 855.446 837.932 853.321ZM838.84 528.109C838.84 587.807 822.13 643.602 793.134 691.072C761.683 628.599 725.561 573.391 686.925 524.687H838.821C838.834 525.826 838.84 526.967 838.84 528.109ZM838.816 524.187H686.528C686.039 523.571 685.549 522.956 685.058 522.342C722.743 474.925 758.443 421.277 790.342 360.663C820.403 408.059 838.078 464.084 838.816 524.187ZM523.578 362.986C578.203 406.023 633.455 458.561 684.419 522.343C683.929 522.958 683.439 523.573 682.948 524.187H551.836C551.836 524.141 551.836 524.095 551.836 524.048C551.836 508.386 539.209 495.673 523.578 495.539V362.986ZM684.739 522.743C684.356 523.225 683.972 523.707 683.588 524.187H685.889C685.506 523.705 685.123 523.224 684.739 522.743ZM551.829 524.687H682.548C631.621 588.328 577.143 640.653 523.578 683.472V552.558C538.995 552.425 551.491 540.055 551.829 524.687ZM523.078 552.558V683.871L522.999 683.935C468.953 641.125 413.876 588.663 362.361 524.687H494.824C495.161 540.055 507.66 552.426 523.078 552.558ZM523.078 552.058C507.936 551.926 495.661 539.779 495.324 524.687H523.078V552.058ZM523.578 552.058V524.687H551.329C550.991 539.779 538.719 551.925 523.578 552.058ZM523.578 524.187H551.336C551.336 524.141 551.336 524.095 551.336 524.048C551.336 508.662 538.932 496.173 523.578 496.039V524.187ZM523.078 524.187V496.039C507.723 496.173 495.316 508.662 495.316 524.048C495.316 524.095 495.317 524.141 495.317 524.187H523.078ZM817.673 303.668C828.719 279.322 839.153 253.963 848.879 227.552C839.935 217.941 830.567 208.73 820.805 199.948C809.255 203.883 795.645 208.818 780.345 214.882C768.754 219.475 756.194 224.717 742.823 230.663C771.099 251.332 796.318 275.936 817.673 303.668ZM862.918 187.16C858.483 200.707 853.864 213.995 849.072 227.026C840.234 217.539 830.983 208.442 821.348 199.763C828.765 197.241 835.322 195.136 840.918 193.41C848.117 191.191 853.727 189.601 857.537 188.567C859.441 188.05 860.896 187.671 861.874 187.422C862.133 187.356 862.358 187.299 862.549 187.251C862.69 187.216 862.813 187.185 862.918 187.16ZM817.439 304.184C796.02 276.327 770.7 251.626 742.296 230.897C724.664 238.751 705.631 247.827 685.563 258.256C727.918 283.389 763.848 318.211 790.301 359.667C799.694 341.784 808.755 323.297 817.439 304.184ZM229.234 309.812C217.913 285.421 207.208 259.997 197.218 233.501C207.645 221.881 218.679 210.817 230.271 200.36C239.931 203.765 250.779 207.788 262.644 212.49C276.328 217.913 291.364 224.239 307.488 231.562C277.643 253.567 251.24 279.969 229.234 309.812ZM202.071 191.019C209.624 193.347 218.926 196.369 229.734 200.171C218.268 210.528 207.347 221.479 197.02 232.974C191.113 217.284 185.457 201.218 180.072 184.768C180.317 184.829 180.666 184.916 181.115 185.03C182.093 185.279 183.548 185.658 185.452 186.175C189.262 187.21 194.872 188.799 202.071 191.019ZM229.474 310.33C251.538 280.361 278.04 253.861 308.01 231.799C325.543 239.774 344.358 248.924 364.114 259.37C320.444 285.696 283.714 322.365 257.314 365.985C247.686 348.059 238.389 329.514 229.474 310.33ZM359.008 524.187H361.317C361.065 523.873 360.812 523.559 360.56 523.245C360.428 523.079 360.295 522.913 360.162 522.747C359.992 522.96 359.821 523.172 359.651 523.384C359.436 523.652 359.222 523.919 359.008 524.187ZM56.7716 524.048C56.7716 524.095 56.7715 524.141 56.7713 524.187H56.349V524.687H56.7645C56.4249 539.862 44.0173 552.059 28.7608 552.059C13.2909 552.059 0.75 539.518 0.75 524.048C0.75 508.578 13.2909 496.037 28.7608 496.037C44.2308 496.037 56.7716 508.578 56.7716 524.048ZM495.316 1020.06C495.316 1004.67 507.723 992.183 523.078 992.049V992.41H523.578V992.049C538.932 992.184 551.336 1004.67 551.336 1020.06C551.336 1035.53 538.797 1048.07 523.327 1048.07C507.857 1048.07 495.316 1035.53 495.316 1020.06ZM987.103 524.438C987.103 508.968 999.641 496.427 1015.11 496.427C1030.58 496.427 1043.12 508.968 1043.12 524.438C1043.12 539.908 1030.58 552.449 1015.11 552.449C999.641 552.449 987.103 539.908 987.103 524.438Z" fill="#8F7E77"/>
</g>
<defs>
<clipPath id="clip0_1262_90666">
<rect width="1044" height="1049" fill="white"/>
</clipPath>
</defs>
</svg>
