<svg width="57" height="57" viewBox="0 0 57 57" fill="none" xmlns="http://www.w3.org/2000/svg">
<path fill-rule="evenodd" clip-rule="evenodd" d="M28.5801 24.5938C26.4648 24.5938 24.7501 26.3085 24.7501 28.4237C24.7501 30.539 26.4648 32.2537 28.5801 32.2537C30.6953 32.2537 32.4101 30.539 32.4101 28.4237C32.4101 26.3085 30.6953 24.5938 28.5801 24.5938ZM25.2501 28.4237C25.2501 26.5846 26.741 25.0938 28.5801 25.0938C30.4192 25.0938 31.9101 26.5846 31.9101 28.4237C31.9101 30.2629 30.4192 31.7537 28.5801 31.7537C26.741 31.7537 25.2501 30.2629 25.2501 28.4237Z" fill="white"/>
<path fill-rule="evenodd" clip-rule="evenodd" d="M41.2501 15.3047H15.0001V41.5547H41.2501V15.3047ZM40.2501 16.3047V40.5547H16.0001V16.3047H40.2501Z" fill="white"/>
<path fill-rule="evenodd" clip-rule="evenodd" d="M49.3093 21.0251V8.45572L48.686 9.07903V20.4017L35.9899 7.70568L47.2309 7.70568L47.8542 7.08237L35.3666 7.08237L28.2843 0L21.2019 7.08237L8.08765 7.08237L8.71095 7.70568L20.5786 7.70568L7.54766 20.7366L7.54766 9.37081L6.92435 8.7475L6.92435 21.3599L0 28.2843L6.92435 35.2086L6.92435 48.0113L7.54766 47.388L7.54766 35.8319L20.5598 48.844H8.92003L8.29672 49.4673H21.1831L28.2843 56.5685L35.3855 49.4673H47.6432L47.0199 48.844H36.0088L48.686 36.1668V47.6817L49.3093 48.305V35.5435L56.5685 28.2843L49.3093 21.0251ZM49.3093 21.8569L55.7367 28.2843L49.3093 34.7116L49.3093 21.8569ZM48.686 35.3349V21.2336L35.1581 7.70568L21.4105 7.70568L7.54766 21.5685V35L21.3917 48.844H35.1769L48.686 35.3349ZM34.5536 49.4673H22.015L28.2843 55.7367L34.5536 49.4673ZM6.92435 34.3767L6.92435 22.1918L0.831889 28.2843L6.92435 34.3767ZM22.0338 7.08237L34.5347 7.08237L28.2843 0.83189L22.0338 7.08237Z" fill="white"/>
<path d="M45.5236 11.7782L50.8936 6.40824L50.1865 5.70113L44.8165 11.0711L45.5236 11.7782Z" fill="white"/>
<path d="M11.5333 11.072L6.3533 5.90196L5.64688 6.60975L10.8269 11.7798L11.5333 11.072Z" fill="white"/>
<path d="M50.3468 51.2997L44.8168 45.7797L45.5232 45.0719L51.0532 50.5919L50.3468 51.2997Z" fill="white"/>
<path d="M10.8277 45.0718L6.23774 49.6518L6.94408 50.3597L11.5341 45.7797L10.8277 45.0718Z" fill="white"/>
</svg>
